<svg width="60" height="60" viewBox="0 0 60 60" fill="none" xmlns="http://www.w3.org/2000/svg">
<path fill-rule="evenodd" clip-rule="evenodd" d="M21.5149 19.9551C22.0142 21.6562 22.5133 23.3572 23.0126 25.0583C23.1972 25.6874 23.0911 26.4494 23.1076 27.1166C23.1409 28.475 23.1884 29.8255 23.69 31.0362C24.1582 32.1665 24.7344 33.2287 25.3235 34.2519C26.1231 32.738 27.3624 31.5544 28.5545 30.6608C29.3757 30.0451 30.2731 29.498 31.2146 29.3207C31.5072 29.2655 31.8301 29.2282 32.1204 29.3301C32.0811 28.7315 32.0738 28.1236 32.1077 27.5244C32.1608 26.5855 32.3447 25.948 32.8793 25.3211C33.1513 25.0022 33.4442 24.7148 33.7426 24.4419C33.8491 24.3444 34.1627 24.1717 34.2268 24.0199C34.2832 23.8865 34.2322 23.5024 34.2397 23.3447C34.2661 22.792 34.3303 22.238 34.4517 21.7076C34.6815 20.7051 35.0886 19.779 35.343 18.7832C34.9641 18.711 34.5852 18.6389 34.2064 18.5667C33.9499 18.5178 33.7801 18.3737 33.6156 18.624C33.046 19.4902 32.56 20.488 32.0393 21.4073C31.696 22.0134 31.3619 22.6226 30.9732 23.1798C30.352 24.0703 29.234 25.5121 28.3175 24.39C27.8468 23.8139 27.7753 22.8244 27.7659 22.0257C27.7532 20.9384 27.8775 19.8509 28.0188 18.7832C26.6323 18.6071 25.2037 18.9095 23.844 19.2519C23.0623 19.4488 22.2827 19.6768 21.5149 19.9551Z" fill="black"/>
<path fill-rule="evenodd" clip-rule="evenodd" d="M29.2251 13.5112C28.2044 13.5112 27.7615 15.3119 28.9918 15.295C29.9516 15.2817 30.4578 13.5112 29.2251 13.5112ZM28.8344 15.6393C27.3024 15.6393 27.8643 13.1795 29.2309 13.1731C30.9171 13.1651 30.1721 15.639 28.8344 15.6393ZM45.5056 47.2924C44.8841 47.4639 44.2599 47.6419 43.6551 47.9015C43.2842 48.0607 42.8635 48.5166 42.6628 47.8497C42.5796 47.5735 42.546 47.2808 42.4455 47.0128C42.3299 46.7041 42.1779 46.4211 42.0168 46.1521C41.6502 45.5398 41.2667 44.8958 40.8497 44.3461C40.0401 43.2787 39.2809 42.1015 38.298 41.3287C38.0455 41.1302 37.8357 40.812 37.5923 40.5832C37.3307 40.3373 37.0681 40.0936 36.7998 39.8608C36.2504 39.3841 35.6904 38.9283 35.1226 38.4916C35.4084 38.0296 35.8029 37.7184 36.1688 37.384C36.5604 37.0261 36.9454 36.6519 37.3318 36.2847C37.5011 36.1239 37.5834 36.0825 37.7723 36.2207C37.946 36.3479 38.1162 36.5076 38.2822 36.6524C38.6894 37.0076 39.0514 37.4261 39.3756 37.9097C40.0739 38.9515 40.891 39.7926 41.6684 40.7221C42.4574 41.6653 43.2434 42.6566 43.9136 43.7537C44.2728 44.3415 44.6264 44.9547 44.9378 45.5895C45.1023 45.9249 45.2419 46.2787 45.3854 46.6303C45.4412 46.7671 45.7374 47.2284 45.5056 47.2924ZM34.7521 37.5861C34.7331 37.6469 34.6905 37.7003 34.6414 37.6556C34.6282 37.6435 34.6658 37.3572 34.6678 37.3229C34.6827 37.0761 34.6856 36.8283 34.6828 36.581C34.6774 36.1144 34.6476 35.6493 34.625 35.1837C34.5794 34.2408 34.5718 33.294 34.4896 32.3547C34.6651 32.4704 34.9044 32.6386 35.027 32.8513C35.1275 33.0259 35.1124 33.1786 35.1141 33.3929C35.1194 34.0401 35.1953 34.6841 35.2303 35.3291C35.2444 35.5896 35.253 35.8496 35.3041 36.1026C35.3472 36.3165 35.4449 36.5541 35.4021 36.7808C35.329 37.1677 34.9579 37.3492 34.7521 37.5861ZM35.716 33.5399C35.9287 33.7337 36.1721 33.8462 36.2159 34.2226C36.2582 34.5871 36.2001 34.9213 36.2943 35.2794C36.3504 35.4917 36.4701 35.7515 36.3723 35.959C36.2702 36.1755 36.014 36.2859 35.8651 36.4367C35.8356 35.9644 35.8605 35.4897 35.8347 35.0172C35.8077 34.5232 35.716 34.0368 35.716 33.5399ZM36.7735 34.6263C36.9587 34.8246 37.144 35.0228 37.3293 35.2211C37.144 35.3556 36.9587 35.4902 36.7735 35.6248V34.6263ZM34.0264 38.4189C33.8897 38.5665 33.6553 38.3928 33.5382 38.2854C33.3558 38.1182 33.3236 37.9683 33.341 37.6786C33.3841 36.9615 33.2855 36.2695 33.1969 35.5618C32.9981 33.9735 32.8364 32.3735 32.7402 30.7681C33.0861 30.9897 33.5429 31.2381 33.7592 31.6862C33.899 31.9756 33.858 32.3457 33.8513 32.6747C33.8423 33.1235 33.8141 33.5716 33.8148 34.0208C33.8162 34.9042 33.8904 35.7872 33.9091 36.6704C33.9169 37.0408 33.916 37.421 34.0489 37.7572C34.0788 37.8328 34.2335 38.0571 34.2377 38.1191C34.2456 38.2347 34.0905 38.3484 34.0264 38.4189ZM32.3436 37.3333C31.9036 37.0281 31.8484 36.2436 31.7445 35.67C31.5997 34.8703 31.4606 34.0539 31.3767 33.2384C31.2942 32.4366 31.3094 31.624 31.2156 30.8234C31.1949 30.6477 31.0637 30.2573 31.1189 30.0828C31.1888 29.8622 31.4497 29.8679 31.5966 29.8343C31.7312 29.8036 31.9836 29.612 32.0704 29.7736C32.1426 29.908 32.073 30.2149 32.056 30.359C31.977 31.0304 32.056 31.7077 32.1134 32.3794C32.2603 34.0962 32.38 35.8133 32.5988 37.5179C32.5138 37.4563 32.4295 37.3929 32.3436 37.3333ZM31.593 39.0801C31.5801 38.7748 31.5674 38.4696 31.5546 38.1644C31.6883 38.2315 31.8219 38.2986 31.9557 38.3658C31.8505 38.6165 31.7564 38.885 31.593 39.0801ZM31.1258 39.8401C31.001 40.0131 30.8905 40.24 30.7183 40.3354V37.8745C30.8644 37.9033 31.0286 37.8518 31.0885 38.0654C31.1342 38.2288 31.0728 38.4823 31.0905 38.6613C31.1195 38.9564 31.3094 39.5857 31.1258 39.8401ZM30.2682 36.2204C30.1401 34.845 30.1026 33.4577 29.9355 32.0883C29.8977 31.7783 29.8544 31.4776 29.7976 31.1729C29.7617 30.9804 29.687 30.7458 29.78 30.565C29.9233 30.2864 30.3254 30.2944 30.5449 30.2253C30.5185 32.3818 30.5943 34.5811 31.1601 36.6246C30.9736 36.5959 30.2997 36.5591 30.2682 36.2204ZM30.1961 40.9376C29.9566 41.1688 29.7398 41.5039 29.4457 41.6117C29.4273 40.6334 29.4165 39.6545 29.3881 38.6767C29.3815 38.4492 29.3769 38.2196 29.3595 37.9929C29.3522 37.8965 29.3036 37.6979 29.3385 37.601C29.4279 37.3529 29.7559 37.5221 29.8914 37.6344C30.0782 37.7892 30.0573 38.0443 30.0544 38.3176C30.0508 38.6661 30.0549 39.0012 30.0741 39.3501C30.0912 39.6593 30.1128 39.9587 30.1537 40.2634C30.1673 40.3655 30.2765 40.8599 30.1961 40.9376ZM29.0466 41.998C28.7561 42.2103 28.6488 41.8052 28.5157 41.5384C28.4243 41.3553 28.2784 41.1815 28.2416 40.9593C28.2045 40.7359 28.2874 40.5099 28.3015 40.2894C28.3354 39.7594 28.2065 39.2128 28.1565 38.6905C28.0997 38.0972 28.0789 37.4954 28.0789 36.8976C28.2983 37.0305 28.6912 37.0359 28.7701 37.3963C28.8052 37.5563 28.7583 37.7628 28.7511 37.9261C28.7389 38.2011 28.7458 38.4786 28.7432 38.7542C28.7332 39.8462 28.7666 40.9125 29.2218 41.8613C29.1639 41.9079 29.1055 41.9536 29.0466 41.998ZM28.1148 42.6622C27.6232 42.9397 27.1506 43.2935 26.6316 43.4761C26.1126 43.6588 25.5833 43.8239 25.0572 43.9661C23.956 44.2637 22.8248 44.4379 21.7002 44.3901C21.1497 44.3665 20.608 44.27 20.0642 44.159C19.5134 44.0465 19.0367 43.7822 18.5155 43.539C17.5023 43.0662 16.4639 42.7597 15.5033 42.0997C15.2715 41.9404 15.046 41.7661 14.8158 41.603C14.6935 41.5165 14.5433 41.4793 14.5366 41.273C14.5298 41.0594 14.7028 40.6671 14.7714 40.4756C14.8777 40.1791 15.0417 39.9435 15.2082 39.7044C15.4904 39.299 15.7554 38.6961 16.0977 38.3836C16.2865 38.2112 16.3641 38.3165 16.5298 38.4701C16.7479 38.6724 17.0083 38.8164 17.2525 38.9544C18.2572 39.5224 19.3991 39.8665 20.4799 40.0346C21.544 40.2001 22.5959 40.361 23.6554 40.0235C24.255 39.8325 24.8178 39.5112 25.3845 39.1945C25.5719 39.0898 25.7825 38.8597 25.9538 39.0395C26.1371 39.2321 26.2463 39.6296 26.3961 39.8733C26.7547 40.4565 27.1998 40.9104 27.5584 41.4922C27.6454 41.6335 28.367 42.5199 28.1148 42.6622ZM14.0273 39.8711C13.8683 40.1838 13.7251 40.522 13.6797 40.9001C13.3742 40.5734 13.1657 40.4628 13.4114 39.9466C13.641 39.4641 13.8451 38.9724 14.0542 38.4729C14.1396 38.2688 14.2663 38.0295 14.2386 37.7821C14.207 37.5002 14.0186 37.3736 13.8354 37.5008C13.7053 37.5911 13.6073 37.8299 13.5215 37.9829C13.3667 38.2586 13.232 38.5516 13.1005 38.8477C13.0029 39.0677 12.9105 39.424 12.7741 39.5926C12.6823 39.7061 12.5663 39.7122 12.5419 39.4901C12.5202 39.2927 12.74 38.9446 12.8055 38.7876C12.9123 38.5315 13.0299 38.2816 13.1137 38.01C13.2007 37.7285 13.2576 36.7962 12.8383 37.2597C12.6936 37.4196 12.5718 37.7285 12.4627 37.931C12.2951 38.2425 12.1377 38.5638 11.9926 38.8949C11.7366 38.6668 11.493 38.3065 11.1841 38.2083C10.8905 38.1151 10.6268 38.4703 10.3762 38.634C9.98604 38.889 9.61766 39.1982 9.24612 39.4972C8.91454 39.764 8.56186 39.9729 8.23661 40.2551C7.67083 40.7462 6.98176 41.3933 6.27114 41.1015C5.9896 40.9859 5.6787 40.748 5.52571 40.4001C5.31899 39.9299 5.37178 39.3033 5.23878 38.7943C5.61547 39.0722 6.01251 38.7514 6.34473 38.512C6.71704 38.2437 7.10323 38.0144 7.49393 37.798C8.30153 37.3508 9.13895 36.9602 9.93378 36.4778C11.4869 35.535 12.7963 34.0147 14.3547 33.0931C14.7213 34.5103 15.3269 35.8158 16.1294 36.8679C15.3631 37.7822 14.6074 38.7305 14.0273 39.8711ZM26.2963 34.2254C26.0884 34.0944 25.8353 34.067 25.9796 33.7053C26.082 33.4485 26.3048 33.2697 26.4456 33.0513L26.6191 34.4472C26.5116 34.3729 26.4058 34.2944 26.2963 34.2254ZM27.4735 34.9944C27.447 34.2986 27.3817 33.5813 27.1893 32.9296C27.1329 32.7385 27.0362 32.5133 27.1169 32.3146C27.1994 32.1115 27.4419 32.0004 27.5916 31.9155C27.7057 33.1011 27.7607 34.3073 28.0252 35.4564C27.8301 35.385 27.4871 35.3501 27.4735 34.9944ZM27.6354 39.7652C27.6364 39.7862 27.6374 39.8072 27.6383 39.8282C27.4381 39.6964 27.2142 39.4926 27.1101 39.2188C27.0008 38.9317 27.0592 38.6016 27.0606 38.2947C27.0621 37.9403 27.0168 37.5975 26.9677 37.2508C26.9121 36.8598 26.9468 36.4933 26.9655 36.1001C27.1263 36.245 27.3679 36.3472 27.4738 36.578C27.5847 36.8196 27.5209 37.1344 27.499 37.3968C27.4339 38.1769 27.4823 39.0072 27.6354 39.7652ZM29.5089 36.1577C29.1224 36.0854 28.9167 35.9811 28.8488 35.4457C28.7653 34.7882 28.6773 34.1344 28.6098 33.4735C28.5471 32.8597 28.3313 32.2233 28.3098 31.6111C28.2946 31.1801 28.8375 31.0267 29.0833 30.8663C29.2147 32.6313 29.28 34.4079 29.5089 36.1577ZM25.5614 33.2987C25.5185 33.4301 25.4827 33.5655 25.4437 33.699C25.1708 33.159 24.9019 32.6305 24.5841 32.1349C24.2898 31.6757 24.0445 31.2068 23.8937 30.6335C23.7301 30.0122 23.5803 29.3526 23.5309 28.6954C23.4812 28.0327 23.5269 27.3529 23.5383 26.6886C23.545 26.3026 23.7071 25.3279 23.4801 25.0134C23.3967 24.8979 23.2649 24.937 23.1706 24.8301C23.0413 24.6836 22.9995 24.3833 22.9462 24.182C22.6096 22.9135 22.313 21.6065 21.8174 20.4272C22.4783 20.0501 23.2264 19.8605 23.9227 19.6298C24.654 19.3876 25.4135 19.2379 26.1641 19.1547C26.5265 19.1145 26.8895 19.0975 27.2532 19.1011C27.5482 19.104 27.8434 19.0383 27.7435 19.5394C27.5924 20.2967 27.4829 21.0725 27.49 21.8597C27.5004 23.0093 27.7211 24.535 28.5996 25.0589C29.968 25.8748 31.0473 23.9142 31.748 22.6712C32.2377 21.8024 32.71 20.9433 33.1327 20.0107C33.271 19.7058 33.3891 19.2358 33.6525 19.0837C33.9792 18.8951 34.4506 19.0258 34.7959 19.0258C34.7697 19.5811 34.7432 20.046 34.5627 20.5568C34.3877 21.0517 34.2445 21.55 34.1268 22.0742C34.0142 22.5756 33.9631 23.0438 33.9164 23.5559C33.8748 24.011 33.5254 23.8502 33.2755 23.9807C32.6894 24.2868 32.3736 25.2137 32.1417 25.9286C31.9936 26.3854 31.8406 26.8531 31.7775 27.3468C31.7019 27.9376 31.7563 28.5386 31.7734 29.1326C31.6722 29.1612 31.5614 29.0522 31.466 29.0222C31.3207 28.9764 31.162 28.975 31.0139 28.9879C30.6875 29.0164 30.3566 29.0941 30.0381 29.191C29.3495 29.4005 28.6984 29.7785 28.0748 30.2144C27.064 30.921 26.033 31.8552 25.5614 33.2987ZM22.1721 24.211C21.1385 24.6853 20.0893 25.1275 19.0112 25.3843C18.481 25.5105 17.9505 25.4836 17.4149 25.4624C17.1687 25.4526 16.9549 25.3985 16.7163 25.331C16.5347 25.2796 16.2318 25.1542 16.0633 25.2987C15.9651 24.8675 15.4462 24.8595 15.1802 24.7901C14.9638 24.7336 14.7732 24.588 14.5606 24.5197C14.4808 24.494 14.403 24.4984 14.3324 24.4447C14.2646 24.3931 14.2264 24.276 14.1558 24.2303C14.0544 24.1647 13.9313 24.1603 13.8566 24.0668C13.6834 23.8504 13.4897 23.6576 13.3182 23.4376C13.1449 23.2157 13.0628 22.9288 12.9447 22.6535C12.8066 22.3315 12.5922 22.0146 12.4905 21.6718C12.5352 21.7128 12.5796 21.7542 12.6238 21.7962C12.5996 21.3931 12.5166 21.0386 12.5377 20.6208C12.5481 20.4147 12.5324 20.2825 12.5128 20.0875C12.4979 19.9386 12.5124 19.816 12.5141 19.6493C12.5185 19.204 12.6288 18.7965 12.6812 18.3618C12.6987 18.2174 12.7079 18.0625 12.7126 17.9196C12.7169 17.789 12.656 17.6153 12.6675 17.4746C12.7133 17.5056 12.7545 17.5451 12.7912 17.593C12.6884 17.2579 13.0184 16.8595 13.0549 16.5396C13.11 16.0584 12.7664 15.9364 12.4759 15.994C12.0849 16.0715 11.7237 16.3795 11.3737 16.6049C10.8945 16.9136 10.4179 17.2238 9.94837 17.5581C9.39753 17.9502 8.91659 18.4703 8.37436 18.8705C8.30569 18.9212 8.05286 19.1401 8.00704 18.9576C7.96637 18.7957 8.24885 18.5026 8.31747 18.4184C8.66985 17.9858 9.06506 17.6024 9.46046 17.2426C9.73356 16.994 10.0197 16.7718 10.2993 16.5366C10.5998 16.284 11.0208 15.999 11.1387 15.5162C11.2357 15.119 11.1231 14.7581 10.7872 14.8722C10.3525 15.0198 9.91725 15.4259 9.51823 15.6957C9.11962 15.9653 8.71491 16.2201 8.31876 16.4959C8.2304 16.5574 7.8912 16.8755 7.94833 16.6214C7.9945 16.4158 8.26116 16.1679 8.37618 16.0274C8.54651 15.8192 8.72598 15.6246 8.91079 15.4397C9.30137 15.0488 9.71639 14.7027 10.1379 14.3748C10.3964 14.1737 10.6747 13.9615 10.6884 13.5143C10.7118 12.747 10.1893 13.1542 9.88784 13.3064C9.48454 13.5098 9.06665 13.6563 8.66235 13.8564C8.29374 14.0387 7.92149 14.2368 7.52844 14.3034C7.32735 14.3376 7.02817 14.3478 7.07657 13.9733C7.12854 13.5721 7.55833 13.2965 7.79311 13.1176C8.19489 12.8112 8.60663 12.6946 9.05282 12.5611C9.53862 12.4157 10.0177 12.2592 10.509 12.1465C11.5046 11.9182 12.4627 11.8375 13.4684 11.9594C13.9294 12.0153 14.3979 11.9554 14.8537 12.0117C15.1568 12.049 15.3843 12.3006 15.549 12.6261C15.9505 13.4193 16.119 14.501 16.0545 15.4383C15.961 16.7963 15.5166 17.9408 15.1368 19.1773C14.8479 20.1179 14.6323 21.4247 15.4071 22.0653C15.7729 22.3678 16.186 22.3467 16.5958 22.2672C17.1486 22.1598 17.6932 21.9891 18.2333 21.8018C19.3008 21.4315 20.3578 21.0156 21.4116 20.5823C21.4581 20.8272 22.4645 24.0768 22.1721 24.211ZM27.9044 22.07C27.9434 21.3422 27.9628 20.6243 28.0589 19.9044C28.0902 19.6701 28.1042 19.4097 28.2574 19.2547C28.4088 19.1015 28.6336 19.0966 28.8059 19.0021C29.2634 18.751 29.6374 18.174 29.9832 17.7194C30.3403 17.2501 30.5723 16.7153 30.7407 16.0882C30.8754 15.5866 31.089 14.7946 30.8396 14.3013C30.6454 13.9173 30.329 13.7825 30.4286 13.2293C30.5138 12.7565 30.8665 12.4904 31.1727 12.8085C31.3641 13.0072 31.5792 13.49 31.5792 12.8337C32.3955 13.0747 33.2389 12.694 33.9521 12.1775C34.0915 12.0765 34.2624 11.9161 34.4041 12.0753C34.4977 12.1804 34.5282 12.3876 34.6308 12.5043C34.738 12.6262 34.9062 12.694 34.9393 12.898C34.9649 13.0553 34.8904 13.3003 34.8586 13.4457C34.7774 13.8161 34.668 14.1949 34.4458 14.454C34.3496 14.5662 34.0193 14.9457 33.8956 14.7851C33.7526 14.5997 34.0628 13.9986 33.6686 14.3428C33.5276 14.466 33.4839 14.4719 33.4238 14.6969C33.3532 14.9612 33.321 15.2418 33.293 15.5185C33.1398 15.4517 32.8964 15.2343 32.7398 15.3923C32.5915 15.5421 32.6698 15.8554 32.7918 15.9857C32.9171 16.1193 33.1724 16.1443 33.3189 16.0584C33.5531 15.921 33.5542 15.5697 33.6042 15.2812C33.7365 15.4091 33.8251 15.636 34.0152 15.5925C33.4374 16.506 32.6765 17.1386 31.7727 17.1407C31.3641 17.1416 31.2098 17.3511 31.1282 17.8822C31.045 18.4248 31.0473 19.0164 31.0468 19.5668C31.0463 20.0159 31.0586 20.4755 31.1615 20.9071C31.2296 21.1931 31.3626 21.4718 31.4466 21.004C31.4919 20.7529 31.4598 20.4646 31.4579 20.2076C31.4568 20.0461 31.4161 19.7511 31.4953 19.6181C31.5834 19.4703 31.7878 19.5518 31.9104 19.5502C32.1677 19.5469 32.414 19.4188 32.6715 19.4188C32.291 20.1661 31.86 20.8649 31.4957 21.6273C31.1233 22.4069 30.6706 23.1392 30.122 23.7115C29.6636 24.1897 29.0256 24.4365 28.5052 23.9708C28.0589 23.5713 27.8674 22.7582 27.9044 22.07ZM34.9951 15.2195C35.1613 15.5356 34.6251 16.1579 34.4195 16.1531C34.472 16.0405 34.8912 15.0218 34.9951 15.2195ZM35.3604 19.5467C35.4214 19.313 35.7661 19.3323 35.9092 19.3261C36.2212 19.3124 36.5338 19.3114 36.8461 19.2986C37.6999 19.2637 38.5531 19.1815 39.4077 19.1997C40.2924 19.2186 41.1778 19.1064 42.0609 19.1474C42.8999 19.1863 43.7358 19.2904 44.5606 19.5011C46.0716 19.8872 47.6425 20.4376 48.8503 21.7904C49.9351 23.0055 50.7435 24.764 50.5725 26.7075C50.4669 27.9059 50.4286 29.1647 50.0881 30.2976C49.7987 31.2605 49.1913 31.8572 48.5639 32.4118C48.5557 32.181 49.0167 30.6872 48.5247 30.9156C48.3659 30.9893 48.2739 31.2806 48.1874 31.4553C48.0356 31.7617 47.873 32.0617 47.7084 32.3562C47.4098 32.8909 47.0669 33.3965 46.6263 33.727C46.4557 33.8551 45.9128 34.2318 45.8163 33.8186C45.7364 33.4763 46.2547 32.7832 46.3767 32.5212C46.4849 32.289 46.5715 32.0647 46.5308 31.7882C46.5151 31.6817 46.467 31.5838 46.449 31.4772C46.4345 31.391 46.4513 31.259 46.4221 31.1802C46.2264 30.6533 46.0178 31.5659 45.9559 31.7306C45.7418 32.3007 45.2433 32.6718 44.8554 32.9986C44.3729 33.4052 43.8955 33.8457 43.3354 34.0379C43.6859 33.2376 44.0442 32.4424 44.3626 31.6179C44.659 30.8503 44.8463 29.9621 45.1926 29.2498C45.2511 29.1295 45.2908 28.9992 45.3372 28.8551C45.3661 28.7653 45.4095 28.4594 45.4477 28.4058C45.4694 28.3754 45.5905 28.3638 45.6381 28.3022C45.6966 28.2264 45.7295 28.1063 45.7593 28.0077C45.7946 27.8905 45.93 27.4826 45.8945 27.3499C45.887 27.3222 45.7902 27.3342 45.7735 27.283C45.7538 27.223 45.7681 27.1793 45.766 27.1181C45.7614 26.977 45.8284 26.8704 45.7493 26.7355C46.1492 26.7355 45.7765 25.3015 45.7081 25.0408C45.6321 24.751 45.5048 24.5429 45.4461 24.2602C45.3746 23.9154 45.1757 23.6131 44.9982 23.3527C44.8206 23.0922 44.6352 22.7815 44.4354 22.5547C44.2284 22.3199 43.9489 22.187 43.7137 22.0092C43.6088 21.9299 43.4966 21.8246 43.3762 21.7924C43.3371 21.8079 43.2982 21.824 43.2594 21.8408C43.2142 21.8092 43.1741 21.7686 43.139 21.7191C42.9141 21.5633 42.6938 21.5071 42.4407 21.4663C41.1898 21.2647 39.849 21.2284 38.5932 21.3699C37.9407 21.4433 37.2773 21.5271 36.6347 21.6977C35.9691 21.8744 35.3144 22.1001 34.6415 22.2301C34.7935 21.2973 35.1261 20.4433 35.3604 19.5467ZM38.9808 8.10364C39.0962 8.08318 39.0478 8.29294 39.0105 8.35607C38.962 8.28177 38.9521 8.19763 38.9808 8.10364ZM55.188 52.4647C55.0935 51.8577 54.7693 51.2318 54.3956 50.8689C53.9345 50.421 53.4137 50.4159 52.8719 50.4524C52.2509 50.4943 51.6478 50.6388 51.0363 50.7775C50.4148 50.9184 49.8032 51.0397 49.2 51.2919C48.9584 51.3929 48.7128 51.4779 48.4745 51.5919C48.2968 51.6769 48.0914 51.8398 48.0024 51.5304C47.8407 50.9681 48.4628 50.7237 48.7105 50.4865C48.8454 50.3573 49.0246 50.1706 48.8554 49.9705C48.6553 49.7341 48.3163 49.9615 48.1123 50.0594C47.924 50.1498 47.733 50.1812 47.7809 49.7801C47.8127 49.5138 48.072 49.3411 48.2171 49.1856C48.3955 48.9943 49.0221 48.4307 48.6201 48.145C48.1922 47.8409 47.952 48.5996 47.5864 48.6386C47.2646 48.673 47.2667 47.6178 47.1767 47.3288C46.9494 46.5989 46.3805 47.3976 46.1249 46.9574C46.0195 46.7759 46.0559 46.4493 46.0165 46.2365C45.9517 45.8862 45.8014 45.5425 45.6801 45.2215C45.4114 44.5112 45.101 43.8289 44.7537 43.1821C44.4068 42.536 44.0225 41.9804 43.5852 41.4432C43.1465 40.9044 42.7642 40.2921 42.3328 39.7435C41.4741 38.6515 40.4845 37.7529 39.6046 36.6877C39.4015 36.4418 39.2079 36.1854 38.9707 35.9967C38.753 35.8236 38.393 35.7302 38.2195 35.4839C38.1067 35.3238 38.1253 35.0986 38.0705 34.9016C37.9778 34.5678 37.755 34.3418 37.5643 34.1084C36.6775 33.0236 35.7498 31.9459 34.7085 31.1302C34.2035 30.7345 33.6918 30.242 33.15 29.9441C32.9749 29.8478 32.7382 29.8079 32.5941 29.6316C32.4432 29.4468 32.4147 29.1237 32.3575 28.8739C32.0032 27.3242 32.7331 25.7194 33.6191 24.7565C33.7767 24.5852 34.0039 24.4439 34.1052 24.2041C34.2162 23.9415 34.2215 23.6045 34.3399 23.3375C34.5592 22.8429 35.1559 22.9111 35.5327 22.7987C37.8076 22.1201 40.5075 21.8573 42.7374 22.9399C43.6745 23.3947 44.4793 24.1604 44.8377 25.4354C44.9995 26.0109 45.0846 26.6351 45.0712 27.2501C45.0562 27.9354 44.8681 28.5712 44.696 29.2095C44.4891 29.977 44.2576 30.7332 43.9895 31.4665C43.7476 32.1285 43.441 32.7244 43.174 33.3649C43.0081 33.7628 42.745 34.4965 43.1246 34.8258C43.4273 35.0883 43.9078 34.9348 44.2064 34.7428C44.653 34.4555 44.9832 33.9399 45.3741 33.5472C45.3758 33.9363 45.1163 34.2847 45.2345 34.6783C45.3519 35.0694 45.6706 35.0186 45.9224 34.9233C46.2099 34.8143 46.508 34.6451 46.7711 34.457C47.1035 34.2194 47.3427 33.8551 47.6251 33.532C48.1213 32.9644 48.7806 32.7743 49.3119 32.2822C49.8612 31.7735 50.2407 31.0035 50.4722 30.1774C50.7403 29.2206 50.85 28.1947 50.9424 27.1858C51.0337 26.1876 51.0785 25.2038 50.8306 24.2372C50.3591 22.3987 49.4025 20.949 48.1167 20.0397C45.4035 18.1209 42.3387 18.1994 39.3589 18.3047C38.5422 18.3336 37.7247 18.3483 36.9092 18.4196C36.5343 18.4524 36.1586 18.4932 35.7863 18.5605C35.6727 18.5811 35.4185 18.6968 35.3174 18.5728C35.2393 18.4772 35.2851 18.2759 35.2143 18.1605C35.0459 17.8861 34.6702 17.9567 34.4459 17.9933C34.1626 18.0393 33.8289 18.0474 33.5742 18.2315C33.3293 18.4084 33.2441 18.7791 32.9407 18.7847C32.6032 18.7908 32.2506 18.6838 31.9107 18.6666C31.6432 18.6531 31.4059 18.5303 31.662 18.1397C31.8573 17.8419 32.1845 17.8437 32.45 17.7763C32.941 17.6517 34.0571 16.5571 34.4248 17.3161C34.5258 17.5243 34.5185 17.5999 34.7125 17.691C34.8919 17.7753 35.0955 17.8162 35.2834 17.8573C35.6331 17.9337 36.0396 17.9952 36.3817 17.8326C36.9134 17.5797 37.0233 16.7833 37.1474 16.1388C37.7152 16.541 38.5727 16.7278 39.1334 16.202C39.6045 15.7601 39.774 14.8338 39.7537 14.1067C39.7476 13.8904 39.7261 13.6686 39.6684 13.4651C39.6149 13.2765 39.4707 13.0803 39.476 12.8704C39.4807 12.6877 39.61 12.529 39.6693 12.3758C39.7574 12.1484 39.7997 11.8784 39.8172 11.625C39.881 10.6946 39.3596 10.1754 38.8176 9.74739C39.136 9.24208 39.4919 8.73779 39.4641 8.02989C39.4383 7.36935 39.0468 6.90966 38.643 6.59982C38.2819 6.32271 37.9176 6.21544 37.5125 6.14825C37.3359 6.11896 37.2684 6.1431 37.2966 5.90029C37.3189 5.70747 37.4229 5.53614 37.4549 5.34529C37.6416 4.23318 36.8174 3.80989 36.1503 3.71302C35.0519 3.55349 34.0335 3.85169 33.1413 4.71591C32.4893 2.88544 30.3153 3.78857 29.7094 5.20716C29.6299 5.39318 29.5712 5.59529 29.5438 5.80669C29.5255 5.94818 29.583 6.28177 29.53 6.38927C29.4267 6.59888 29.0153 6.40044 28.8703 6.41044C28.6046 6.42864 28.3201 6.61224 28.1055 6.81255C27.1989 7.65911 27.2448 9.39857 27.4624 10.6763C26.8797 10.7817 26.2907 11.4244 26.2789 12.2508C26.2729 12.6654 26.3857 13.1333 26.5676 13.4685C26.7538 13.8118 27.0935 14.0411 27.1284 14.4976C27.165 14.9777 27.089 15.2593 27.3901 15.6214C27.6107 15.8868 27.9027 16.1013 28.1815 16.2358C28.834 16.5504 29.5766 16.4389 30.2105 16.0994C29.8883 16.7776 29.3727 17.3822 28.8705 17.8175C28.6453 18.0128 28.3805 18.2637 28.1267 18.3852C27.8512 18.5171 27.5102 18.287 27.2254 18.2552C25.946 18.1125 24.6286 18.4229 23.3973 18.8468C22.0648 19.3055 20.7475 19.8095 19.4249 20.3192C18.7701 20.5715 18.1164 20.8381 17.4549 21.0576C16.9582 21.2223 16.4049 21.3672 15.8916 21.2505C15.454 21.1509 15.2394 20.7575 15.3804 20.1672C15.5661 19.3896 15.9285 18.6644 16.1531 17.9007C16.5685 16.4879 16.7744 14.8649 16.4111 13.394C16.264 12.7984 16.0546 12.1069 15.654 11.736C15.4423 11.5399 15.1773 11.4243 14.9475 11.2693C14.6556 11.0725 14.3419 10.93 14.0261 10.8179C12.7575 10.3675 11.4191 10.578 10.1522 10.925C9.00776 11.2384 7.22991 11.6829 6.7188 13.3179C6.54401 13.8769 6.48049 14.822 6.91503 15.212C7.28903 15.5476 7.85364 15.3304 8.21739 15.0771C7.8629 15.6208 7.42268 16.139 7.25165 16.8447C7.19147 17.0932 7.14512 17.4361 7.26671 17.6664C7.44342 18.0011 7.74389 17.8043 7.98126 17.7258C7.70282 18.2046 7.30186 18.9679 7.5861 19.58C7.90057 20.257 8.5345 19.8032 8.92585 19.5204C9.50651 19.101 10.112 18.7473 10.6938 18.3304C11.0055 18.1071 11.3111 17.8701 11.5829 17.5662C11.808 17.3146 11.9989 17.0475 12.3095 17.0171C11.9041 18.0373 11.5046 19.0984 11.5119 20.2815C11.5189 21.3831 11.8432 22.6927 12.2815 23.6257C12.7401 24.6018 13.4805 25.2028 14.2619 25.6345C15.1127 26.1047 15.9806 26.4221 16.9048 26.4731C18.7063 26.5726 20.6484 26.0131 22.2031 24.785C22.3194 24.6931 22.3235 24.661 22.4324 24.7674C22.5719 24.9036 22.6839 25.3945 22.7711 25.6005C23.0269 26.2047 22.9513 26.7127 22.903 27.3751C22.8172 28.5515 23.01 29.7401 23.2814 30.8537C23.5525 31.9666 24.0032 32.8475 24.5674 33.7326C24.8206 34.1297 25.0839 34.4433 25.4259 34.698C25.7978 34.9751 26.1149 35.2165 26.2592 35.7805C26.3794 36.2507 26.3599 36.6525 26.1927 37.0951C26.1495 37.2095 26.0665 37.5596 25.9873 37.6394C25.9118 37.7154 25.8918 37.6474 25.8219 37.6722C25.6942 37.7173 25.6578 37.7426 25.5546 37.8731C25.2786 38.2223 24.8701 38.3147 24.5127 38.4572C24.0209 38.6534 23.5147 38.8438 22.9997 38.8785C22.1125 38.9383 21.0989 38.9315 20.2448 38.5907C19.3847 38.2474 18.4932 38.0499 17.6656 37.5704C17.2893 37.3523 17.1159 37.2408 17.036 36.6947C16.9936 36.4051 16.9329 36.3824 16.7508 36.2991C16.5417 36.2033 16.458 36.0716 16.3348 35.8182C16.1143 35.3649 15.9044 34.9047 15.6995 34.4387C15.4428 33.8552 15.1215 33.3195 14.88 32.7259C14.7357 32.3712 14.626 31.7476 14.25 31.7337C14.0268 31.7255 13.7837 31.9419 13.5832 32.052C13.3388 32.1862 13.0923 32.3139 12.8484 32.4498C11.9094 32.9733 11.071 33.7595 10.2129 34.4804C9.27641 35.2672 8.20538 35.8235 7.21385 36.4862C6.7512 36.7954 6.3094 37.1505 5.88653 37.5485C5.61307 37.8057 5.07922 38.0864 5.11919 38.5973C4.98389 38.4988 4.81462 38.3269 4.68518 38.5316C4.57831 38.7006 4.65161 39.0114 4.6785 39.2036C4.76692 39.8361 4.8721 40.4806 5.1612 41.0108C5.61911 41.8508 6.49186 42.5395 7.28715 42.3883C8.25934 42.2034 9.03905 41.2814 9.87448 40.6757C10.1796 40.4544 10.486 40.2484 10.775 39.9915C10.9453 39.8402 11.2453 39.5138 11.4691 39.5531C11.8105 39.613 11.5251 40.1515 11.4315 40.3615C11.3326 40.5838 11.2499 40.8181 11.1615 41.0483C11.0625 41.3062 10.8978 41.5942 10.841 41.8736C10.8051 42.0505 10.8226 42.3188 10.9877 42.363C11.1556 42.4081 11.2994 42.1182 11.3846 41.9745C11.5249 41.7376 11.6418 41.4784 11.7624 41.2234C11.8423 41.0541 11.9411 40.7314 12.0761 40.6255C12.426 40.3514 12.0434 41.2304 11.9806 41.3504C11.9018 41.5011 11.7875 41.683 11.7685 41.869C11.7404 42.1428 11.9076 42.407 12.1225 42.3415C12.2881 42.291 12.3998 42.061 12.493 41.8915C12.5529 41.7827 12.7318 41.358 12.8478 41.354C12.9195 41.3515 13.1006 41.6838 13.1565 41.7558C13.319 41.9653 13.5117 42.1082 13.7138 42.2387C14.6495 42.8432 15.5002 43.6174 16.4763 44.1197C17.4088 44.5997 18.3812 44.9779 19.3517 45.2898C19.8635 45.4543 20.342 45.6336 20.8698 45.6915C21.4039 45.7501 21.9303 45.7208 22.465 45.7061C23.5561 45.6759 24.5843 45.374 25.6326 44.9889C27.4942 44.3049 29.2433 43.1823 30.6842 41.444C31.0566 40.9948 31.3937 40.5015 31.7124 39.9849C31.8509 39.7605 31.9959 39.5383 32.1131 39.293C32.1914 39.129 32.2626 38.848 32.4006 38.7543C32.6131 38.61 33.103 39.0669 33.2946 39.1936C33.5045 39.3323 33.7193 39.5136 33.948 39.586C34.034 39.6132 34.1176 39.6155 34.2018 39.6545C34.2859 39.6935 34.385 39.8165 34.4809 39.789C34.8378 39.6865 34.2527 38.77 34.7762 39.2342C35.6125 39.9757 36.3943 40.8622 37.1826 41.6909C37.3799 41.8983 37.5821 42.0807 37.7931 42.2625C37.9905 42.4327 38.1419 42.6646 38.3308 42.8488C38.7446 43.252 39.1347 43.6825 39.5111 44.1468C39.884 44.6068 40.2415 45.0934 40.6355 45.5217C41.0217 45.9415 41.3226 46.4263 41.6477 46.9266C41.9649 47.4147 42.2016 47.976 42.4267 48.5446C42.2384 48.4571 42.0805 48.3078 41.977 48.635C41.9103 48.8455 41.9673 49.1343 42.0103 49.3439C42.1483 50.0157 42.4381 50.6186 42.6122 51.2741C42.8105 52.0208 43.1035 52.7376 43.2685 53.4974C43.4145 54.1696 43.3801 54.9137 43.589 55.5651C43.7604 56.1 44.3849 55.9761 44.7456 56.024C45.3221 56.1004 45.8919 56.1869 46.4716 56.2108C47.6777 56.2606 48.8994 56.3824 50.1054 56.3204C51.2024 56.2639 52.2968 56.1741 53.3902 56.0483C53.6894 56.0139 54.3553 55.934 54.4241 55.4101C54.4687 55.0718 54.243 55.1226 54.072 55.1437C53.8285 55.1738 53.5823 55.169 53.3379 55.1745C52.1672 55.2012 51.0176 55.2226 49.8491 55.1038C48.6541 54.9823 47.4599 54.9522 46.2641 54.8929C45.7251 54.8662 45.2015 54.8535 44.6642 54.8861C44.5037 54.8958 44.3066 54.9215 44.2169 54.7143C44.1267 54.5061 44.1393 54.0112 44.0986 53.7769C43.9566 52.9619 43.6451 52.24 43.4356 51.4569C43.2243 50.6669 43.0138 49.8798 42.744 49.1209C43.6088 48.9183 44.4723 48.6902 45.325 48.4101C45.672 48.2961 46.0384 48.2198 46.3752 48.0648C46.7476 47.8936 46.7559 47.9872 46.8269 48.4565C46.8887 48.8655 46.9591 49.1566 46.6787 49.429C46.3876 49.7119 46.0312 49.8813 45.7688 50.2172C45.5291 50.5239 45.5774 50.9633 45.9622 50.8998C46.3429 50.8371 46.7794 50.4545 47.1243 50.2412C47.1725 50.5194 47.2174 50.7176 47.0824 50.9579C46.9395 51.2122 46.7216 51.3747 46.5603 51.6054C46.4413 51.7756 46.3163 52.0253 46.512 52.1903C46.7133 52.36 46.9142 52.1383 47.0648 51.9849C47.1787 51.8687 47.3666 51.6122 47.5182 51.7561C47.6761 51.9059 47.5925 52.2855 47.6857 52.4899C47.8432 52.8351 47.9521 52.5797 48.1056 52.4337C48.3525 52.1988 48.856 52.2641 49.1502 52.2316C49.5031 52.1926 49.8475 52.1059 50.1982 52.0482C50.616 51.9794 51.0369 51.9761 51.4543 51.8967C52.0946 51.7748 52.7976 51.4272 53.4402 51.6453C54.4419 51.9853 54.9276 53.4186 54.7687 54.7105C54.7374 54.9651 54.583 55.5269 54.7609 55.7451C54.9279 55.95 55.0479 55.5823 55.1086 55.4064C55.426 54.485 55.3375 53.4257 55.188 52.4647Z" fill="black"/>
<path fill-rule="evenodd" clip-rule="evenodd" d="M43.5585 15.6736C44.9348 15.4872 46.3596 15.9011 47.6873 16.353C48.8794 16.7586 50.0384 17.4259 50.8444 18.7105C50.9711 18.9125 51.1124 19.3557 51.2841 19.4856C51.5472 19.685 51.519 19.195 51.4532 18.9959C51.2407 18.3532 50.7654 17.6766 50.3795 17.2136C49.4601 16.1107 48.2334 15.5993 47.0433 15.2838C46.3203 15.0921 45.5767 14.9845 44.8392 14.9829C44.4715 14.9822 44.1047 15.0365 43.746 15.145C43.6318 15.1795 43.466 15.211 43.4061 15.369C43.3389 15.5466 43.3988 15.6952 43.5585 15.6736Z" fill="black"/>
<path fill-rule="evenodd" clip-rule="evenodd" d="M11.2311 26.8488C11.6025 27.3652 12.1003 27.7282 12.628 27.8579C12.9032 27.9255 13.3284 28.0274 13.582 27.816C13.7102 27.7092 13.778 27.5006 13.6956 27.3077C13.5977 27.0786 13.3412 27.0872 13.1731 27.0556C12.5521 26.9393 12.0421 26.7129 11.5684 26.146C11.1336 25.6258 10.8388 24.9613 10.6295 24.2392C10.5321 23.9028 10.4894 23.5606 10.4245 23.213C10.3877 23.0163 10.2911 22.5566 10.1318 22.8908C9.88252 23.4138 10.2033 24.4755 10.346 24.9812C10.5435 25.6817 10.8427 26.3086 11.2311 26.8488Z" fill="black"/>
<path fill-rule="evenodd" clip-rule="evenodd" d="M26.1323 7.9333C26.4858 7.4483 26.6607 6.80556 27.0641 6.36502C27.1393 6.28299 27.4281 6.11049 27.4248 5.96142C27.4204 5.76533 27.2499 5.79924 27.1614 5.83752C26.7257 6.0258 25.8998 7.31299 26.1323 7.9333Z" fill="black"/>
<path fill-rule="evenodd" clip-rule="evenodd" d="M32.8064 14.9555C32.951 14.7996 33.3009 14.3996 33.277 14.1202C33.2547 13.8582 33.0928 13.9242 32.9661 14.0296C32.9116 14.075 32.7867 14.2656 32.7051 14.2157C32.6219 14.165 32.6853 14.1826 32.653 14.088C32.6082 13.9561 32.6815 13.5957 32.4902 13.699C32.3765 13.7604 32.3199 14.1193 32.312 14.2573C32.2923 14.6031 32.4714 15.3168 32.8064 14.9555Z" fill="black"/>
<path fill-rule="evenodd" clip-rule="evenodd" d="M31.6591 16.1524C31.6837 16.3535 31.8945 16.7393 32.0732 16.5331C32.216 16.3685 32.0482 16.1797 31.9856 16.0209C31.9451 15.9179 31.8906 15.5511 31.7769 15.5572C31.5992 15.5667 31.6412 16.0059 31.6591 16.1524Z" fill="black"/>
<path fill-rule="evenodd" clip-rule="evenodd" d="M31.0217 13.7781C31.0661 13.5814 30.9022 12.8195 30.6861 13.0505C30.5096 13.2393 30.7234 13.4368 30.8046 13.5658C30.8441 13.6288 30.9717 14 31.0217 13.7781Z" fill="black"/>
</svg>
