<svg width="100" height="100" viewBox="0 0 100 100" fill="none" xmlns="http://www.w3.org/2000/svg">
<path fill-rule="evenodd" clip-rule="evenodd" d="M35.8583 33.2581C36.6904 36.0933 37.5223 38.9284 38.3545 41.7636C38.6622 42.812 38.4853 44.0821 38.5128 45.194C38.5683 47.458 38.6475 49.7089 39.4835 51.7266C40.2637 53.6105 41.2241 55.3808 42.2059 57.0862C43.5386 54.5631 45.6042 52.5903 47.5909 51.101C48.9596 50.0749 50.4553 49.1631 52.0244 48.8675C52.5122 48.7756 53.0503 48.7133 53.5341 48.8831C53.4686 47.8855 53.4565 46.8723 53.513 45.8737C53.6014 44.3089 53.908 43.2464 54.799 42.2015C55.2522 41.6701 55.7404 41.1911 56.2378 40.7361C56.4152 40.5737 56.938 40.2858 57.0448 40.0329C57.1387 39.8106 57.0538 39.1704 57.0663 38.9075C57.1103 37.9864 57.2173 37.0629 57.4197 36.1791C57.8026 34.5081 58.4811 32.9648 58.9051 31.305C58.2737 31.1847 57.6422 31.0645 57.0108 30.9442C56.5833 30.8627 56.3003 30.6226 56.0261 31.0396C55.0767 32.4834 54.2668 34.1463 53.399 35.6784C52.8268 36.6887 52.27 37.7039 51.6221 38.6327C50.5868 40.1168 48.7235 42.5198 47.1959 40.6496C46.4114 39.6895 46.2923 38.0404 46.2766 36.7092C46.2554 34.897 46.4626 33.0845 46.6981 31.305C44.3873 31.0115 42.0062 31.5155 39.7401 32.0862C38.4373 32.4144 37.138 32.7943 35.8583 33.2581Z" fill="black"/>
<path fill-rule="evenodd" clip-rule="evenodd" d="M48.7085 22.5185C47.0073 22.5185 46.2692 25.5197 48.3197 25.4915C49.9193 25.4693 50.7629 22.5185 48.7085 22.5185ZM48.0574 26.0653C45.504 26.0653 46.4405 21.9657 48.7182 21.955C51.5286 21.9417 50.2868 26.0648 48.0574 26.0653ZM75.8426 78.8205C74.8069 79.1063 73.7665 79.4031 72.7585 79.8356C72.1403 80.101 71.4391 80.8609 71.1046 79.7493C70.9661 79.289 70.91 78.8012 70.7425 78.3545C70.5498 77.84 70.2964 77.3683 70.0281 76.92C69.417 75.8995 68.7778 74.8262 68.0828 73.91C66.7334 72.131 65.4681 70.1691 63.83 68.881C63.4091 68.5502 63.0595 68.0199 62.6539 67.6385C62.2178 67.2287 61.7802 66.8226 61.3331 66.4346C60.4173 65.64 59.484 64.8803 58.5376 64.1525C59.014 63.3825 59.6714 62.8639 60.2814 62.3064C60.9339 61.71 61.5757 61.0864 62.2197 60.4744C62.5019 60.2063 62.639 60.1373 62.9538 60.3676C63.2434 60.5797 63.527 60.8458 63.8037 61.0872C64.4824 61.6792 65.0856 62.3766 65.6259 63.1827C66.7898 64.9191 68.1516 66.3208 69.4474 67.87C70.7623 69.442 72.0723 71.0942 73.1894 72.9227C73.7879 73.9024 74.3774 74.9244 74.8963 75.9824C75.1706 76.5413 75.4032 77.1311 75.6423 77.717C75.7353 77.945 76.2291 78.7139 75.8426 78.8205ZM57.9202 62.6434C57.8885 62.7446 57.8175 62.8336 57.7357 62.7592C57.7136 62.739 57.7763 62.2619 57.7797 62.2046C57.8045 61.7934 57.8093 61.3804 57.8046 60.9682C57.7958 60.1905 57.7459 59.4153 57.7084 58.6394C57.6323 57.0678 57.6197 55.4899 57.4827 53.9243C57.7751 54.1172 58.1741 54.3974 58.3783 54.752C58.5458 55.043 58.5207 55.2975 58.5235 55.6546C58.5324 56.7334 58.6588 57.8067 58.7171 58.8817C58.7407 59.3158 58.7549 59.7491 58.8401 60.1709C58.912 60.5274 59.0748 60.9234 59.0035 61.3012C58.8816 61.946 58.2632 62.2485 57.9202 62.6434ZM59.5267 55.8997C59.8812 56.2227 60.2869 56.4102 60.3598 57.0374C60.4303 57.645 60.3335 58.202 60.4906 58.7988C60.5839 59.1527 60.7836 59.5857 60.6206 59.9316C60.4503 60.2924 60.0233 60.4764 59.7751 60.7277C59.726 59.9406 59.7675 59.1493 59.7245 58.3619C59.6794 57.5385 59.5267 56.7278 59.5267 55.8997ZM61.2891 57.7103C61.5979 58.0408 61.9067 58.3712 62.2155 58.7016C61.9066 58.9258 61.5979 59.1502 61.2891 59.3745V57.7103ZM56.7106 64.0313C56.4829 64.2773 56.0922 63.9878 55.897 63.8089C55.5929 63.5301 55.5394 63.2804 55.5684 62.7976C55.6402 61.6024 55.4758 60.449 55.3282 59.2695C54.9968 56.6223 54.7274 53.9557 54.5669 51.28C55.1435 51.6493 55.9048 52.0633 56.2654 52.8102C56.4983 53.2925 56.43 53.9093 56.4189 54.4576C56.4038 55.2057 56.3568 55.9525 56.358 56.7011C56.3603 58.1735 56.484 59.6451 56.5151 61.1171C56.5282 61.7346 56.5266 62.3682 56.7481 62.9284C56.798 63.0545 57.0558 63.4283 57.0628 63.5317C57.0759 63.7243 56.8175 63.9139 56.7106 64.0313ZM53.906 62.2221C53.1726 61.7133 53.0806 60.4059 52.9075 59.4498C52.6662 58.117 52.4343 56.7563 52.2946 55.3972C52.1571 54.0609 52.1824 52.7064 52.0259 51.3722C51.9916 51.0793 51.7729 50.4287 51.8649 50.1378C51.9813 49.7701 52.4162 49.7796 52.6611 49.7238C52.8853 49.6725 53.306 49.3532 53.4507 49.6226C53.571 49.8465 53.455 50.358 53.4266 50.5981C53.295 51.7172 53.4266 52.846 53.5223 53.9655C53.7671 56.8269 53.9667 59.6887 54.3314 62.5297C54.1897 62.427 54.0492 62.3213 53.906 62.2221ZM52.6549 65.1333C52.6335 64.6245 52.6124 64.1158 52.591 63.6072C52.8138 63.7191 53.0366 63.8309 53.2595 63.9429C53.0841 64.3607 52.9274 64.8081 52.6549 65.1333ZM51.8763 66.4001C51.6684 66.6883 51.4842 67.0665 51.1971 67.2254V63.124C51.4407 63.1721 51.7144 63.0861 51.8141 63.4422C51.8903 63.7145 51.788 64.137 51.8174 64.4353C51.8658 64.9271 52.1823 65.976 51.8763 66.4001ZM50.447 60.3671C50.2334 58.0748 50.1709 55.7627 49.8924 53.4804C49.8294 52.9637 49.7574 52.4626 49.6627 51.9547C49.6028 51.6338 49.4783 51.2429 49.6333 50.9415C49.8722 50.4771 50.5423 50.4905 50.9082 50.3753C50.8641 53.9696 50.9906 57.635 51.9334 61.0408C51.6226 60.993 50.4996 60.9317 50.447 60.3671ZM50.3268 68.2292C49.9277 68.6145 49.5664 69.173 49.0761 69.3527C49.0456 67.7222 49.0275 66.0907 48.9801 64.461C48.9691 64.0818 48.9616 63.6991 48.9326 63.3214C48.9203 63.1606 48.8393 62.8296 48.8975 62.6682C49.0465 62.2546 49.5931 62.5366 49.819 62.7239C50.1303 62.9818 50.0956 63.407 50.0907 63.8624C50.0846 64.4434 50.0915 65.0019 50.1236 65.5833C50.152 66.0986 50.188 66.5977 50.2561 67.1055C50.2789 67.2757 50.4609 68.0997 50.3268 68.2292ZM48.411 69.9965C47.9268 70.3503 47.748 69.6752 47.5261 69.2305C47.3739 68.9253 47.1307 68.6356 47.0693 68.2654C47.0075 67.893 47.1458 67.5163 47.1692 67.1488C47.2256 66.2656 47.0109 65.3545 46.9275 64.484C46.8328 63.4952 46.7981 62.4922 46.7981 61.4959C47.1639 61.7174 47.8187 61.7264 47.9502 62.327C48.0087 62.5937 47.9305 62.9378 47.9185 63.21C47.8982 63.6683 47.9096 64.1309 47.9054 64.5902C47.8886 66.4102 47.9443 68.1873 48.703 69.7687C48.6065 69.8464 48.5091 69.9225 48.411 69.9965ZM46.858 71.1036C46.0387 71.5661 45.2509 72.1557 44.3861 72.4601C43.5209 72.7645 42.6389 73.0396 41.762 73.2766C39.9267 73.7727 38.0414 74.0631 36.1669 73.9833C35.2495 73.9441 34.3467 73.7831 33.4403 73.5981C32.5224 73.4107 31.7278 72.9701 30.8591 72.5648C29.1706 71.7769 27.4398 71.2661 25.8389 70.1659C25.4526 69.9004 25.0767 69.61 24.693 69.3382C24.4892 69.1939 24.2388 69.132 24.2277 68.7882C24.2163 68.4321 24.5046 67.7783 24.619 67.4592C24.7961 66.965 25.0696 66.5723 25.3469 66.1738C25.8173 65.4981 26.2589 64.4933 26.8295 63.9725C27.1442 63.6852 27.2735 63.8607 27.5497 64.1167C27.9132 64.4538 28.3472 64.6938 28.7542 64.9239C30.4287 65.8705 32.3319 66.4439 34.1332 66.7241C35.9066 66.9999 37.6599 67.2682 39.4256 66.7057C40.425 66.3873 41.3629 65.8519 42.3075 65.324C42.6198 65.1495 42.9708 64.7659 43.2563 65.0657C43.5619 65.3866 43.7439 66.0491 43.9935 66.4553C44.5912 67.4274 45.333 68.1838 45.9306 69.1534C46.0756 69.389 47.2783 70.8663 46.858 71.1036ZM23.3789 66.4517C23.1138 66.9728 22.8751 67.5365 22.7995 68.1666C22.2904 67.6222 21.9429 67.4378 22.3524 66.5775C22.735 65.7734 23.0751 64.9538 23.4237 64.1213C23.566 63.7812 23.7772 63.3823 23.731 62.97C23.6784 62.5002 23.3644 62.2892 23.059 62.5012C22.8421 62.6517 22.6789 63.0497 22.5358 63.3046C22.2779 63.7642 22.0534 64.2525 21.8342 64.746C21.6715 65.1127 21.5175 65.7064 21.2902 65.9876C21.1372 66.1768 20.9438 66.1869 20.9032 65.8167C20.867 65.4877 21.2333 64.9075 21.3425 64.6458C21.5206 64.2191 21.7165 63.8025 21.8562 63.3498C22.0012 62.8807 22.096 61.3269 21.3972 62.0993C21.156 62.3658 20.953 62.8807 20.7712 63.2182C20.4918 63.7373 20.2294 64.2728 19.9877 64.8247C19.5611 64.4445 19.155 63.8439 18.6402 63.6804C18.1508 63.5249 17.7114 64.117 17.2937 64.3899C16.6434 64.8148 16.0294 65.3301 15.4102 65.8284C14.8576 66.2731 14.2698 66.6213 13.7277 67.0917C12.7847 67.9102 11.6363 68.9886 10.4519 68.5023C9.98266 68.3097 9.4645 67.9132 9.20952 67.3333C8.86498 66.5497 8.95297 65.5054 8.73129 64.657C9.35912 65.1201 10.0208 64.5855 10.5746 64.1865C11.1951 63.7394 11.8387 63.3572 12.4899 62.9965C13.8359 62.2511 15.2316 61.6002 16.5563 60.7962C19.1449 59.2248 21.3271 56.6911 23.9246 55.155C24.5355 57.517 25.5449 59.6929 26.8823 61.4464C25.6052 62.9701 24.3456 64.5507 23.3789 66.4517ZM43.8272 57.0421C43.4806 56.8239 43.0588 56.7782 43.2993 56.1753C43.4701 55.7473 43.8414 55.4494 44.0759 55.0853L44.3651 57.4119C44.1861 57.2881 44.0096 57.1571 43.8272 57.0421ZM45.7892 58.3239C45.7451 57.1642 45.6362 55.9687 45.3156 54.8825C45.2215 54.564 45.0604 54.1887 45.1949 53.8575C45.3323 53.5189 45.7366 53.3338 45.9861 53.1924C46.1762 55.1683 46.2678 57.1787 46.7086 59.0938C46.3835 58.9748 45.8119 58.9167 45.7892 58.3239ZM46.0589 66.2752C46.0607 66.3102 46.0623 66.3451 46.0639 66.3801C45.7302 66.1605 45.3571 65.8208 45.1834 65.3645C45.0014 64.886 45.0987 64.3359 45.101 63.8243C45.1036 63.2337 45.0281 62.6623 44.9461 62.0846C44.8536 61.4329 44.9113 60.8219 44.9425 60.1666C45.2105 60.4081 45.6131 60.5784 45.7897 60.9632C45.9745 61.3658 45.8682 61.8906 45.8317 62.3278C45.7231 63.6279 45.8038 65.0118 46.0589 66.2752ZM49.1815 60.2627C48.5374 60.1422 48.1946 59.9684 48.0813 59.076C47.9421 57.9801 47.7956 56.8905 47.6831 55.789C47.5785 54.7659 47.2188 53.7053 47.183 52.685C47.1577 51.9667 48.0625 51.711 48.4722 51.4437C48.6912 54.3853 48.8 57.3464 49.1815 60.2627ZM42.6024 55.4977C42.5308 55.7167 42.4712 55.9424 42.4062 56.1649C41.9514 55.2649 41.5032 54.384 40.9736 53.558C40.4831 52.7926 40.0742 52.0111 39.8228 51.0557C39.5502 50.0201 39.3004 48.9209 39.2182 47.8254C39.1353 46.721 39.2115 45.5881 39.2305 44.4808C39.2416 43.8374 39.5119 42.2131 39.1334 41.6889C38.9945 41.4963 38.7749 41.5615 38.6176 41.3833C38.4022 41.1391 38.3326 40.6387 38.2436 40.3032C37.6827 38.189 37.1883 36.0107 36.3623 34.0452C37.4639 33.4166 38.7106 33.1007 39.8712 32.7162C41.09 32.3124 42.3559 32.0631 43.6069 31.9243C44.2109 31.8573 44.8159 31.829 45.4219 31.8349C45.9137 31.8399 46.4057 31.7303 46.2391 32.5655C45.9873 33.8277 45.8048 35.1206 45.8167 36.4327C45.834 38.3486 46.2019 40.8915 47.6661 41.7646C49.9467 43.1245 51.7456 39.8568 52.9133 37.7852C53.7295 36.3372 54.5167 34.9053 55.2212 33.351C55.4516 32.8429 55.6485 32.0596 56.0875 31.806C56.6321 31.4916 57.4177 31.7096 57.9932 31.7096C57.9496 32.6349 57.9053 33.4098 57.6044 34.2611C57.3128 35.086 57.0742 35.9165 56.878 36.7902C56.6903 37.6258 56.6051 38.4062 56.5273 39.2597C56.4581 40.0182 55.8756 39.7502 55.4592 39.9676C54.4824 40.4778 53.956 42.0227 53.5696 43.2142C53.3227 43.9756 53.0677 44.755 52.9625 45.5779C52.8365 46.5624 52.9272 47.5642 52.9556 48.5541C52.7871 48.6019 52.6023 48.4202 52.4434 48.3701C52.2011 48.2938 51.9367 48.2915 51.6898 48.3129C51.1459 48.3605 50.5943 48.49 50.0635 48.6515C48.9159 49.0007 47.8307 49.6307 46.7914 50.3572C45.1067 51.5348 43.3883 53.0919 42.6024 55.4977ZM36.9536 40.3515C35.2308 41.142 33.4822 41.879 31.6854 42.307C30.8017 42.5174 29.9175 42.4725 29.0248 42.4372C28.6145 42.4209 28.2582 42.3307 27.8605 42.2182C27.5579 42.1325 27.0531 41.9235 26.7721 42.1644C26.6084 41.4456 25.7437 41.4323 25.3003 41.3166C24.9396 41.2225 24.622 40.9799 24.2676 40.8659C24.1346 40.8232 24.005 40.8305 23.8874 40.7409C23.7744 40.655 23.7106 40.4598 23.593 40.3836C23.4241 40.2743 23.2189 40.267 23.0944 40.1113C22.8057 39.7504 22.4828 39.4292 22.1969 39.0626C21.9082 38.6926 21.7713 38.2145 21.5745 37.7557C21.3444 37.2189 20.9871 36.6908 20.8174 36.1196C20.8919 36.1878 20.966 36.2568 21.0396 36.3269C20.9993 35.655 20.8611 35.0642 20.8961 34.3679C20.9135 34.0243 20.8873 33.804 20.8547 33.479C20.8298 33.2308 20.854 33.0265 20.8568 32.7486C20.8642 32.0066 21.048 31.3273 21.1354 30.6028C21.1645 30.3622 21.1798 30.104 21.1877 29.8658C21.1949 29.6482 21.0933 29.3586 21.1125 29.1241C21.1888 29.1758 21.2576 29.2416 21.3187 29.3215C21.1474 28.7631 21.6973 28.099 21.7582 27.5658C21.8499 26.7639 21.2773 26.5605 20.7931 26.6564C20.1414 26.7856 19.5395 27.299 18.9562 27.6747C18.1576 28.1892 17.3632 28.7062 16.5806 29.2633C15.6625 29.9169 14.861 30.7836 13.9573 31.4507C13.8428 31.5352 13.4214 31.9001 13.3451 31.5958C13.2773 31.326 13.7481 30.8376 13.8624 30.6972C14.4498 29.9761 15.1084 29.3372 15.7674 28.7376C16.2226 28.3232 16.6996 27.9528 17.1656 27.5609C17.6663 27.1398 18.368 26.6648 18.5645 25.8602C18.7262 25.1982 18.5384 24.5967 17.9787 24.7868C17.2542 25.0329 16.5288 25.7097 15.8637 26.1593C15.1994 26.6086 14.5248 27.0333 13.8646 27.493C13.7173 27.5955 13.152 28.1257 13.2472 27.7021C13.3242 27.3596 13.7686 26.9463 13.9603 26.7122C14.2442 26.3652 14.5433 26.0408 14.8513 25.7326C15.5023 25.0812 16.194 24.5044 16.8964 23.9579C17.3273 23.6227 17.7912 23.2691 17.814 22.5236C17.853 21.2448 16.9822 21.9235 16.4797 22.1771C15.8076 22.5162 15.1111 22.7603 14.4373 23.0938C13.8229 23.3977 13.2025 23.7278 12.5474 23.8389C12.2123 23.8958 11.7136 23.9128 11.7943 23.2887C11.8809 22.62 12.5972 22.1607 12.9885 21.8624C13.6581 21.3519 14.3444 21.1575 15.088 20.9349C15.8977 20.6926 16.6962 20.4318 17.5151 20.2441C19.1743 19.8635 20.7712 19.729 22.4474 19.9322C23.2157 20.0253 23.9964 19.9256 24.7562 20.0193C25.2614 20.0816 25.6405 20.5008 25.9151 21.0433C26.5841 22.3654 26.8651 24.1682 26.7576 25.7304C26.6016 27.9937 25.861 29.9012 25.228 31.962C24.7464 33.5296 24.3872 35.7077 25.6785 36.7753C26.2882 37.2795 26.9767 37.2443 27.6596 37.1118C28.581 36.9329 29.4886 36.6484 30.3889 36.3361C32.168 35.7191 33.9296 35.0258 35.6861 34.3037C35.7634 34.7118 37.4409 40.1279 36.9536 40.3515ZM46.5073 36.7831C46.5723 35.5701 46.6047 34.3738 46.7648 33.1739C46.8169 32.7833 46.8403 32.3494 47.0957 32.0911C47.348 31.8357 47.7227 31.8275 48.0099 31.67C48.7724 31.2515 49.3957 30.2899 49.972 29.5322C50.5671 28.7499 50.9539 27.8586 51.2344 26.8135C51.4589 25.9775 51.815 24.6575 51.3994 23.8353C51.0757 23.1954 50.5483 22.9706 50.7143 22.0488C50.8563 21.2607 51.4441 20.8171 51.9545 21.3473C52.2736 21.6786 52.6321 22.4831 52.6321 21.3894C53.9924 21.7909 55.3982 21.1564 56.5868 20.2956C56.8191 20.1273 57.104 19.8601 57.3402 20.1253C57.4962 20.3006 57.547 20.6458 57.718 20.8403C57.8966 21.0435 58.177 21.1564 58.2322 21.4965C58.2748 21.7586 58.1507 22.167 58.0976 22.4093C57.9624 23.0267 57.78 23.658 57.4096 24.0899C57.2493 24.2769 56.6989 24.9093 56.4926 24.6417C56.2543 24.3327 56.7713 23.3308 56.1144 23.9045C55.8793 24.1098 55.8065 24.1197 55.7063 24.4947C55.5886 24.9352 55.535 25.4028 55.4883 25.864C55.233 25.7527 54.8274 25.3903 54.5664 25.6537C54.3192 25.9033 54.4497 26.4256 54.6531 26.6426C54.8619 26.8654 55.2874 26.9071 55.5315 26.7639C55.9218 26.5348 55.9237 25.9494 56.0071 25.4685C56.2276 25.6817 56.3751 26.0598 56.692 25.9873C55.729 27.5098 54.4608 28.5642 52.9545 28.5676C52.2735 28.5692 52.0163 28.9183 51.8804 29.8036C51.7417 30.7079 51.7456 31.6938 51.7447 32.6111C51.7439 33.3597 51.7643 34.1257 51.9358 34.845C52.0494 35.3217 52.2709 35.7861 52.4111 35.0066C52.4865 34.5881 52.433 34.1075 52.4298 33.6792C52.4281 33.41 52.3601 32.9183 52.4922 32.6967C52.639 32.4503 52.9796 32.5861 53.1839 32.5835C53.6128 32.578 54.0233 32.3645 54.4525 32.3645C53.8183 33.6101 53.1 34.7747 52.4928 36.0454C51.8721 37.3447 51.1176 38.5652 50.2033 39.5191C49.4394 40.3159 48.3759 40.7273 47.5087 39.9511C46.7648 39.2853 46.4458 37.9301 46.5073 36.7831ZM58.3252 25.3657C58.6022 25.8925 57.7085 26.9296 57.3658 26.9217C57.4533 26.734 58.152 25.0361 58.3252 25.3657ZM58.9339 32.5777C59.0356 32.1882 59.6102 32.2204 59.8487 32.2099C60.3687 32.1872 60.8897 32.1855 61.4102 32.1641C62.8332 32.106 64.2552 31.9691 65.6795 31.9994C67.154 32.0308 68.6297 31.8438 70.1015 31.9122C71.4999 31.977 72.893 32.1504 74.2676 32.5016C76.7861 33.1451 79.4042 34.0626 81.4171 36.3172C83.2253 38.3424 84.5725 41.2731 84.2875 44.5123C84.1116 46.5097 84.0477 48.6076 83.4802 50.4959C82.9979 52.1007 81.9855 53.0951 80.9399 54.0195C80.9261 53.6348 81.6946 51.1451 80.8745 51.5258C80.6099 51.6486 80.4565 52.1342 80.3123 52.4253C80.0593 52.936 79.7883 53.436 79.514 53.9269C79.0163 54.818 78.4448 55.6607 77.7105 56.2115C77.4261 56.4249 76.5213 57.0528 76.3605 56.3641C76.2273 55.7937 77.0912 54.6385 77.2946 54.2019C77.4749 53.8148 77.6192 53.4409 77.5514 52.9801C77.5252 52.8027 77.445 52.6395 77.415 52.4619C77.3908 52.3182 77.4189 52.0981 77.3702 51.9669C77.044 51.0887 76.6963 52.6097 76.5932 52.8842C76.2364 53.8343 75.4054 54.4528 74.7589 54.9976C73.9548 55.6752 73.1592 56.4093 72.2256 56.7296C72.8099 55.3958 73.4071 54.0705 73.9377 52.6964C74.4316 51.417 74.7439 49.9366 75.321 48.7495C75.4185 48.549 75.4847 48.3318 75.562 48.0916C75.6101 47.942 75.6825 47.4322 75.7461 47.3429C75.7823 47.2921 75.9842 47.2728 76.0634 47.1701C76.1611 47.0438 76.2159 46.8437 76.2655 46.6794C76.3244 46.484 76.5501 45.8041 76.4908 45.583C76.4784 45.5368 76.317 45.5568 76.2891 45.4715C76.2563 45.3715 76.2801 45.2986 76.2767 45.1967C76.269 44.9615 76.3806 44.7839 76.2488 44.559C76.9154 44.559 76.2942 42.1689 76.1802 41.7344C76.0536 41.2515 75.8413 40.9046 75.7435 40.4335C75.6243 39.8588 75.2928 39.355 74.9969 38.921C74.7009 38.4868 74.392 37.9689 74.0589 37.5911C73.7139 37.1997 73.2481 36.9782 72.8561 36.6818C72.6813 36.5497 72.4943 36.3741 72.2936 36.3205C72.2285 36.3463 72.1636 36.3732 72.099 36.4011C72.0237 36.3485 71.9568 36.2809 71.8984 36.1984C71.5236 35.9386 71.1564 35.845 70.7345 35.777C68.6497 35.4411 66.415 35.3805 64.3219 35.6163C63.2344 35.7387 62.1289 35.8783 61.0578 36.1627C59.9486 36.4572 58.8573 36.8333 57.7359 37.0499C57.9891 35.4954 58.5435 34.0719 58.9339 32.5777ZM64.968 13.5059C65.1604 13.4718 65.0796 13.8214 65.0175 13.9266C64.9367 13.8028 64.9202 13.6626 64.968 13.5059ZM91.98 87.4411C91.8225 86.4294 91.2822 85.3861 90.6593 84.7813C89.8908 84.0348 89.0229 84.0264 88.1199 84.0872C87.0849 84.157 86.0797 84.3978 85.0605 84.629C84.0247 84.8639 83.0053 85.0659 82.0001 85.4863C81.5973 85.6546 81.188 85.7964 80.7909 85.9863C80.4947 86.1279 80.1523 86.3995 80.0041 85.8838C79.7344 84.9467 80.7713 84.5394 81.1841 84.1441C81.4089 83.9287 81.7077 83.6175 81.4256 83.284C81.0922 82.89 80.5271 83.2691 80.1872 83.4322C79.8734 83.5829 79.555 83.6351 79.6348 82.9667C79.6879 82.5229 80.12 82.2351 80.3618 81.9758C80.6592 81.657 81.7035 80.7176 81.0336 80.2415C80.3204 79.7347 79.92 80.9991 79.3107 81.0642C78.7744 81.1215 78.7778 79.3628 78.6278 78.8812C78.2491 77.6646 77.3008 78.9958 76.8749 78.2622C76.6992 77.9597 76.7598 77.4153 76.6942 77.0607C76.5862 76.4769 76.3357 75.904 76.1335 75.3689C75.6856 74.1852 75.1683 73.048 74.5895 71.97C74.0114 70.8932 73.3709 69.9672 72.642 69.0718C71.9109 68.1738 71.2737 67.1533 70.5547 66.239C69.1236 64.4191 67.4742 62.9214 66.0077 61.146C65.6692 60.7361 65.3465 60.3088 64.9512 59.9943C64.5883 59.7058 63.9883 59.5502 63.6992 59.1396C63.5112 58.8728 63.5421 58.4976 63.4508 58.1692C63.2963 57.6128 62.925 57.2361 62.6072 56.8472C61.1292 55.0392 59.583 53.243 57.8475 51.8835C57.0058 51.224 56.1531 50.4032 55.25 49.9067C54.9583 49.7461 54.5637 49.6797 54.3236 49.3859C54.0719 49.0778 54.0245 48.5394 53.9292 48.123C53.3387 45.5402 54.5551 42.8654 56.0319 41.2606C56.2946 40.9752 56.6732 40.7396 56.842 40.34C57.027 39.9023 57.0358 39.3407 57.2332 38.8956C57.5987 38.0713 58.5932 38.185 59.2211 37.9977C63.0127 36.8667 67.5126 36.4287 71.2291 38.233C72.7908 38.9911 74.1322 40.2671 74.7295 42.3922C74.9992 43.3514 75.1411 44.3916 75.1186 45.4167C75.0937 46.5589 74.7801 47.6185 74.4933 48.6823C74.1485 49.9615 73.7626 51.2218 73.3159 52.4441C72.9128 53.5473 72.4017 54.5404 71.9566 55.608C71.6801 56.2711 71.2417 57.4939 71.8743 58.0428C72.3788 58.4804 73.1796 58.2245 73.6773 57.9045C74.4216 57.4257 74.972 56.5663 75.6235 55.9119C75.6263 56.5603 75.1938 57.1411 75.3909 57.7971C75.5866 58.4488 76.1177 58.3642 76.5374 58.2053C77.0166 58.0236 77.5133 57.7416 77.9518 57.4282C78.5059 57.0322 78.9044 56.4251 79.3752 55.8865C80.2021 54.9406 81.3009 54.6236 82.1866 53.8034C83.102 52.9557 83.7344 51.6723 84.1204 50.2955C84.5672 48.7008 84.75 46.9909 84.904 45.3094C85.0562 43.6459 85.1308 42.0062 84.7176 40.3951C83.9319 37.331 82.3375 34.9149 80.1945 33.3994C75.6725 30.2014 70.5645 30.3322 65.5981 30.5077C64.237 30.5559 62.8746 30.5803 61.5154 30.6991C60.8906 30.7538 60.2644 30.8218 59.6438 30.934C59.4545 30.9683 59.0309 31.1613 58.8623 30.9545C58.7322 30.7951 58.8084 30.4597 58.6905 30.2674C58.4098 29.8101 57.7836 29.9277 57.4098 29.9886C56.9376 30.0653 56.3815 30.0788 55.957 30.3856C55.5489 30.6805 55.4069 31.2984 54.9011 31.3076C54.3387 31.3178 53.751 31.1395 53.1844 31.1109C52.7387 31.0883 52.3431 30.8836 52.7701 30.2327C53.0956 29.7364 53.6408 29.7394 54.0834 29.627C54.9016 29.4193 56.7618 27.595 57.3747 28.8599C57.5429 29.2071 57.5309 29.333 57.8542 29.4848C58.1532 29.6253 58.4925 29.6935 58.8057 29.762C59.3884 29.8894 60.0661 29.9919 60.6362 29.7208C61.5223 29.2993 61.7055 27.9719 61.9124 26.8978C62.8587 27.5682 64.2878 27.8795 65.2223 27.0032C66.0076 26.2667 66.29 24.7228 66.2561 23.511C66.2461 23.1506 66.2102 22.7809 66.114 22.4417C66.0249 22.1273 65.7844 21.8003 65.7933 21.4506C65.8011 21.146 66.0167 20.8814 66.1156 20.6261C66.2624 20.2472 66.3329 19.7972 66.362 19.3748C66.4683 17.8241 65.5994 16.9589 64.696 16.2455C65.2266 15.4033 65.8199 14.5628 65.7736 13.383C65.7305 12.2821 65.078 11.5159 64.405 10.9995C63.8032 10.5377 63.196 10.3589 62.5208 10.2469C62.2265 10.1981 62.114 10.2383 62.161 9.83365C62.1982 9.51229 62.3714 9.22674 62.4249 8.90865C62.7361 7.05513 61.3623 6.34966 60.2505 6.1882C58.4199 5.92232 56.7225 6.41932 55.2355 7.85969C54.1489 4.80891 50.5254 6.31411 49.5157 8.67844C49.3832 8.98846 49.2854 9.32531 49.2397 9.67766C49.2092 9.91346 49.3049 10.4695 49.2166 10.6486C49.0446 10.998 48.3588 10.6672 48.1171 10.6839C47.6744 10.7142 47.2001 11.0202 46.8425 11.3541C45.3315 12.765 45.408 15.6641 45.7708 17.7937C44.7995 17.9693 43.8178 19.0405 43.7982 20.4178C43.7882 21.1089 43.9761 21.8886 44.2793 22.4473C44.5897 23.0195 45.1559 23.4017 45.214 24.1624C45.275 24.9627 45.1484 25.4321 45.6501 26.0355C46.0179 26.4779 46.5044 26.8353 46.9691 27.0594C48.0567 27.5839 49.2943 27.398 50.3508 26.8322C49.8138 27.9626 48.9545 28.9701 48.1175 29.6956C47.7421 30.0211 47.3008 30.4394 46.8778 30.6418C46.4187 30.8616 45.8503 30.4782 45.3757 30.4252C43.2434 30.1873 41.0476 30.7046 38.9956 31.4111C36.7747 32.1757 34.5791 33.0157 32.3749 33.8652C31.2835 34.2857 30.194 34.73 29.0915 35.0958C28.2636 35.3704 27.3415 35.6119 26.486 35.4174C25.7567 35.2514 25.399 34.5956 25.6339 33.6118C25.9435 32.3158 26.5475 31.1072 26.9218 29.8343C27.6142 27.4797 27.9573 24.7747 27.3518 22.3232C27.1066 21.3305 26.7577 20.178 26.0901 19.5598C25.7372 19.233 25.2955 19.0403 24.9125 18.7821C24.426 18.454 23.9032 18.2165 23.3769 18.0296C21.2625 17.279 19.0319 17.6299 16.9203 18.2081C15.0129 18.7305 12.0498 19.4713 11.198 22.1963C10.9067 23.128 10.8008 24.7032 11.525 25.3532C12.1484 25.9124 13.0894 25.5506 13.6956 25.1283C13.1048 26.0344 12.3711 26.8982 12.0861 28.0744C11.9858 28.4885 11.9085 29.0599 12.1112 29.4438C12.4057 30.0016 12.9065 29.6736 13.3021 29.5428C12.838 30.3408 12.1698 31.6131 12.6435 32.6331C13.1676 33.7615 14.2242 33.0051 14.8764 32.5339C15.8442 31.8348 16.8534 31.2454 17.823 30.5504C18.3424 30.1783 18.8518 29.7834 19.3048 29.2769C19.6799 28.8575 19.9981 28.4123 20.5158 28.3616C19.8402 30.062 19.1743 31.8305 19.1866 33.8023C19.1981 35.6383 19.7387 37.821 20.4692 39.376C21.2335 41.0029 22.4675 42.0045 23.7698 42.724C25.1878 43.5076 26.6343 44.0366 28.1747 44.1217C31.1772 44.2874 34.414 43.355 37.0051 41.3081C37.199 41.155 37.2059 41.1015 37.3874 41.2788C37.6199 41.5059 37.8065 42.324 37.9519 42.6674C38.3782 43.6744 38.2522 44.521 38.1716 45.6249C38.0287 47.5856 38.35 49.5666 38.8024 51.4227C39.2542 53.2775 40.0053 54.7456 40.9458 56.2209C41.3677 56.8827 41.8065 57.4053 42.3765 57.8299C42.9963 58.2917 43.5248 58.6941 43.7653 59.634C43.9657 60.4176 43.9332 61.0873 43.6545 61.8249C43.5825 62.0157 43.4442 62.5991 43.3122 62.7321C43.1864 62.8589 43.1531 62.7455 43.0365 62.7868C42.8237 62.862 42.7629 62.9041 42.591 63.1217C42.131 63.7037 41.4502 63.8577 40.8544 64.0952C40.0348 64.4222 39.1912 64.7395 38.3328 64.7973C36.8542 64.8971 35.1648 64.8856 33.7414 64.3176C32.3078 63.7455 30.822 63.4163 29.4427 62.6171C28.8156 62.2537 28.5265 62.0678 28.3934 61.1577C28.3227 60.6749 28.2214 60.6372 27.918 60.4984C27.5696 60.3387 27.43 60.1192 27.2247 59.6968C26.8572 58.9413 26.5073 58.1743 26.1658 57.3977C25.7379 56.4252 25.2026 55.5323 24.8 54.543C24.5594 53.9519 24.3767 52.9126 23.75 52.8894C23.3781 52.8757 22.9729 53.2364 22.6387 53.4198C22.2313 53.6435 21.8206 53.8563 21.414 54.0829C19.8491 54.9553 18.4516 56.2657 17.0215 57.4672C15.4607 58.7786 13.6756 59.7057 12.0231 60.8102C11.252 61.3256 10.5157 61.9174 9.81088 62.5807C9.35512 63.0093 8.46537 63.4771 8.53198 64.3287C8.30649 64.1645 8.02436 63.8779 7.80864 64.2192C7.63051 64.5008 7.75268 65.0188 7.7975 65.3392C7.94487 66.3934 8.12016 67.4675 8.602 68.3512C9.36518 69.7511 10.8198 70.899 12.1453 70.6469C13.7656 70.3389 15.0651 68.8021 16.4575 67.7926C16.9661 67.4239 17.4766 67.0805 17.9583 66.6524C18.2422 66.4002 18.7422 65.8562 19.1152 65.9217C19.6841 66.0215 19.2084 66.9191 19.0526 67.2689C18.8876 67.6395 18.7498 68.03 18.6026 68.4137C18.4374 68.8435 18.1629 69.3235 18.0683 69.7892C18.0084 70.084 18.0376 70.5312 18.3128 70.6049C18.5927 70.68 18.8323 70.1968 18.9743 69.9573C19.2082 69.5626 19.4031 69.1305 19.604 68.7055C19.7373 68.4234 19.9018 67.8855 20.1269 67.709C20.71 67.2521 20.0723 68.7172 19.9676 68.9172C19.8363 69.1684 19.6458 69.4715 19.6141 69.7816C19.5673 70.2378 19.846 70.6782 20.2042 70.5689C20.4802 70.4848 20.6664 70.1015 20.8216 69.8191C20.9214 69.6377 21.2197 68.9299 21.413 68.9231C21.5326 68.9191 21.8343 69.4728 21.9275 69.5929C22.1984 69.942 22.5195 70.1801 22.8563 70.3977C24.4158 71.4051 25.8337 72.6955 27.4605 73.5327C29.0147 74.3327 30.6353 74.9631 32.2528 75.4829C33.1059 75.757 33.9034 76.0559 34.7831 76.1524C35.6732 76.2499 36.5505 76.2011 37.4417 76.1766C39.2602 76.1264 40.9739 75.6232 42.721 74.9813C45.8237 73.8413 48.7388 71.9704 51.1403 69.0732C51.761 68.3245 52.3228 67.5024 52.8541 66.6413C53.0848 66.2674 53.3265 65.8969 53.5218 65.4882C53.6524 65.2148 53.771 64.7465 54.0009 64.5904C54.3551 64.3498 55.1716 65.1114 55.4911 65.3225C55.8409 65.5537 56.1989 65.8558 56.58 65.9765C56.7233 66.0218 56.8627 66.0257 57.0031 66.0907C57.1431 66.1557 57.3083 66.3607 57.4681 66.3149C58.0629 66.1439 57.0878 64.6165 57.9604 65.3902C59.3541 66.626 60.6572 68.1036 61.971 69.4847C62.2998 69.8304 62.6369 70.1343 62.9884 70.4373C63.3175 70.721 63.5698 71.1075 63.8847 71.4145C64.5743 72.0865 65.2246 72.804 65.8518 73.5778C66.4733 74.3445 67.0692 75.1555 67.7258 75.8693C68.3695 76.5691 68.871 77.377 69.4128 78.2109C69.9415 79.0244 70.336 79.9598 70.7112 80.9075C70.3974 80.7617 70.1341 80.5128 69.9617 81.0581C69.8504 81.409 69.9455 81.8904 70.0171 82.2396C70.2472 83.3593 70.7301 84.3643 71.0204 85.4567C71.3508 86.7012 71.8391 87.8959 72.1142 89.1622C72.3576 90.2825 72.3002 91.5227 72.6483 92.6084C72.934 93.4998 73.9749 93.2934 74.5759 93.3731C75.5369 93.5005 76.4865 93.6446 77.4527 93.6846C79.4628 93.7675 81.499 93.9705 83.509 93.8671C85.3373 93.773 87.1614 93.6234 88.9837 93.4137C89.4823 93.3563 90.5921 93.2231 90.7069 92.3501C90.7811 91.7861 90.405 91.8709 90.1201 91.9061C89.7142 91.9562 89.3039 91.9481 88.8965 91.9574C86.9453 92.0019 85.0294 92.0376 83.0818 91.8395C81.0901 91.637 79.0998 91.5868 77.1068 91.4881C76.2085 91.4436 75.3359 91.4223 74.4403 91.4766C74.1729 91.4928 73.8444 91.5356 73.6948 91.1903C73.5446 90.8434 73.5655 90.0185 73.4976 89.6281C73.2611 88.2697 72.7418 87.0665 72.3926 85.7614C72.0405 84.4447 71.6897 83.1329 71.24 81.868C72.6813 81.5304 74.1206 81.1502 75.5417 80.6834C76.1201 80.4933 76.7306 80.3662 77.292 80.1079C77.9127 79.8225 77.9265 79.9784 78.0448 80.7607C78.1478 81.4424 78.2652 81.9275 77.7979 82.3814C77.3127 82.8529 76.7186 83.1353 76.2813 83.6951C75.8819 84.2063 75.9623 84.9386 76.6037 84.8329C77.2382 84.7283 77.9657 84.0907 78.5405 83.7352C78.6208 84.1989 78.6957 84.5292 78.4708 84.9296C78.2325 85.3536 77.8694 85.6243 77.6005 86.0088C77.4021 86.2925 77.1938 86.7086 77.52 86.9837C77.8554 87.2665 78.1904 86.8969 78.4413 86.6413C78.6312 86.4477 78.9443 86.0202 79.197 86.2601C79.4601 86.5097 79.3209 87.1424 79.4762 87.483C79.7387 88.0584 79.9202 87.6326 80.1759 87.3894C80.5875 86.9978 81.4267 87.1067 81.9169 87.0525C82.5052 86.9876 83.0792 86.843 83.6636 86.7468C84.36 86.6322 85.0616 86.6266 85.7572 86.4943C86.8244 86.2912 87.996 85.7119 89.0669 86.0753C90.7366 86.642 91.5461 89.0309 91.2811 91.184C91.229 91.6084 90.9717 92.5447 91.2682 92.9084C91.5464 93.2498 91.7465 92.637 91.8476 92.3438C92.3767 90.8081 92.2293 89.0426 91.98 87.4411Z" fill="black"/>
<path fill-rule="evenodd" clip-rule="evenodd" d="M72.5974 26.1224C74.8912 25.8117 77.2659 26.5016 79.4788 27.2547C81.4656 27.9307 83.3972 29.0428 84.7406 31.1838C84.9518 31.5206 85.1873 32.2591 85.4734 32.4756C85.9119 32.8079 85.8649 31.9913 85.7552 31.6595C85.401 30.5884 84.6089 29.4607 83.9657 28.6891C82.4334 26.8509 80.3889 25.9986 78.4055 25.4726C77.2004 25.1531 75.9612 24.9738 74.7319 24.9712C74.1192 24.97 73.5077 25.0605 72.9099 25.2413C72.7197 25.2988 72.4432 25.3513 72.3434 25.6147C72.2314 25.9107 72.3313 26.1583 72.5974 26.1224Z" fill="black"/>
<path fill-rule="evenodd" clip-rule="evenodd" d="M18.7187 44.7476C19.3376 45.6081 20.1673 46.2132 21.0468 46.4294C21.5055 46.542 22.2142 46.7119 22.6369 46.3596C22.8505 46.1816 22.9634 45.8338 22.8261 45.5124C22.6629 45.1305 22.2355 45.1449 21.9554 45.0922C20.9204 44.8984 20.0703 44.521 19.2808 43.5762C18.5562 42.7092 18.0649 41.6016 17.7161 40.3982C17.5537 39.8376 17.4825 39.2671 17.3743 38.6878C17.313 38.36 17.152 37.5938 16.8865 38.1508C16.471 39.0225 17.0057 40.792 17.2435 41.6348C17.5727 42.8023 18.0713 43.8472 18.7187 44.7476Z" fill="black"/>
<path fill-rule="evenodd" clip-rule="evenodd" d="M43.5539 13.2222C44.1431 12.4138 44.4347 11.3426 45.1069 10.6084C45.2323 10.4716 45.7137 10.1841 45.7081 9.93571C45.7008 9.60888 45.4166 9.66539 45.2691 9.72919C44.543 10.043 43.1664 12.1883 43.5539 13.2222Z" fill="black"/>
<path fill-rule="evenodd" clip-rule="evenodd" d="M54.6773 24.926C54.9183 24.6662 55.5013 23.9996 55.4616 23.5338C55.4244 23.0971 55.1547 23.2071 54.9434 23.3828C54.8525 23.4584 54.6445 23.7761 54.5084 23.6929C54.3698 23.6084 54.4754 23.6379 54.4216 23.4802C54.3469 23.2604 54.4691 22.6597 54.1503 22.8319C53.9607 22.9342 53.8664 23.5324 53.8533 23.7623C53.8204 24.3386 54.1189 25.5282 54.6773 24.926Z" fill="black"/>
<path fill-rule="evenodd" clip-rule="evenodd" d="M52.765 26.9203C52.806 27.2556 53.1574 27.8985 53.4551 27.5549C53.6931 27.2804 53.4134 26.9658 53.3092 26.7011C53.2417 26.5295 53.1508 25.9182 52.9613 25.9283C52.6652 25.9441 52.7351 26.6761 52.765 26.9203Z" fill="black"/>
<path fill-rule="evenodd" clip-rule="evenodd" d="M51.7029 22.9633C51.7769 22.6354 51.5039 21.3657 51.1436 21.7507C50.8495 22.0653 51.2058 22.3944 51.3411 22.6095C51.407 22.7145 51.6196 23.3331 51.7029 22.9633Z" fill="black"/>
</svg>
