<svg width="360" height="281" viewBox="0 0 360 281" fill="none" xmlns="http://www.w3.org/2000/svg">
<path fill-rule="evenodd" clip-rule="evenodd" d="M129.09 93.4565C132.085 101.423 135.08 109.39 138.076 117.357C139.184 120.303 138.547 123.872 138.646 126.996C138.846 133.358 139.131 139.683 142.14 145.353C144.949 150.647 148.407 155.621 151.941 160.413C156.739 153.323 164.175 147.78 171.327 143.595C176.255 140.712 181.639 138.149 187.288 137.319C189.044 137.06 190.981 136.886 192.722 137.363C192.487 134.559 192.443 131.712 192.646 128.906C192.965 124.509 194.069 121.524 197.276 118.587C198.908 117.094 200.665 115.748 202.456 114.47C203.095 114.013 204.976 113.204 205.361 112.493C205.699 111.869 205.393 110.07 205.438 109.331C205.597 106.743 205.982 104.148 206.711 101.664C208.089 96.969 210.532 92.6321 212.058 87.9682C209.785 87.6301 207.512 87.2924 205.239 86.9543C203.7 86.7253 202.681 86.0506 201.694 87.2225C198.276 91.2794 195.36 95.9522 192.236 100.258C190.176 103.096 188.172 105.949 185.84 108.559C182.112 112.729 175.404 119.482 169.905 114.227C167.081 111.529 166.652 106.895 166.596 103.154C166.519 98.0619 167.265 92.9687 168.113 87.9682C159.794 87.1435 151.222 88.5598 143.064 90.1635C138.374 91.0855 133.696 92.1532 129.09 93.4565Z" fill="#5A7860"/>
<path fill-rule="evenodd" clip-rule="evenodd" d="M175.351 63.2777C169.226 63.2777 166.569 71.711 173.951 71.6316C179.709 71.5694 182.746 63.2777 175.351 63.2777ZM173.006 73.2441C163.814 73.2441 167.186 61.7242 175.385 61.6941C185.503 61.6569 181.032 73.2426 173.006 73.2441ZM273.033 221.486C269.305 222.289 265.559 223.123 261.931 224.339C259.705 225.084 257.181 227.22 255.977 224.096C255.478 222.803 255.276 221.432 254.673 220.177C253.979 218.731 253.067 217.406 252.101 216.146C249.901 213.278 247.6 210.262 245.098 207.688C240.24 202.689 235.685 197.176 229.788 193.556C228.273 192.627 227.014 191.136 225.554 190.065C223.984 188.913 222.409 187.772 220.799 186.682C217.502 184.449 214.142 182.314 210.735 180.269C212.45 178.105 214.817 176.648 217.013 175.082C219.362 173.406 221.673 171.653 223.991 169.934C225.007 169.18 225.5 168.986 226.633 169.634C227.676 170.23 228.697 170.977 229.693 171.656C232.136 173.319 234.308 175.279 236.253 177.544C240.443 182.423 245.346 186.362 250.011 190.715C254.744 195.133 259.46 199.775 263.482 204.913C265.636 207.666 267.758 210.538 269.627 213.511C270.614 215.082 271.451 216.739 272.312 218.385C272.647 219.026 274.424 221.187 273.033 221.486ZM208.512 176.029C208.399 176.313 208.143 176.563 207.848 176.354C207.769 176.297 207.995 174.957 208.007 174.796C208.096 173.64 208.113 172.48 208.097 171.321C208.065 169.136 207.885 166.958 207.75 164.777C207.476 160.361 207.431 155.927 206.937 151.528C207.99 152.07 209.427 152.857 210.162 153.854C210.765 154.672 210.674 155.386 210.684 156.39C210.716 159.421 211.172 162.437 211.382 165.458C211.466 166.678 211.518 167.896 211.824 169.081C212.083 170.083 212.669 171.195 212.412 172.257C211.974 174.069 209.747 174.919 208.512 176.029ZM214.296 157.079C215.572 157.986 217.033 158.513 217.295 160.276C217.549 161.983 217.2 163.548 217.766 165.225C218.102 166.22 218.821 167.437 218.234 168.408C217.621 169.422 216.084 169.939 215.19 170.645C215.014 168.434 215.163 166.21 215.008 163.998C214.846 161.684 214.296 159.406 214.296 157.079ZM220.641 162.167C221.752 163.095 222.864 164.024 223.976 164.952C222.864 165.582 221.752 166.213 220.641 166.843V162.167ZM204.158 179.929C203.338 180.62 201.932 179.806 201.229 179.304C200.134 178.52 199.942 177.819 200.046 176.462C200.305 173.103 199.713 169.862 199.181 166.548C197.988 159.109 197.018 151.616 196.441 144.097C198.516 145.135 201.257 146.299 202.555 148.397C203.394 149.753 203.148 151.486 203.108 153.027C203.053 155.129 202.884 157.227 202.889 159.331C202.897 163.468 203.342 167.603 203.454 171.74C203.501 173.475 203.496 175.255 204.293 176.83C204.473 177.184 205.401 178.234 205.426 178.525C205.473 179.066 204.543 179.599 204.158 179.929ZM194.061 174.845C191.421 173.415 191.09 169.741 190.467 167.055C189.598 163.309 188.763 159.486 188.26 155.667C187.765 151.912 187.856 148.106 187.293 144.356C187.169 143.534 186.382 141.705 186.713 140.888C187.133 139.855 188.698 139.881 189.58 139.724C190.387 139.58 191.901 138.683 192.423 139.44C192.856 140.069 192.438 141.507 192.336 142.181C191.862 145.326 192.336 148.498 192.68 151.644C193.562 159.684 194.28 167.726 195.593 175.709C195.083 175.421 194.577 175.123 194.061 174.845ZM189.558 183.025C189.481 181.596 189.404 180.166 189.327 178.737C190.13 179.051 190.932 179.365 191.734 179.68C191.103 180.854 190.538 182.111 189.558 183.025ZM186.755 186.585C186.006 187.395 185.343 188.457 184.309 188.904V177.379C185.186 177.514 186.172 177.273 186.531 178.273C186.805 179.038 186.437 180.226 186.543 181.064C186.717 182.446 187.856 185.393 186.755 186.585ZM181.609 169.632C180.84 163.191 180.615 156.694 179.613 150.281C179.386 148.829 179.126 147.42 178.786 145.993C178.57 145.092 178.122 143.993 178.68 143.146C179.54 141.841 181.952 141.879 183.269 141.555C183.111 151.655 183.566 161.955 186.96 171.525C185.841 171.391 181.798 171.219 181.609 169.632ZM181.176 191.725C179.74 192.807 178.439 194.377 176.674 194.882C176.564 190.3 176.499 185.715 176.328 181.136C176.289 180.071 176.262 178.995 176.157 177.934C176.113 177.482 175.821 176.552 176.031 176.098C176.567 174.936 178.535 175.729 179.348 176.255C180.469 176.98 180.344 178.174 180.326 179.454C180.305 181.087 180.329 182.656 180.445 184.29C180.547 185.738 180.677 187.14 180.922 188.567C181.004 189.045 181.659 191.361 181.176 191.725ZM174.279 196.691C172.536 197.685 171.893 195.788 171.094 194.538C170.546 193.681 169.67 192.867 169.449 191.826C169.227 190.78 169.725 189.722 169.809 188.689C170.012 186.207 169.239 183.647 168.939 181.201C168.598 178.422 168.473 175.604 168.473 172.804C169.79 173.426 172.147 173.452 172.621 175.14C172.831 175.889 172.55 176.856 172.506 177.621C172.433 178.909 172.474 180.208 172.459 181.499C172.399 186.613 172.599 191.607 175.331 196.051C174.983 196.269 174.633 196.483 174.279 196.691ZM168.689 199.802C165.739 201.101 162.903 202.758 159.79 203.613C156.675 204.469 153.5 205.242 150.343 205.908C143.736 207.302 136.949 208.118 130.201 207.894C126.898 207.783 123.648 207.331 120.385 206.811C117.081 206.285 114.22 205.047 111.093 203.908C105.014 201.694 98.7831 200.258 93.02 197.167C91.6292 196.421 90.276 195.605 88.8947 194.841C88.161 194.436 87.2596 194.261 87.2195 193.295C87.1784 192.295 88.2166 190.458 88.6282 189.561C89.266 188.172 90.2503 187.069 91.2488 185.949C92.9423 184.05 94.532 181.227 96.5862 179.763C97.7189 178.956 98.1844 179.449 99.1786 180.169C100.487 181.116 102.05 181.79 103.515 182.437C109.543 185.097 116.395 186.708 122.879 187.495C129.264 188.27 135.576 189.024 141.932 187.444C145.53 186.549 148.906 185.044 152.307 183.561C153.431 183.071 154.695 181.993 155.723 182.835C156.823 183.737 157.478 185.599 158.376 186.74C160.528 189.472 163.199 191.597 165.35 194.322C165.872 194.984 170.202 199.135 168.689 199.802ZM84.1637 186.73C83.2096 188.194 82.3504 189.778 82.0779 191.549C80.2452 190.019 78.9944 189.501 80.4685 187.083C81.8459 184.824 83.0704 182.521 84.3251 180.181C84.8373 179.226 85.5978 178.105 85.4315 176.946C85.242 175.626 84.1117 175.033 83.0124 175.629C82.2316 176.052 81.6437 177.17 81.1287 177.887C80.2002 179.178 79.392 180.55 78.6031 181.937C78.0174 182.967 77.463 184.636 76.6445 185.426C76.0936 185.957 75.3975 185.986 75.2513 184.946C75.1212 184.021 76.4399 182.391 76.833 181.655C77.4739 180.456 78.1791 179.286 78.6822 178.014C79.2043 176.695 79.5456 172.329 77.0298 174.5C76.1615 175.249 75.4306 176.695 74.7763 177.644C73.7705 179.102 72.8259 180.607 71.9557 182.158C70.4198 181.09 68.958 179.402 67.1045 178.943C65.3428 178.506 63.7608 180.169 62.2572 180.936C59.9161 182.13 57.7059 183.578 55.4766 184.979C53.4871 186.228 51.371 187.206 49.4195 188.528C46.0248 190.828 41.8905 193.859 37.6267 192.492C35.9375 191.951 34.0721 190.837 33.1541 189.207C31.9138 187.005 32.2306 184.071 31.4325 181.687C33.6927 182.988 36.0749 181.486 38.0683 180.365C40.3021 179.108 42.6193 178.034 44.9635 177.021C49.8091 174.926 54.8336 173.097 59.6025 170.838C68.9214 166.422 76.7774 159.303 86.1283 154.986C88.3277 161.623 91.9614 167.738 96.776 172.665C92.1787 176.947 87.6442 181.388 84.1637 186.73ZM157.778 160.289C156.53 159.676 155.012 159.547 155.877 157.853C156.492 156.651 157.829 155.813 158.673 154.79L159.714 161.328C159.07 160.98 158.434 160.612 157.778 160.289ZM164.841 163.891C164.682 160.632 164.29 157.273 163.136 154.22C162.797 153.325 162.217 152.271 162.701 151.34C163.196 150.389 164.652 149.869 165.55 149.471C166.234 155.024 166.564 160.673 168.151 166.054C166.981 165.72 164.923 165.557 164.841 163.891ZM165.812 186.234C165.818 186.332 165.824 186.43 165.83 186.529C164.629 185.912 163.285 184.957 162.66 183.675C162.005 182.33 162.355 180.784 162.364 179.347C162.373 177.687 162.101 176.082 161.806 174.458C161.473 172.627 161.68 170.91 161.793 169.069C162.758 169.747 164.207 170.226 164.843 171.307C165.508 172.439 165.125 173.913 164.994 175.142C164.603 178.795 164.893 182.684 165.812 186.234ZM177.053 169.339C174.734 169 173.5 168.512 173.093 166.004C172.592 162.925 172.064 159.863 171.659 156.768C171.282 153.893 169.988 150.912 169.859 148.045C169.767 146.027 173.025 145.309 174.5 144.557C175.288 152.823 175.68 161.144 177.053 169.339ZM153.368 155.949C153.111 156.565 152.896 157.199 152.662 157.824C151.025 155.295 149.411 152.82 147.505 150.499C145.739 148.348 144.267 146.152 143.362 143.467C142.381 140.557 141.481 137.468 141.185 134.39C140.887 131.287 141.161 128.103 141.23 124.992C141.27 123.184 142.243 118.619 140.88 117.146C140.38 116.605 139.589 116.788 139.023 116.288C138.248 115.602 137.997 114.195 137.677 113.253C135.657 107.312 133.878 101.191 130.904 95.6677C134.87 93.9012 139.358 93.0136 143.536 91.9331C147.924 90.7985 152.481 90.0979 156.985 89.7078C159.159 89.5198 161.337 89.44 163.519 89.4568C165.289 89.4707 167.06 89.1627 166.461 91.5098C165.554 95.0563 164.897 98.6896 164.94 102.377C165.002 107.76 166.327 114.906 171.598 117.359C179.808 121.181 186.284 111.998 190.488 106.177C193.426 102.108 196.26 98.0844 198.796 93.7168C199.626 92.2891 200.334 90.088 201.915 89.3756C203.875 88.492 206.704 89.1045 208.775 89.1045C208.618 91.7048 208.459 93.8822 207.376 96.2744C206.326 98.5923 205.467 100.926 204.761 103.381C204.085 105.729 203.778 107.922 203.498 110.32C203.249 112.452 201.152 111.699 199.653 112.31C196.136 113.743 194.241 118.084 192.85 121.433C191.962 123.572 191.044 125.762 190.665 128.075C190.211 130.841 190.538 133.656 190.64 136.438C190.033 136.572 189.368 136.061 188.796 135.921C187.924 135.706 186.972 135.7 186.083 135.76C184.125 135.894 182.139 136.258 180.229 136.711C176.097 137.693 172.19 139.463 168.449 141.504C162.384 144.813 156.198 149.189 153.368 155.949ZM133.033 113.388C126.831 115.61 120.536 117.681 114.067 118.883C110.886 119.474 107.703 119.348 104.489 119.249C103.012 119.203 101.729 118.95 100.298 118.634C99.2082 118.393 97.3909 117.806 96.3795 118.483C95.7903 116.463 92.6772 116.426 91.0811 116.1C89.7824 115.836 88.6391 115.154 87.3633 114.834C86.8845 114.714 86.418 114.734 85.9943 114.483C85.5876 114.241 85.358 113.693 84.9347 113.479C84.3265 113.171 83.5879 113.151 83.1396 112.713C82.1004 111.699 80.9378 110.797 79.9088 109.766C78.8696 108.727 78.3767 107.383 77.6679 106.094C76.8396 104.586 75.5533 103.102 74.9426 101.497C75.2109 101.688 75.4773 101.882 75.7424 102.079C75.5972 100.191 75.0998 98.5312 75.226 96.5744C75.2886 95.6088 75.1943 94.9898 75.0769 94.0765C74.9873 93.3791 75.0745 92.8051 75.0843 92.0243C75.111 89.9391 75.7727 88.0302 76.0873 85.9945C76.1921 85.3183 76.2473 84.5928 76.2757 83.9235C76.3014 83.3122 75.9358 82.4984 76.005 81.8395C76.2796 81.9847 76.5271 82.1695 76.7472 82.3941C76.1305 80.8249 78.1102 78.9588 78.3296 77.4605C78.6597 75.2071 76.5981 74.6355 74.8551 74.9052C72.5091 75.2682 70.3421 76.7108 68.2422 77.7664C65.3671 79.2124 62.5075 80.665 59.6901 82.2306C56.385 84.067 53.4994 86.5027 50.246 88.3771C49.834 88.6146 48.317 89.6398 48.0421 88.7847C47.7981 88.0266 49.493 86.6542 49.9047 86.2597C52.019 84.2335 54.3903 82.438 56.7626 80.7531C58.4012 79.5889 60.1183 78.548 61.7959 77.4466C63.5984 76.2634 66.1247 74.9286 66.8321 72.6678C67.4143 70.8077 66.7382 69.1173 64.723 69.6515C62.1152 70.343 59.5034 72.2449 57.1093 73.5083C54.7176 74.7709 52.2893 75.9641 49.9124 77.256C49.3823 77.544 47.3471 79.0339 47.6898 77.8436C47.9669 76.881 49.5668 75.7197 50.2569 75.0618C51.2789 74.0867 52.3558 73.1753 53.4646 72.3092C55.8081 70.4787 58.2982 68.8578 60.827 67.3222C62.3781 66.3804 64.048 65.3867 64.1303 63.292C64.2706 59.6986 61.1357 61.6056 59.3269 62.3184C56.9071 63.2711 54.3998 63.9572 51.974 64.8942C49.7623 65.7482 47.5288 66.6757 45.1705 66.9878C43.964 67.1477 42.1689 67.1956 42.4593 65.4419C42.7711 63.5628 45.3498 62.2723 46.7585 61.434C49.1692 59.9994 51.6396 59.4531 54.3168 58.8278C57.2316 58.1469 60.1063 57.414 63.0542 56.8864C69.0272 55.817 74.7763 55.439 80.8105 56.0101C83.5763 56.2718 86.387 55.9915 89.1222 56.2549C90.9408 56.4298 92.3056 57.608 93.2942 59.1322C95.7027 62.8474 96.7142 67.9131 96.3271 72.303C95.7657 78.6628 93.0994 84.0231 90.8206 89.8139C89.087 94.2188 87.7936 100.339 92.4423 103.339C94.6375 104.756 97.116 104.657 99.5745 104.285C102.891 103.782 106.159 102.983 109.4 102.105C115.805 100.371 122.147 98.4232 128.47 96.394C128.748 97.5407 134.787 112.76 133.033 113.388ZM167.426 103.361C167.66 99.9526 167.777 96.5909 168.353 93.2192C168.541 92.1216 168.625 90.9024 169.544 90.1765C170.453 89.459 171.802 89.436 172.836 88.9933C175.581 87.8173 177.824 85.1152 179.899 82.9861C182.042 80.7879 183.434 78.2834 184.444 75.3465C185.252 72.9975 186.534 69.2881 185.038 66.9779C183.873 65.1796 181.974 64.5481 182.571 61.9576C183.083 59.7433 185.199 58.4967 187.036 59.9866C188.185 60.9174 189.475 63.1782 189.475 60.1048C194.373 61.2332 199.433 59.4502 203.712 57.0313C204.549 56.5582 205.574 55.8074 206.425 56.5527C206.986 57.0452 207.169 58.0152 207.785 58.5618C208.428 59.133 209.437 59.4502 209.636 60.4059C209.789 61.1424 209.343 62.2898 209.151 62.9707C208.664 64.7058 208.008 66.4796 206.674 67.6932C206.097 68.2186 204.116 69.9958 203.373 69.2439C202.516 68.3756 204.377 65.5601 202.012 67.1722C201.166 67.7492 200.903 67.777 200.543 68.8308C200.119 70.0686 199.926 71.3825 199.758 72.6784C198.839 72.3656 197.378 71.3473 196.439 72.0875C195.549 72.7889 196.019 74.2565 196.751 74.8664C197.503 75.4925 199.034 75.6095 199.913 75.2071C201.318 74.5635 201.325 72.9184 201.625 71.5672C202.419 72.1662 202.95 73.2287 204.091 73.0249C200.624 77.3032 196.059 80.2662 190.636 80.2757C188.184 80.2801 187.258 81.261 186.769 83.7487C186.27 86.2897 186.284 89.0602 186.281 91.6379C186.278 93.7414 186.351 95.8939 186.969 97.915C187.378 99.2545 188.175 100.56 188.68 98.3691C188.951 97.1931 188.759 95.8426 188.747 94.6392C188.741 93.8826 188.496 92.501 188.972 91.8783C189.5 91.186 190.727 91.5676 191.462 91.5603C193.006 91.5449 194.484 90.9449 196.029 90.9449C193.746 94.445 191.16 97.7174 188.974 101.288C186.74 104.939 184.023 108.369 180.732 111.049C177.982 113.288 174.153 114.444 171.031 112.263C168.353 110.392 167.205 106.584 167.426 103.361ZM209.971 71.2782C210.968 72.7586 207.751 75.6728 206.517 75.6505C206.832 75.1233 209.347 70.3521 209.971 71.2782ZM212.162 91.5438C212.528 90.4495 214.597 90.5398 215.455 90.5106C217.327 90.4465 219.203 90.4418 221.077 90.3818C226.199 90.2186 231.319 89.8337 236.446 89.9189C241.754 90.0071 247.067 89.4817 252.365 89.6738C257.399 89.856 262.415 90.3434 267.363 91.3302C276.43 93.1384 285.855 95.7164 293.102 102.052C299.611 107.743 304.461 115.978 303.435 125.08C302.802 130.693 302.572 136.588 300.529 141.894C298.792 146.404 295.148 149.198 291.384 151.795C291.334 150.714 294.1 143.718 291.148 144.788C290.196 145.133 289.643 146.498 289.124 147.316C288.213 148.751 287.238 150.156 286.25 151.535C284.458 154.039 282.401 156.407 279.758 157.955C278.734 158.555 275.477 160.319 274.898 158.384C274.418 156.781 277.528 153.535 278.26 152.308C278.909 151.22 279.429 150.17 279.185 148.875C279.091 148.376 278.802 147.918 278.694 147.419C278.607 147.015 278.708 146.396 278.532 146.027C277.358 143.56 276.107 147.834 275.735 148.605C274.451 151.275 271.459 153.013 269.132 154.544C266.237 156.448 263.373 158.511 260.012 159.411C262.116 155.663 264.265 151.939 266.175 148.078C267.954 144.482 269.078 140.323 271.156 136.987C271.506 136.423 271.745 135.813 272.023 135.138C272.196 134.718 272.457 133.285 272.686 133.034C272.816 132.891 273.543 132.837 273.828 132.549C274.18 132.194 274.377 131.631 274.556 131.17C274.768 130.621 275.58 128.71 275.367 128.089C275.322 127.959 274.741 128.015 274.641 127.776C274.523 127.495 274.608 127.29 274.596 127.003C274.568 126.342 274.97 125.843 274.495 125.212C276.895 125.212 274.659 118.495 274.249 117.274C273.793 115.917 273.028 114.943 272.677 113.619C272.247 112.004 271.054 110.588 269.989 109.369C268.923 108.148 267.811 106.693 266.612 105.632C265.37 104.532 263.693 103.909 262.282 103.077C261.653 102.705 260.979 102.212 260.257 102.061C260.022 102.134 259.789 102.209 259.556 102.288C259.285 102.14 259.044 101.95 258.834 101.718C257.485 100.988 256.163 100.725 254.644 100.534C247.139 99.59 239.094 99.4199 231.559 100.083C227.644 100.426 223.664 100.819 219.808 101.618C215.815 102.445 211.886 103.502 207.849 104.111C208.761 99.7426 210.757 95.7427 212.162 91.5438ZM233.885 37.9522C234.577 37.8564 234.287 38.8388 234.063 39.1344C233.772 38.7865 233.712 38.3924 233.885 37.9522ZM331.128 245.71C330.561 242.867 328.616 239.936 326.373 238.236C323.607 236.138 320.482 236.115 317.231 236.286C313.506 236.482 309.887 237.159 306.218 237.808C302.489 238.468 298.819 239.036 295.2 240.217C293.75 240.69 292.277 241.089 290.847 241.622C289.781 242.02 288.548 242.783 288.014 241.334C287.044 238.701 290.777 237.556 292.263 236.445C293.072 235.84 294.147 234.966 293.132 234.029C291.932 232.922 289.897 233.987 288.674 234.445C287.544 234.868 286.398 235.015 286.685 233.137C286.876 231.89 288.432 231.081 289.302 230.353C290.373 229.457 294.132 226.817 291.721 225.479C289.153 224.055 287.712 227.608 285.518 227.791C283.588 227.952 283.6 223.01 283.06 221.657C281.697 218.238 278.283 221.979 276.749 219.917C276.117 219.067 276.335 217.538 276.099 216.541C275.71 214.901 274.808 213.291 274.08 211.787C272.468 208.461 270.606 205.265 268.522 202.236C266.441 199.21 264.135 196.609 261.511 194.092C258.879 191.569 256.585 188.701 253.997 186.132C248.845 181.018 242.907 176.81 237.627 171.821C236.409 170.669 235.247 169.468 233.824 168.585C232.518 167.774 230.358 167.337 229.317 166.183C228.64 165.433 228.752 164.379 228.423 163.456C227.867 161.893 226.53 160.834 225.386 159.741C220.065 154.661 214.499 149.614 208.251 145.793C205.221 143.94 202.151 141.634 198.9 140.238C197.85 139.787 196.429 139.601 195.565 138.775C194.659 137.909 194.488 136.396 194.145 135.226C192.019 127.968 196.398 120.452 201.715 115.943C202.66 115.141 204.023 114.479 204.631 113.356C205.297 112.126 205.329 110.548 206.039 109.297C207.355 106.981 210.935 107.3 213.196 106.774C226.846 103.596 243.045 102.365 256.424 107.435C262.047 109.566 266.876 113.151 269.026 119.123C269.997 121.818 270.508 124.741 270.427 127.622C270.337 130.831 269.208 133.809 268.176 136.798C266.934 140.392 265.545 143.934 263.937 147.368C262.486 150.469 260.646 153.259 259.044 156.259C258.048 158.123 256.47 161.559 258.747 163.101C260.563 164.331 263.447 163.612 265.238 162.712C267.918 161.367 269.899 158.952 272.244 157.113C272.255 158.935 270.698 160.567 271.407 162.41C272.112 164.242 274.024 164.004 275.534 163.557C277.259 163.047 279.048 162.255 280.626 161.374C282.621 160.261 284.056 158.555 285.75 157.042C288.727 154.384 292.683 153.493 295.872 151.188C299.167 148.806 301.444 145.2 302.833 141.331C304.442 136.85 305.1 132.045 305.654 127.32C306.202 122.646 306.471 118.038 304.983 113.511C302.155 104.901 296.415 98.1115 288.7 93.853C272.421 84.8664 254.032 85.2341 236.153 85.7274C231.253 85.8627 226.348 85.9312 221.455 86.2652C219.206 86.4189 216.952 86.6099 214.718 86.9253C214.036 87.0215 212.511 87.5637 211.904 86.9827C211.436 86.5349 211.71 85.5924 211.286 85.0519C210.275 83.767 208.021 84.0973 206.675 84.2686C204.975 84.4841 202.973 84.5221 201.445 85.3842C199.976 86.2129 199.465 87.949 197.644 87.975C195.619 88.0035 193.504 87.5026 191.464 87.4221C189.859 87.3588 188.435 86.7837 189.972 84.9546C191.144 83.5599 193.107 83.5683 194.7 83.2525C197.646 82.6689 204.342 77.5425 206.549 81.0971C207.154 82.0725 207.111 82.4263 208.275 82.853C209.351 83.2478 210.573 83.4395 211.7 83.6319C213.798 83.9898 216.238 84.2777 218.29 83.516C221.48 82.3316 222.14 78.6017 222.884 75.5836C226.291 77.4671 231.436 78.342 234.8 75.8796C237.627 73.8101 238.644 69.4718 238.522 66.0665C238.486 65.0537 238.357 64.015 238.01 63.0619C237.689 62.1782 236.824 61.2595 236.856 60.2767C236.884 59.4209 237.66 58.6774 238.016 57.9599C238.544 56.8952 238.798 55.6307 238.903 54.4438C239.286 50.0865 236.158 47.6551 232.906 45.6505C234.816 43.2839 236.951 40.9221 236.785 37.6068C236.63 34.5133 234.281 32.3604 231.858 30.9093C229.691 29.6115 227.505 29.1091 225.075 28.7945C224.015 28.6573 223.61 28.7703 223.779 27.6332C223.913 26.7302 224.537 25.9278 224.729 25.0339C225.85 19.8255 220.904 17.8432 216.902 17.3895C210.311 16.6423 204.201 18.0389 198.848 22.0863C194.936 13.5136 181.891 17.7433 178.256 24.387C177.779 25.2582 177.427 26.2047 177.263 27.1948C177.153 27.8575 177.498 29.4198 177.18 29.9232C176.56 30.9049 174.092 29.9756 173.222 30.0224C171.628 30.1076 169.92 30.9675 168.633 31.9056C163.193 35.8703 163.469 44.0168 164.775 50.0008C161.278 50.4944 157.744 53.5046 157.673 57.3745C157.637 59.3167 158.314 61.5076 159.406 63.0776C160.523 64.6853 162.561 65.7595 162.77 67.897C162.99 70.1458 162.534 71.4648 164.34 73.1603C165.664 74.4036 167.416 75.4079 169.089 76.0376C173.004 77.5114 177.459 76.9889 181.263 75.3991C179.33 78.5754 176.236 81.4066 173.223 83.4453C171.872 84.36 170.283 85.5353 168.76 86.1042C167.107 86.7218 165.061 85.6443 163.353 85.4954C155.676 84.8269 147.771 86.2806 140.384 88.2659C132.389 90.4144 124.485 92.7747 116.549 95.1617C112.621 96.3435 108.698 97.5919 104.729 98.6197C101.749 99.3914 98.4291 100.07 95.3494 99.5234C92.7239 99.0569 91.4362 97.2143 92.282 94.4497C93.3965 90.808 95.5709 87.4119 96.9184 83.835C99.411 77.2187 100.646 69.6174 98.4664 62.7289C97.5836 59.9394 96.3275 56.7009 93.9242 54.9637C92.6536 54.0453 91.0635 53.5038 89.685 52.7783C87.9336 51.8562 86.0513 51.1889 84.1567 50.6638C76.545 48.5545 68.5146 49.5406 60.9128 51.1655C54.0464 52.6334 43.3793 54.7149 40.3126 62.3722C39.2639 64.9904 38.8828 69.4166 41.49 71.2431C43.7341 72.8145 47.1217 71.7977 49.3042 70.6112C47.1773 73.1574 44.536 75.5846 43.5098 78.8897C43.1487 80.0532 42.8706 81.6591 43.6001 82.7377C44.6604 84.3052 46.4632 83.3835 47.8874 83.0158C46.2168 85.2583 43.811 88.8334 45.5165 91.6997C47.4033 94.8705 51.2069 92.745 53.555 91.4209C57.0389 89.4565 60.672 87.8001 64.1627 85.8474C66.0326 84.8017 67.8664 83.6919 69.4973 82.2686C70.8476 81.0901 71.993 79.8392 73.8566 79.6968C71.4245 84.4749 69.0272 89.4444 69.0715 94.985C69.113 100.144 71.0593 106.278 73.6889 110.647C76.4406 115.219 80.883 118.033 85.5711 120.055C90.6761 122.257 95.8834 123.744 101.429 123.983C112.238 124.448 123.89 121.828 133.218 116.076C133.916 115.646 133.941 115.496 134.594 115.994C135.431 116.632 136.103 118.931 136.627 119.896C138.161 122.726 137.708 125.105 137.418 128.207C136.903 133.716 138.06 139.283 139.688 144.498C141.315 149.71 144.019 153.836 147.405 157.981C148.924 159.841 150.503 161.309 152.555 162.503C154.787 163.8 156.689 164.931 157.555 167.572C158.276 169.774 158.159 171.656 157.156 173.729C156.897 174.265 156.399 175.904 155.924 176.278C155.471 176.634 155.351 176.315 154.931 176.431C154.165 176.643 153.946 176.761 153.327 177.373C151.671 179.008 149.221 179.441 147.076 180.108C144.125 181.027 141.088 181.919 137.998 182.081C132.675 182.361 126.593 182.329 121.469 180.733C116.308 179.125 110.959 178.201 105.994 175.955C103.736 174.934 102.695 174.411 102.216 171.854C101.962 170.497 101.597 170.391 100.505 170.001C99.2504 169.552 98.748 168.936 98.0086 167.749C96.6857 165.626 95.4261 163.47 94.1966 161.288C92.6564 158.555 90.7292 156.047 89.28 153.267C88.4138 151.605 87.756 148.685 85.5 148.62C84.1609 148.581 82.7023 149.595 81.4993 150.11C80.0325 150.739 78.5539 151.337 77.0903 151.973C71.4565 154.425 66.4257 158.107 61.2774 161.484C55.6584 165.168 49.2321 167.774 43.283 170.877C40.5071 172.326 37.8563 173.988 35.3191 175.852C33.6783 177.057 30.4752 178.371 30.715 180.764C29.9032 180.303 28.8876 179.498 28.111 180.457C27.4697 181.248 27.9095 182.703 28.0709 183.604C28.6014 186.566 29.2325 189.584 30.9671 192.068C33.7145 196.001 38.951 199.227 43.7228 198.519C49.5559 197.653 54.2342 193.335 59.2468 190.498C61.0777 189.462 62.9157 188.497 64.6499 187.294C65.6719 186.585 67.4719 185.056 68.8145 185.241C70.8627 185.521 69.1503 188.043 68.5892 189.026C67.9954 190.068 67.4993 191.165 66.9692 192.243C66.3747 193.451 65.3864 194.8 65.0458 196.108C64.8303 196.937 64.9354 198.193 65.9261 198.4C66.9337 198.611 67.796 197.254 68.3072 196.581C69.1496 195.471 69.8509 194.257 70.5741 193.063C71.054 192.27 71.6464 190.759 72.4567 190.263C74.5559 188.979 72.2602 193.096 71.8833 193.658C71.4105 194.364 70.7249 195.216 70.6107 196.087C70.4423 197.369 71.4456 198.606 72.7352 198.299C73.7287 198.063 74.3987 196.986 74.9577 196.192C75.317 195.683 76.3907 193.694 77.0868 193.675C77.5171 193.663 78.6034 195.219 78.9388 195.557C79.9141 196.538 81.07 197.207 82.2825 197.818C87.8966 200.649 93.0013 204.275 98.8577 206.628C104.453 208.876 110.287 210.647 116.11 212.107C119.181 212.878 122.052 213.718 125.219 213.989C128.423 214.263 131.582 214.126 134.79 214.057C141.337 213.916 147.506 212.502 153.796 210.698C164.965 207.495 175.46 202.237 184.105 194.096C186.339 191.993 188.362 189.682 190.274 187.263C191.105 186.212 191.975 185.171 192.678 184.022C193.148 183.254 193.576 181.938 194.403 181.5C195.678 180.824 198.618 182.964 199.768 183.557C201.027 184.207 202.316 185.055 203.688 185.395C204.204 185.522 204.706 185.533 205.211 185.715C205.715 185.898 206.31 186.474 206.885 186.346C209.026 185.865 205.516 181.573 208.657 183.747C213.675 187.22 218.366 191.372 223.095 195.253C224.279 196.224 225.493 197.078 226.758 197.929C227.943 198.727 228.851 199.813 229.985 200.675C232.467 202.564 234.808 204.58 237.066 206.754C239.304 208.909 241.449 211.188 243.813 213.193C246.13 215.16 247.936 217.43 249.886 219.773C251.789 222.059 253.209 224.688 254.56 227.351C253.431 226.941 252.483 226.242 251.862 227.774C251.461 228.76 251.804 230.113 252.062 231.094C252.89 234.24 254.628 237.064 255.673 240.134C256.863 243.631 258.621 246.988 259.611 250.546C260.487 253.694 260.281 257.179 261.534 260.23C262.562 262.735 266.309 262.155 268.473 262.379C271.933 262.737 275.351 263.142 278.83 263.254C286.066 263.487 293.396 264.058 300.632 263.767C307.214 263.503 313.781 263.082 320.341 262.493C322.136 262.332 326.132 261.958 326.545 259.504C326.812 257.92 325.458 258.158 324.432 258.257C322.971 258.398 321.494 258.375 320.027 258.401C313.003 258.526 306.106 258.626 299.094 258.07C291.924 257.501 284.759 257.359 277.584 257.082C274.351 256.957 271.209 256.897 267.985 257.05C267.022 257.095 265.84 257.216 265.301 256.245C264.76 255.271 264.836 252.953 264.591 251.855C263.74 248.039 261.871 244.657 260.613 240.99C259.346 237.29 258.083 233.604 256.464 230.05C261.653 229.101 266.834 228.033 271.95 226.721C274.032 226.187 276.23 225.83 278.251 225.104C280.485 224.302 280.535 224.74 280.961 226.938C281.332 228.854 281.755 230.217 280.072 231.492C278.325 232.817 276.187 233.611 274.613 235.184C273.175 236.62 273.464 238.678 275.773 238.381C278.058 238.087 280.676 236.295 282.746 235.297C283.035 236.6 283.304 237.528 282.495 238.653C281.637 239.844 280.33 240.605 279.362 241.685C278.647 242.483 277.898 243.652 279.072 244.425C280.279 245.219 281.485 244.181 282.388 243.463C283.072 242.919 284.199 241.717 285.109 242.391C286.056 243.093 285.555 244.871 286.114 245.828C287.059 247.445 287.712 246.248 288.633 245.565C290.115 244.465 293.136 244.77 294.901 244.618C297.019 244.436 299.085 244.03 301.189 243.759C303.696 243.437 306.222 243.421 308.726 243.05C312.568 242.479 316.786 240.851 320.641 241.872C326.652 243.465 329.566 250.178 328.612 256.228C328.424 257.42 327.498 260.051 328.565 261.073C329.567 262.033 330.287 260.311 330.651 259.487C332.556 255.171 332.025 250.21 331.128 245.71Z" fill="black"/>
<path fill-rule="evenodd" clip-rule="evenodd" d="M261.351 73.4053C269.608 72.5323 278.157 74.4707 286.124 76.587C293.276 78.4867 300.23 81.6117 305.066 87.628C305.826 88.5741 306.674 90.6494 307.704 91.2579C309.283 92.1917 309.113 89.8968 308.719 88.9645C307.444 85.9548 304.592 82.7858 302.277 80.6176C296.76 75.4524 289.4 73.0573 282.26 71.5795C277.921 70.6816 273.46 70.1778 269.035 70.1704C266.829 70.1672 264.628 70.4215 262.476 70.9293C261.791 71.091 260.795 71.2385 260.436 71.9787C260.033 72.8103 260.393 73.5063 261.351 73.4053Z" fill="black"/>
<path fill-rule="evenodd" clip-rule="evenodd" d="M67.3869 125.742C69.6152 128.16 72.602 129.86 75.7682 130.468C77.4195 130.784 79.9708 131.262 81.4923 130.272C82.2616 129.771 82.668 128.794 82.1737 127.891C81.5862 126.818 80.0474 126.858 79.0391 126.71C75.3129 126.166 72.2526 125.105 69.4105 122.45C66.802 120.014 65.0332 116.902 63.7775 113.52C63.1928 111.945 62.9365 110.342 62.547 108.714C62.3266 107.793 61.7468 105.64 60.7909 107.205C59.2954 109.654 61.2202 114.627 62.0762 116.995C63.2614 120.276 65.0564 123.212 67.3869 125.742Z" fill="black"/>
<path fill-rule="evenodd" clip-rule="evenodd" d="M156.794 37.1546C158.915 34.8832 159.965 31.8731 162.385 29.8099C162.836 29.4257 164.569 28.6178 164.549 27.9197C164.523 27.0013 163.5 27.1601 162.969 27.3394C160.355 28.2212 155.399 34.2495 156.794 37.1546Z" fill="black"/>
<path fill-rule="evenodd" clip-rule="evenodd" d="M196.838 70.0428C197.706 69.3128 199.805 67.4395 199.662 66.1307C199.528 64.9035 198.557 65.2127 197.796 65.7063C197.469 65.9189 196.72 66.8116 196.23 66.5778C195.731 66.3404 196.111 66.4231 195.918 65.98C195.649 65.3624 196.089 63.6745 194.941 64.1582C194.258 64.4458 193.919 66.1267 193.872 66.7728C193.753 68.3922 194.828 71.735 196.838 70.0428Z" fill="black"/>
<path fill-rule="evenodd" clip-rule="evenodd" d="M189.954 75.647C190.101 76.5892 191.366 78.3959 192.438 77.4304C193.295 76.6591 192.288 75.7751 191.913 75.0313C191.67 74.549 191.343 72.8312 190.66 72.8597C189.595 72.904 189.846 74.961 189.954 75.647Z" fill="black"/>
<path fill-rule="evenodd" clip-rule="evenodd" d="M186.13 64.5272C186.397 63.6059 185.414 60.0378 184.117 61.1197C183.058 62.0037 184.341 62.9286 184.828 63.5331C185.065 63.828 185.83 65.5663 186.13 64.5272Z" fill="black"/>
</svg>
