<svg width="360" height="281" viewBox="0 0 360 281" fill="none" xmlns="http://www.w3.org/2000/svg">
<path fill-rule="evenodd" clip-rule="evenodd" d="M123.047 128.917C124.151 140.516 125.255 152.116 126.358 163.715C132.368 160.146 138.378 156.577 144.388 153.008V179.433V186.378C144.388 186.993 144.037 189.104 144.388 189.636C144.685 190.088 146.887 190.101 147.408 190.177C150.806 190.672 154.212 191.112 157.623 191.504C166.613 192.538 176.235 194.018 185.259 192.831C193.103 191.799 200.707 188.895 207.874 185.516C210.39 184.33 212.871 183.06 215.306 181.704C215.822 181.416 217.696 180.737 217.977 180.152C218.206 179.673 217.668 177.993 217.596 177.49C217.294 175.37 216.991 173.251 216.688 171.132L212.458 141.536L220.448 149.84C221.074 150.49 222.263 152.337 223.129 152.625C223.764 152.837 225.337 152.182 225.964 152.057C230.488 151.149 235.013 150.242 239.537 149.335C240.591 149.123 242.966 149.131 243.855 148.469C244.333 148.111 244.356 147.385 244.524 146.697C245.628 142.198 246.731 137.699 247.835 133.2C248.034 132.39 249.143 129.835 248.861 129.019C248.76 128.726 248.27 128.526 247.971 128.335C241.143 123.995 234.314 119.654 227.486 115.314C223.745 112.936 220.005 110.558 216.264 108.181C214.697 107.185 212.773 105.39 210.997 104.833C209.895 104.487 208.292 104.746 207.151 104.712C204.833 104.643 202.516 104.574 200.198 104.506C199.836 104.495 198.565 104.226 198.259 104.448C198.005 104.633 198.11 104.891 198.027 105.333C197.823 106.41 197.822 107.572 197.721 108.666C197.641 109.544 197.801 111.154 197.421 111.949C197.178 112.457 197.486 112.254 197.157 112.5C196.766 112.792 195.517 112.698 195.052 112.754C192.781 113.029 190.51 113.303 188.239 113.578C185.539 113.904 182.808 114.517 180.096 114.234C175.983 113.807 171.549 113.828 167.511 112.927C166.461 112.692 166.083 112.077 165.273 111.236C163.693 109.594 162.129 107.933 160.532 106.308C159.749 105.512 160.084 105.647 159.277 105.949C158.266 106.327 157.24 107.24 156.325 107.821C152.817 110.044 149.309 112.268 145.802 114.491L124.387 128.067C123.94 128.351 123.494 128.633 123.047 128.917Z" fill="#633B55"/>
<path fill-rule="evenodd" clip-rule="evenodd" d="M327.873 130.359C323.458 147.801 314.58 166.819 296.693 172.379C292.344 173.73 288.114 174.751 283.597 174.236C283.167 174.187 282.807 174.25 282.398 174.258C281.666 174.273 282.299 174.547 281.477 174.282C280.836 174.077 280.237 173.562 279.569 173.334C277.794 172.73 275.902 172.613 274.098 172.125C269.666 170.925 265.098 169.443 260.803 167.788C258.781 167.009 256.922 165.924 255.02 164.88C253.087 163.819 251.037 163.161 249.082 162.188C247.537 161.419 244.889 160.416 243.803 158.974C242.645 157.435 244.247 154.16 244.705 152.524C246.263 146.959 248.119 141.476 249.29 135.8C253.333 140.676 258.944 143.696 264.753 145.644C267.905 146.701 271.148 147.465 274.426 147.943C277.403 148.377 280.614 148.902 283.598 148.286C285.85 147.821 288.678 146.744 290.286 144.954C290.86 144.316 291.549 143.145 291.227 142.217C290.819 141.039 289.629 141.593 288.985 140.714C288.425 139.949 288.513 138.158 288.334 137.226C288.018 135.576 287.583 133.971 287.053 132.382C286.024 129.298 284.742 126.208 284.434 122.926C284.167 120.079 284.79 117.386 286.155 114.916C286.799 113.748 288.419 110.571 290 110.703C291.736 110.847 289.395 118.461 289.318 120.014C289.015 126.17 289.809 132.73 292.844 138.127C294.006 140.193 295.687 142.598 298.168 142.854C300.797 143.125 302.917 140.973 304.168 138.795C307.221 133.482 305.682 126.192 304.136 120.623C302.239 113.791 297.289 109.082 294.159 102.946C298.832 103.435 301.335 106.525 303.733 110.444C306.373 114.759 308.429 119.941 309.442 124.962C309.954 127.499 309.601 130.046 309.604 132.608C309.605 133.459 309.605 136.599 310.938 136.475C312.363 136.343 312.852 132.802 313.061 131.721C313.542 129.244 314.061 126.765 314.478 124.275C315.217 119.87 315.545 115.358 316.429 110.983C316.578 110.243 316.876 108.191 317.94 108.745C318.76 109.172 318.628 112.345 318.658 113.083C318.732 114.901 318.835 116.718 318.849 118.538C318.87 121.235 318.354 124.027 318.607 126.707C318.773 128.459 319.676 130.394 320.796 128.032C321.906 125.689 322.132 122.768 322.751 120.249C323.402 117.604 324.073 114.92 325.454 112.571C325.836 111.919 326.248 110.885 327.099 111.191C327.717 111.414 328.173 112.939 328.365 113.478C329.227 115.91 329.081 118.615 329.026 121.162C328.96 124.282 328.638 127.333 327.873 130.359ZM241.792 134.885C241.557 134.806 240.555 134.707 240.306 134.684C240.015 134.658 240.345 134.099 239.64 134.258C239.776 134.609 240.018 134.843 240.366 134.961C239.306 135.334 238.524 134.413 237.799 134.294C237.106 134.18 237.076 134.294 236.392 135.056C235.65 134.115 235.789 134.702 235.18 134.702C234.958 134.703 234.948 135.051 234.587 135.01C234.272 134.973 234.239 134.475 234.052 134.417C233.041 134.098 232 135.701 230.852 134.311C230.574 135.758 227.389 133.945 226.164 134.2C224.879 134.465 225.433 134.945 224.395 134.126C223.406 133.345 223.682 133.863 222.531 134.502C222.558 134.487 221.881 134.963 221.944 134.971C221.148 134.874 221.193 134.016 220.184 134.062C219.117 134.11 218.661 134.981 217.684 133.909C217.471 134.712 217.427 134.366 216.926 134.569C216.651 134.637 216.41 134.561 216.203 134.343C216.141 134.564 216.003 134.699 215.79 134.749C215.245 134.8 214.221 134.879 213.726 134.605C212.982 134.195 213.58 134.037 213.064 133.576C212.834 134.848 212.327 134.578 211.259 134.697C210.445 134.787 210.265 134.527 209.487 134.401C208.721 134.276 207.73 134.586 206.983 134.718C206.674 134.772 206.261 134.996 205.947 134.918C205.663 134.847 205.542 134.618 205.373 134.558C205.168 134.486 205.211 134.299 204.857 134.209C204.612 134.147 204.174 134.385 203.929 134.427C202.187 134.721 200.513 134.724 198.85 134.011C199.669 135.508 196.936 134.7 196.449 134.08C195.84 135.072 195.103 134.372 193.876 134.449C192.694 134.524 190.916 134.9 190.437 133.368C190.343 133.68 189.672 134.583 189.405 134.721C188.63 135.121 188.538 134.53 187.818 134.289C186.837 133.961 187.042 134.583 186.434 134.71C185.407 134.924 184.853 134.172 183.946 133.772C183.907 134.393 183.887 134.776 183.371 135.163C182.914 133.43 181.282 135.305 181.562 132.988C180.941 133.409 180.067 133.732 179.89 134.583C180.929 134.286 180.001 134.993 179.957 135.016C179.82 135.091 179.356 134.413 179.249 134.318C179.219 134.638 179.19 134.957 179.161 135.277C178.747 135.061 178.359 134.676 178.023 134.483C177.72 134.309 178.154 133.947 177.643 133.922C177.373 133.908 177.092 134.516 176.809 134.567C176.377 134.646 176.585 134.001 176.404 134.022C176.128 134.055 175.679 134.475 175.47 134.467C174.787 134.441 175.249 134.109 174.728 133.958C173.796 133.686 173.855 134.321 173.185 134.549C171.652 135.073 171.806 132.663 170.247 134.27C169.873 134.655 169.633 135.249 169.122 135.216C168.063 135.147 168.435 133.841 168.65 133.201C168.873 133.315 164.783 135.502 164.815 135.417C164.841 134.892 165.484 134.488 164.909 134.022C164.439 135.072 163.944 135.09 162.86 135.286C162.333 135.381 162.23 135.507 161.666 135.279C161.307 135.135 161.065 134.538 160.708 134.505C160.756 134.51 160.101 135.029 160.001 135.076C159.409 135.353 159.035 135.039 158.46 135.153C157.97 135.25 157.776 135.684 157.289 135.565C156.638 135.407 157.02 134.598 156.125 134.824C155.819 134.901 155.635 135.515 155.152 135.642C154.4 135.84 153.479 135.47 152.685 135.663C152.054 135.816 151.586 135.881 151.034 135.913C150.589 135.939 150.772 135.578 149.952 136.004L149.604 135.092C149.193 135.476 148.783 135.86 148.372 136.244C148.294 135.9 148.245 135.551 148.224 135.198C147.612 135.836 146.841 135.945 146.017 136.002C145.126 136.065 144.462 136.267 143.595 136.437C143.32 136.49 142.614 136.575 142.389 136.476C142.422 136.49 141.967 136.293 142.104 136.331C142.045 136.206 141.99 136.078 141.939 135.949C141.863 135.589 141.614 135.573 141.194 135.901C140.976 135.866 140.554 135.569 140.337 135.643C139.778 135.831 139.854 136.283 139.296 136.217C138.935 136.173 138.75 135.617 138.374 135.579C137.797 135.522 137.298 136.193 136.779 136.34C138.358 135.894 134.731 136.24 135.859 136.27C135.119 136.25 134.352 136.212 133.669 136.557C133.291 136.288 133.75 135.748 133.368 135.526C133.022 135.325 132.996 135.857 132.955 135.869C133.173 135.804 133.064 136.257 132.846 136.338C132.166 136.589 131.621 135.951 131.586 135.318C131.008 136.223 130.846 135.859 129.995 135.915C129.157 135.97 128.434 136.428 127.595 136.419C125.936 136.403 124.811 135.803 124.257 134.261C126.024 134.485 127.804 133.302 129.532 133.581C130.1 133.673 130.455 134.117 130.953 134.038C131.566 133.941 131.994 133.245 132.78 133.169C134.515 133.004 136.225 133.165 137.971 132.889C140.057 132.558 142.233 132.362 144.339 132.523C145.966 132.648 147.284 132 148.934 131.875C151.068 131.714 153.219 131.685 155.357 131.568C157.553 131.449 159.916 131.084 162.106 131.201C162.789 131.237 163.378 131.307 164.056 131.264C164.343 131.246 164.615 131.044 164.916 131.074C165.308 131.113 165.477 131.531 165.883 131.516C166.575 131.492 167.313 130.899 168.135 130.883C169.486 130.856 170.831 130.86 172.186 130.779C173.379 130.709 174.656 130.419 175.843 130.435C176.681 130.446 176.887 131.188 177.375 131.265C178.253 131.403 182.692 128.774 183.075 131.133C185.386 129.487 188.485 130.881 191.057 130.572C194.362 130.174 197.727 130.528 201.054 130.387C204.439 130.243 207.921 130.376 211.293 130.709C212.69 130.846 214.039 130.975 215.44 130.892C216.064 130.855 216.786 130.689 217.411 130.838C217.562 130.875 218.72 131.716 218.576 131.74C219.209 131.149 218.781 131.063 219.893 131.032C220.751 131.009 221.562 131.202 222.415 131.254C223.946 131.349 225.488 131.128 227.016 131.176C228.291 131.217 229.538 131.413 230.82 131.422C232.202 131.433 233.835 131.473 234.835 132.633C234.729 132.269 234.624 131.905 234.518 131.541C236.061 131.667 237.585 132.239 239.145 131.972C238.75 132.365 238.35 132.686 238.199 133.263C239.04 133.152 239.609 132.541 240.495 132.536C241.238 132.531 241.393 132.92 242.178 132.418C242.275 133.033 242.371 133.647 242.468 134.262C243.555 133.995 242.842 133.151 242.921 132.391C243.805 132.667 244.554 132.35 244.205 133.673C243.936 134.693 242.713 135.196 241.792 134.885ZM240.264 146.248C239.885 147.357 236.606 146.723 235.83 146.606C234.828 146.455 233.682 146.215 232.759 146.097C232.648 145.943 232.515 145.813 232.361 145.705C232.245 145.874 232.098 145.993 231.92 146.063C231.497 146.16 231.495 146.615 230.939 146.514C230.913 147.188 231.362 146.805 231.707 147.05C230.839 147.655 231.236 146.958 230.749 146.969C230.628 146.791 230.46 146.721 230.245 146.76C229.97 146.834 229.717 146.956 229.486 147.126C229.269 147.365 229.083 147.377 228.928 147.164C228.78 147.008 228.599 146.913 228.386 146.876C227.531 147.021 227.292 147.416 226.329 147.351C224.953 147.259 223.465 147.636 222.111 147.438C221.271 147.314 219.869 145.942 219.488 147.28C218.908 146.288 217.984 145.613 217.428 144.6C220.016 144.445 222.603 144.259 225.193 144.162C227.46 144.077 229.941 144.342 232.06 144.231C234.045 144.127 236.147 143.899 238.174 143.71C240.322 143.51 241.033 144.001 240.264 146.248ZM172.756 146.412C173.695 146.682 174.59 146.069 175.501 146.263C175.802 146.327 176.426 146.898 176.563 146.909C176.814 146.93 177.552 146.369 177.868 146.294C179.87 145.82 182.294 145.871 184.295 146.162C185.356 146.316 185.518 145.811 186.444 145.566C187.406 145.31 188.773 145.507 189.787 145.436C192.17 145.271 194.552 145.389 196.919 145.207C199.349 145.021 201.767 144.92 204.198 144.79C205.854 144.701 209.834 143.718 211.207 144.998C212.339 146.053 210.88 147.884 209.748 148.302C208.902 148.614 208.496 147.957 207.867 148.02C207.152 148.091 207.401 148.971 206.762 148.155C206.367 148.966 203.878 148.62 203.165 148.674C201.611 148.791 200.297 149.116 199.239 147.607C199.311 148.042 199.383 148.477 199.454 148.912C198.052 148.132 196.546 148.382 195.329 148.654C194.726 148.788 192.875 149.719 192.222 149.317C191.773 149.042 192.565 148.569 191.807 148.334C191.409 148.21 190.723 148.897 190.238 148.863C188.894 148.766 189.275 147.826 187.956 149.023C187.508 148.62 187.36 147.936 187.419 147.35C186.46 148.201 186.54 149.619 184.826 149.36C184.187 149.263 184.07 148.585 183.737 148.46C183.027 148.193 182.947 148.673 182.332 149.052C182.1 149.195 181.817 149.425 181.544 149.454C180.983 149.512 180.894 149.244 180.817 149.253C180.444 149.296 179.973 149.493 179.53 149.352C179.133 149.225 179.017 148.495 178.316 148.666C177.646 148.829 177.64 149.303 177.762 150.013C177.101 149.941 176.701 149.558 176.206 149.143C175.707 150.355 174.656 149.351 174.074 150.374C173.317 149.433 172.831 149.692 171.891 148.773C171.938 149.156 171.984 149.54 172.03 149.923C171.296 149.776 170.97 149.238 170.345 149.95C169.737 148.773 167.896 150.45 166.951 149.313C166.529 150.753 163.741 150.409 162.563 150.434C161.519 150.456 160.746 150.367 159.727 150.619C158.825 150.842 157.576 151.073 156.729 150.971C156.175 150.905 155.57 150.799 154.88 150.877C153.885 150.989 153.026 151.525 151.995 151.272C150.444 150.89 149.493 148.769 151.221 147.838C152.404 147.2 154.534 147.436 155.835 147.318C157.992 147.123 160.41 146.714 162.569 146.9C164.254 147.045 165.79 146.627 167.508 146.45C168.803 146.317 170.923 146.078 171.767 147.413C172.091 147.023 172.058 146.211 172.756 146.412ZM149.144 164.683C148.912 163.482 158.773 162.821 159.752 162.742C161.807 162.578 163.867 162.46 165.927 162.406C167.62 162.361 169.2 162.697 170.894 162.427C172.476 162.174 174.385 161.656 175.761 162.822C175.964 161.228 181.899 162.004 183.029 162.009C187.945 162.027 192.649 162.039 197.404 161.722C200.121 161.542 203.007 161.298 205.724 161.439C206.951 161.503 207.938 161.843 209.157 161.548C209.952 161.356 210.809 160.955 211.569 161.521C212.459 162.184 212.839 164.434 212.226 165.374C211.78 166.058 211.385 165.982 210.671 165.864C209.574 165.682 208.76 165.418 207.641 165.882C207.823 165.807 206.892 166.023 206.969 166.016C205.702 166.115 203.965 167.036 202.874 165.974C203.311 166.054 203.946 165.242 203.395 165.175C202.981 165.125 202.718 165.587 202.395 165.741C201.29 166.271 200.724 166.105 200.064 164.995C198.733 166.194 198.59 165.862 198.006 164.386C197.556 164.746 197.459 165.599 197.105 165.879C197.052 165.921 197.27 166.439 197.015 166.417C196.777 166.397 196.7 165.993 196.517 165.961C196.401 165.94 196.34 165.585 196.229 165.564C196.108 165.541 195.983 165.767 195.847 165.761C195.481 165.743 194.435 166.553 194.81 165.416C194.256 166.149 194.017 165.682 193.817 165.014C193.177 165.52 192.538 166.026 191.898 166.532C191.6 165.672 191.088 165.906 190.444 166.207C190.638 165.609 190.516 165.043 190.029 165.459C189.747 165.7 189.558 166.464 189.269 166.788C188.101 165.557 187.676 165.895 186.062 166.055C185.446 166.116 184.681 166.234 184.131 165.847C183.647 165.506 183.373 164.257 182.546 165.267C182.73 165.042 182.441 166.766 182.39 167.04C182.025 166.784 181.715 166.469 181.46 166.096C180.984 167.077 179.734 166.197 178.71 166.397C177.097 166.713 175.434 167.244 174.009 165.995C173.908 166.399 172.742 166.912 172.74 166.928C172.809 166.214 173.242 166.465 172.358 166.329C172.195 166.304 172.011 166.609 171.857 166.642C171.33 166.756 170.714 166.648 170.183 166.632C167.974 166.566 165.951 167.076 163.769 167.26C163.034 167.322 162.162 167.445 161.471 167.156C160.76 166.858 160.779 166.521 160.06 166.712C160.287 166.652 159.61 167.393 159.647 167.365C159.55 167.438 159.146 167.076 159.003 167.104C158.961 167.262 158.919 167.419 158.877 167.577C158.704 167.555 158.53 167.533 158.357 167.511C157.882 167.577 157.454 167.077 157.009 167.06C157.091 167.063 155.806 167.561 155.864 167.591C154.967 167.126 155.225 167.261 154.087 167.544C153.011 167.812 151.94 167.75 150.837 167.917C147.626 168.402 149.539 166.728 149.144 164.683ZM146.309 181.385C145.705 180.495 147.311 180.186 147.824 180.108C148.668 179.978 149.787 180.236 150.349 180.096C151.205 179.884 152.032 179.379 152.996 179.241C154.212 179.068 155.438 179.04 156.659 178.932C157.066 178.895 157.57 178.75 157.965 178.774C158.555 178.811 158.8 179.136 159.276 179.138C160.086 179.142 161.087 178.61 161.917 178.512C162.981 178.386 164.056 178.328 165.125 178.272C167.377 178.156 169.607 178.204 171.858 178.201C172.885 178.2 175.62 177.091 176.132 178.334C176.844 177.392 178.669 177.521 179.687 177.493C181.48 177.445 183.255 177.265 185.046 177.179C186.58 177.104 188.294 177.446 189.8 177.207C190.63 177.075 190.905 176.798 191.847 176.923C192.546 177.015 193.612 176.631 194.213 176.801C194.182 176.792 194.962 177.295 194.719 177.311C194.987 177.293 194.971 177.488 195.267 177.401C195.655 177.288 195.477 176.779 196.281 176.599C197.536 176.317 199.21 176.643 200.514 176.571C201.779 176.501 203.042 176.471 204.309 176.477C204.891 176.479 205.612 176.335 206.179 176.453C206.457 176.511 207.048 176.888 207.283 176.85C207.951 176.742 208.291 176.259 209.193 176.289C210.215 176.323 211.136 176.308 212.153 176.227C213.137 176.149 213.295 176.003 213.783 176.855C214.267 177.701 214.401 178.802 213.51 179.377C214.089 179.338 214.8 180.144 214.118 180.59C213.697 180.865 212.853 180.243 212.349 180.288C211.728 180.344 211.24 180.685 210.564 180.706C209.853 180.729 209.132 180.915 208.431 180.929C207.701 180.944 207.149 180.605 206.456 180.749C205.847 180.877 205.783 181.397 205.049 180.94C204.684 180.713 204.623 179.872 204.125 179.865C203.459 179.854 203.725 180.75 203.341 181.165C203.238 179.884 202.288 182.004 201.91 180.449C201.561 180.965 200.271 181.688 199.647 181.273C199.077 180.895 199.266 180.039 199.029 179.422C198.634 180.53 197.574 181.68 197.67 179.662C197.155 180.322 195.764 180.217 196.112 181.372C195.693 181.363 195.594 180.74 195.241 180.693C194.936 180.652 194.694 180.896 194.648 180.892C194.815 180.907 194.149 181.138 194.138 181.14C194.589 181.044 192.838 180.882 193.136 180.885C192.729 180.881 192.232 181.228 191.757 181.226C191.324 181.225 190.893 181.048 190.466 180.997C189.358 180.865 189.588 181.119 188.893 181.481C188.635 181.615 188.571 181.842 188.205 181.814C187.935 181.793 187.834 181.426 187.803 181.423C187.423 181.383 187.704 181.251 187.114 181.312C187.047 181.433 186.979 181.554 186.912 181.675C186.699 181.958 186.422 182.029 186.083 181.888C185.211 182.082 182.318 182.927 182.601 181.364C182.158 181.589 181.714 181.815 181.271 182.04C181.081 180.78 178.672 182.451 178.134 182.535C177.444 182.643 177.38 182.368 176.727 182.221C176.61 182.194 176.374 182.598 176.098 182.54C175.382 182.391 175.254 182.316 175.132 181.507C174.621 182.5 174.197 182.056 173.271 182.219C173.066 182.256 172.935 182.675 172.641 182.603C172.429 182.551 172.423 182.148 172.277 182.096C172.145 182.048 172.165 181.73 171.971 181.685C171.749 181.633 170.992 182.279 170.774 182.379C170.284 182.604 169.479 182.976 169.001 182.865C168.409 182.727 168.672 182.271 167.836 182.322C166.518 182.402 165.967 183.57 165.147 181.73C164.777 182.467 164.824 182.667 164.229 182.911C163.79 183.09 162.676 182.903 162.098 182.88C159.627 182.785 157.197 183.662 154.746 183.432C153.669 183.331 152.761 183.107 151.674 183.29C150.531 183.483 149.414 183.767 148.255 183.881C147.666 183.939 146.435 184.115 146.146 183.331C145.891 182.641 146.841 182.171 146.309 181.385ZM151.155 209.682C147.95 211.914 145.295 214.962 142.352 217.542C139.401 220.13 137.06 223.005 134.406 225.871C131.952 228.519 129.698 231.025 126.732 233.026C124.855 234.293 123.181 235.851 121.252 237.046C119.808 237.94 117.62 239.117 118.325 236.381C119.047 233.577 120.381 230.743 121.538 228.125C123.184 224.403 124.842 220.715 126.623 217.064C127.292 215.692 127.667 214.326 128.728 213.233C129.883 212.044 130.692 210.491 131.956 209.367C137.276 204.641 145.293 208.292 151.155 209.682ZM161.211 211.285C159.756 212.078 158.129 212.275 156.588 212.799C155.275 213.246 154.054 214.041 152.642 214.1C153.928 213.095 155.032 211.73 156.481 210.968C158.112 210.11 159.591 210.734 161.211 211.285ZM225.03 217.895C219.682 216.017 214.702 213.25 209.493 211.023C208.594 210.638 201.561 208.228 201.704 207.08C206.632 206.141 211.708 204.528 216.648 206.286C221.142 207.886 224.797 211.722 228.276 214.933C229.184 215.771 234.798 219.586 234.295 220.801C233.948 221.643 231.243 221.413 230.604 221.241C229.779 221.017 229.303 220.496 228.656 219.923C227.574 218.967 226.377 218.368 225.03 217.895ZM215.157 186.518C215.969 185.74 216.456 184.559 217.232 183.841C218.229 182.919 219.837 183.368 220.927 183.848C224.198 185.286 226.993 187.704 230.243 189.204C233.845 190.867 236.963 193.09 240.212 195.38C243.181 197.474 246.392 199.207 249.423 201.205C252.512 203.241 255.97 204.565 259.101 206.529C262.288 208.528 265.462 210.535 268.524 212.738C273.984 216.666 279.67 220.699 283.71 226.284C285.786 229.155 287.73 232.411 289.253 235.634C290.638 238.564 292.14 242.632 290.346 245.68C288.622 248.608 285.684 250.914 283.197 253.098C282.256 253.925 281.36 254.93 280.139 255.288C278.654 255.724 276.922 255.604 275.395 255.732C267.231 256.421 259.625 255.771 251.579 254.251C243.821 252.786 236.031 251.966 228.214 250.947C223.804 250.373 219.394 249.704 215.044 248.747C213.184 248.338 211.292 247.867 209.473 247.309C207.884 246.823 206.547 245.751 204.913 245.327C197.979 243.525 190.044 242.836 183.179 239.804C189.255 237.176 195.711 235.589 201.937 233.406C208.491 231.108 214.891 229.18 221.799 228.527C225.353 228.19 228.534 227.246 231.953 226.257C235.211 225.315 238.613 225.026 241.96 224.604C243.448 224.416 247.696 224.697 248.189 222.672C248.924 219.658 244.75 219.31 242.971 219.58C240.447 219.963 238.366 220.618 236.435 218.464C234.462 216.263 232.546 214.01 230.538 211.837C226.815 207.809 222.977 203.15 217.714 201.342C211.294 199.137 203.848 201.23 197.442 202.484C190.675 203.808 183.919 205.076 177.28 207.002C174.53 207.799 170.984 209.555 168.13 209.273C165.318 208.994 162.132 208.515 159.414 207.671C158.185 207.289 157.174 206.582 156.073 205.922C154.642 205.063 153.075 204.513 151.556 203.846C148.485 202.497 145.492 201.255 142.179 200.725C139.389 200.278 136.427 200.014 133.723 201.031C131.071 202.03 128.72 204.063 126.87 206.235C124.86 208.595 123.198 211.239 121.551 213.876C120.76 215.141 119.794 216.245 118.975 217.482C118.287 218.521 117.886 219.675 117.158 220.685C115.529 222.944 114.423 225.834 113.436 228.462C112.34 231.381 111.121 234.852 111.383 238.027C111.482 239.227 111.585 240.817 112.031 241.93C112.599 243.345 113.408 243.309 114.574 243.843C116.578 244.76 117.139 247.295 119.728 246.801C122.157 246.338 124.263 244.255 126.035 242.595C128.345 240.431 130.555 238.15 132.765 235.877C135.032 233.545 137.267 230.958 139.071 228.214C139.781 227.134 140.335 225.914 141.174 224.93C142.242 223.677 143.442 223.526 144.894 223.027C157.585 218.663 170.337 214.454 183.424 211.573C186.56 210.882 189.72 209.992 192.8 209.073C196.067 208.098 197.759 209.128 200.455 210.983C206.087 214.859 212.745 217.589 219.017 220.118C220.992 220.914 224.136 220.964 225.68 222.535C216.529 223.986 207.808 226.78 198.982 229.562C194.63 230.933 190.229 232.122 185.861 233.433C181.491 234.745 177.287 236.445 172.978 237.924C168.689 239.396 164.156 239.996 159.825 241.354C155.404 242.74 151.002 243.694 146.464 244.536C141.882 245.387 137.332 246.369 132.734 247.13C130.629 247.479 128.524 247.841 126.443 248.321C124.406 248.79 122.438 249.915 120.39 250.175C111.248 251.34 102.285 253.933 93.1784 255.4C86.3786 256.494 74.549 258.021 70.1396 250.921C65.7055 243.781 71.1454 235.452 75.999 230.347C79.0154 227.174 82.405 224.382 85.9612 221.898C89.7671 219.239 93.4288 216.368 97.2354 213.713C105.85 207.705 115.191 202.805 124.447 197.978C128.889 195.661 133.181 193.176 137.503 190.633C139.648 189.371 140.835 191.407 142.53 192.791C143.864 193.88 146.312 196.564 148.178 195.324C148.25 195.77 148.322 196.217 148.394 196.664C148.94 196.405 149.487 196.146 150.033 195.886C150.4 196.889 150.357 197.511 151.383 198.037C152.013 198.36 153.356 198.749 153.957 198.18C154.079 198.576 154.202 198.971 154.324 199.367C154.849 199.325 154.951 197.762 155.05 197.396C155.949 198.764 157.193 199.906 158.774 200.292C158.782 200.203 158.517 199.08 158.529 199.073C159.029 198.754 159.66 200.119 159.925 200.412C160.804 201.38 161.329 201.23 162.3 200.448C162.37 200.528 162.699 201.421 162.747 201.405C162.957 201.335 163.356 200.544 163.4 200.472C163.34 201.513 165.27 201.722 165.952 201.499C165.799 201.194 165.646 200.889 165.493 200.584C167.868 200.254 168.8 202.88 171.079 202.746C172.764 202.648 171.413 202.264 172.366 201.513C173.199 200.857 173.348 202.292 173.43 202.247C173.589 202.074 173.712 201.875 173.799 201.65C174.107 202.879 176.562 203.982 176.308 201.961C177.274 202.363 177.96 203.03 179.028 203.171C180.327 203.342 181.715 203.055 183.01 202.943C185.803 202.701 188.435 202.108 190.952 200.777C192.444 199.988 194.032 199.272 195.435 198.319C196.609 197.522 198.836 195.103 200.399 196.145C199.999 194.916 201.883 196.055 201.943 194.472C202.246 194.709 202.549 194.946 202.851 195.184C203.033 194.77 202.982 194.117 203.225 193.756C203.559 193.26 203.722 193.552 204.007 193.273C204.325 192.962 204.603 192.126 204.985 191.888C205.378 191.643 205.841 191.935 206.265 191.721C206.909 191.395 209.682 188.213 209.213 190.939C210.405 190.518 209.486 190.132 209.635 189.305C209.934 187.648 210.662 188.841 211.387 188.985C212.575 189.222 212.551 188.201 213.213 187.458C213.818 186.78 214.954 186.476 214.563 185.298C215.01 185.549 215.105 186.041 215.157 186.518ZM143.573 151.126C142.637 152.211 141.937 151.747 140.897 151.588C140.785 151.2 140.595 151.146 140.326 151.427C140.018 151.611 139.687 151.732 139.332 151.79C138.479 152.009 137.593 151.916 136.759 152.247C136.783 151.957 137.076 151.44 136.888 151.144C136.011 151.776 135.467 152.178 134.389 152.19C133.516 152.199 131.984 151.505 131.259 152.335C131.237 152.012 131.214 151.689 131.192 151.366C130.837 151.55 130.528 151.796 130.265 152.105C130.216 151.627 130.188 151.265 129.884 150.878C129.307 152.113 128.676 152.142 127.555 151.67C127.712 151.736 126.433 150.956 126.482 151.172C126.078 149.399 132.459 149.546 133.129 149.476C134.802 149.3 136.475 149.198 138.151 149.037C139.74 148.885 140.926 148.627 142.026 150.007C141.536 148.014 146.172 148.113 143.573 151.126ZM70.408 120.218C70.5838 123.231 71.2281 126.434 70.1024 129.334C69.1974 131.665 67.3921 134.297 65.4474 135.819C61.4653 138.933 58.0901 135.122 57.5358 130.933C56.9581 126.564 58.1033 121.226 61.718 118.532C63.8778 116.923 65.9692 117.034 68.456 117.563C69.04 117.688 69.9881 117.64 70.322 118.244C70.4003 118.385 70.3301 120.215 70.408 120.218ZM123.296 160.363C122.608 160.724 121.888 160.936 121.282 161.427C121.071 161.598 120.999 161.987 120.776 162.131C120.369 162.393 119.788 162.219 119.364 162.435C118.662 162.792 118.159 163.303 117.325 163.631C116.086 164.12 115 164.79 113.83 165.425C111.879 166.484 109.786 167.392 107.747 168.254C106.717 168.689 103.87 169.537 103.969 171.105C103.739 171.17 103.503 170.646 103.023 170.687C102.363 170.744 101.491 171.539 100.806 171.734C99.524 172.099 98.5318 172.132 98.5318 173.832C98.1239 173.544 98.0202 172.838 97.4774 172.744C96.8666 172.639 96.6095 173.325 96.1208 173.538C95.5452 173.79 94.8296 173.549 94.2596 173.816C94.0102 174.09 93.7333 174.33 93.4284 174.534C93.1184 174.571 92.8099 174.562 92.5028 174.504C91.2929 174.771 90.1793 175.245 88.9664 175.491C87.7845 175.731 86.9751 175.819 87.4719 177.273C86.2075 177.531 85.8986 176.134 84.4721 176.645C82.7234 177.271 81.0891 177.722 79.2636 178.104C78.3328 178.298 77.3601 178.733 76.4223 178.835C75.7534 178.908 75.1289 178.659 74.4703 178.736C73.6763 178.829 73.0382 179.212 72.2167 179.226C71.4374 179.24 70.6191 179.094 69.8538 178.951C69.9619 179.272 70.0973 179.58 70.2598 179.874C69.7306 179.759 69.4864 179.097 69.0378 178.999C68.567 178.896 68.1452 179.402 67.7532 179.29C67.5862 179.242 67.6973 178.706 67.3987 178.604C67.1265 178.511 67.0118 178.621 66.7419 178.577C66.6518 178.562 65.5228 178.498 65.3429 178.597C65.0285 178.771 65.3466 179.096 65.2841 179.144C64.2224 179.962 64.2095 179.52 63.7362 178.666C63.0411 177.412 62.203 178.204 60.9398 177.984C59.532 177.74 58.4229 178.386 57.0372 178.294C55.5426 178.195 53.7862 177.031 52.4649 176.351C49.6114 174.884 46.829 173.495 44.4327 171.272C39.7482 166.926 35.9372 161.582 33.6902 155.464C31.2759 148.891 30.8184 142.036 31.0122 135.063C31.1288 130.87 31.4513 126.678 32.0864 122.534C32.5237 119.683 32.6152 114.617 35.7037 113.318C36.2347 119.994 34.5592 126.796 35.6158 133.428C35.9339 135.425 36.7098 138.087 38.1783 139.567C40.3525 141.757 40.8611 138.591 41.0578 136.842C41.4237 133.594 42.1037 130.364 42.5851 127.132C43.0661 123.901 43.4059 120.634 44.0749 117.437C44.3187 116.271 46.2855 107.735 47.7289 108.139C47.4369 114.349 46.6613 120.452 46.6308 126.685C46.6186 129.185 46.4035 131.826 46.7503 134.31C46.9287 135.587 48.047 139.338 49.9704 139.025C51.7503 138.736 49.7935 136.094 49.6273 135.076C49.1871 132.379 49.7482 129.024 50.1587 126.347C50.9354 121.282 52.6682 116.095 55.5007 111.862C58.0375 108.072 61.9434 104.463 66.6488 105.132C68.6594 105.417 70.2278 105.937 71.2381 107.848C72.0306 109.347 75.1528 111.051 73.3435 112.928C71.6963 114.637 69.0323 113.269 67.2012 112.862C64.9594 112.363 62.5568 112.963 60.682 114.33C57.4652 116.675 55.632 120.868 55.0336 124.801C54.2271 130.103 56.3829 143.982 64.3231 140.871C69.5979 138.805 73.5707 131.372 73.1279 125.681C72.9503 123.403 72.0946 119.078 75.123 118.463C79.0028 117.675 79.5508 122.126 79.158 125.018C78.5869 129.226 76.4503 133.138 74.0058 136.465C71.8754 139.364 69.3974 141.177 66.8338 143.572C66.0748 144.281 64.1389 145.874 64.464 147.193C64.8203 148.638 67.8628 149.049 69.0812 149.286C75.1079 150.461 81.9044 149.38 87.9209 148.561C100.287 146.875 112.49 142.725 122.63 135.093C123.039 139.815 123.556 144.521 123.746 149.26C123.838 151.56 123.862 153.894 124.114 156.182C124.27 157.589 124.832 159.555 123.296 160.363ZM89.0076 176.816C88.5222 177.08 89.047 175.482 88.912 176.01C89.6372 176.281 89.6692 176.549 89.0076 176.816ZM140.304 119.673C141.075 118.789 143.181 116.686 143.849 118.682C144.097 117.831 144.13 116.571 145.09 117.72C145.472 116.308 149.687 116.441 150.731 116.378C154.075 116.179 157.432 116.073 160.763 115.727C167.609 115.017 174.574 115.383 181.445 115.36C182.933 115.355 184.417 115.271 185.894 115.496C187.319 115.712 188.817 116.321 190.27 116.098C191.561 115.901 192.408 115.53 193.737 115.689C195.328 115.878 196.873 116.013 198.477 116.007C205.576 115.98 212.671 116.28 219.772 116.291C221.155 116.293 222.813 116.012 224.112 116.624C224.593 116.851 225.118 117.605 225.485 117.688C225.907 117.783 225.656 117.099 226.22 117.408C226.975 117.821 226.391 119.092 225.892 119.293C226.19 119.172 225.353 119.054 225.437 119.049C225.039 119.071 224.7 119.389 224.273 119.369C223.623 119.339 223.079 118.926 222.554 118.563C222.546 118.711 222.834 119.7 222.505 119.75C222.222 119.794 221.957 118.818 221.929 118.591C220.34 120.05 218.657 119.237 216.686 119.421C215.288 119.553 212.373 120.523 211.398 119.004C211.357 119.327 211.233 119.61 211.025 119.853C210.746 120.294 210.505 120.257 210.301 119.739C210.232 119.742 209.553 119.896 209.54 119.895C209.062 119.855 208.442 119.677 207.956 119.633C207.204 119.567 207.342 120.137 206.743 120.146C206.415 120.151 205.581 119.659 205.01 119.628C204.021 119.574 203.012 120.011 202.036 119.879C201.365 119.788 200.758 119.219 200.099 119.197C199.278 119.169 199.012 119.82 198.362 118.905C198.229 118.867 198.146 119.406 198.093 119.415C198.106 119.413 197.474 119.51 197.4 119.54C197.27 119.592 196.765 119.833 196.611 119.835C196.279 119.842 196.099 119.594 195.747 119.589C195.165 119.578 193.306 120.112 193.358 118.991C191.281 119.792 189.508 119.48 187.375 119.669C186.396 119.756 185.782 119.62 184.851 119.433C183.685 119.199 182.911 119.493 181.748 119.553C180.631 119.61 180.279 119.118 179.336 118.673C178.964 118.498 178.718 118.267 178.262 118.365C178.002 118.42 178.187 118.876 178.11 118.907C177.709 119.068 177.429 118.898 176.88 118.937C175.865 119.009 175.461 119.891 174.418 119.063C174.765 119.019 175.111 118.975 175.458 118.931C174.461 118.491 173.145 118.267 173.386 119.869C172.536 119.745 173.272 119.142 172.854 118.926C172.436 118.711 171.967 119.071 171.441 119.249C170.05 119.719 168.891 119.486 167.441 119.402C165.793 119.306 161.939 120.705 160.759 118.888C160.724 119.271 160.329 120.338 159.803 120.287C159.632 120.271 160.11 119.139 160.164 119.019C159.893 119.619 158.658 119.733 158.049 120.044C158.118 119.722 158.186 119.399 158.254 119.077C157.689 119.704 157.414 119.321 156.749 119.531C156.459 119.622 156.038 120.246 155.79 120.284C155.5 119.934 155.136 119.784 154.698 119.833C154.406 119.757 154.114 119.742 153.823 119.788C152.656 119.876 151.592 120.551 150.432 120.092C149.427 119.693 149.038 118.669 148.439 120.299C148.281 120.009 148.124 119.719 147.966 119.43C147.772 119.744 147.578 120.058 147.383 120.373C146.623 119.854 146.576 119.554 145.701 119.745C145.496 119.83 145.285 119.818 145.07 119.709C145.018 119.869 144.967 120.028 144.915 120.187C144.895 120.589 144.78 120.721 144.572 120.585C144.397 120.519 144.239 120.42 144.098 120.287C143.519 120.333 142.78 120.491 142.159 120.404C141.919 120.37 140.416 119.544 140.304 119.673ZM158.016 108.885C158.084 108.994 158.152 109.103 158.22 109.212C157.28 109.728 157.059 109.432 156.962 108.395C157.421 108.404 157.5 109.244 158.016 108.885ZM158.598 108.277C159.05 108.485 159.569 108.893 159.995 108.346C160.282 109.214 158.151 110.398 158.598 108.277ZM161.52 108.66C162.47 109.328 160.191 108.791 160.195 108.792C160.605 108.399 161.046 108.355 161.52 108.66ZM169.69 104.934C170.016 106.645 170.915 106.596 172.365 105.801C174.48 104.641 174.837 102.742 174.985 100.473C175.126 98.2988 175.382 97.4569 177.536 97.911C179.04 98.2279 180.313 97.9616 181.829 97.9179C183.447 97.8715 184.017 98.1287 184.147 99.8615C184.278 101.597 184.574 102.914 185.784 104.235C187.014 105.577 188.654 106.379 190.253 107.13C191.075 107.515 191.846 107.931 192.756 108.014C193.108 108.047 194.942 107.806 194.981 108.409C195.009 108.864 192.469 110.144 192.2 110.297C191.022 110.964 189.847 111.562 188.561 111.966C185.601 112.895 182.462 112.95 179.396 112.894C174.452 112.803 167.62 110.627 164.664 106.062C166.339 105.686 168.015 105.31 169.69 104.934ZM169.247 90.1194C168.465 89.4362 167.958 88.4042 167.308 87.5953C166.981 87.1872 166.741 87.0573 166.429 86.853C166.1 86.6381 165.915 86.9423 165.641 86.4369C164.933 85.1306 167.118 83.2924 164.801 82.7896C164.017 82.6191 162.131 83.2655 161.902 82.0968C161.578 80.444 164.609 80.336 165.322 79.4972C166.741 77.8295 165.778 75.0022 166.642 73.0782C167.459 71.2557 169.57 70.9319 171.235 70.3843C173.556 69.6217 175.905 69.1795 178.262 68.5691C179.909 68.1426 182.647 66.4285 184.175 67.9429C181.817 68.4879 183.188 69.3432 184.759 69.826C186.54 70.3732 188.427 70.5866 190.271 70.7391C192.17 70.8959 194.106 70.9258 195.982 70.5318C197.717 70.1674 199.655 68.5978 201.474 68.9998C200.465 70.8265 197.458 71.8244 195.63 72.303C194.699 72.5467 194.103 72.4704 194.228 73.6787C194.349 74.8497 195.327 76.0238 195.548 77.2436C195.84 78.858 195.585 80.3413 195.033 81.8596C194.49 83.3533 194.363 83.5483 194.838 84.9757C195.577 87.1983 193.988 89.6546 192.518 91.2686C186.577 97.7945 175.205 95.3225 169.247 90.1194ZM184.345 51.1167C184.349 51.1581 184.369 51.1834 184.345 51.1167V51.1167ZM186.196 67.5858C185.95 67.7774 184.531 68.179 184.59 67.6019C184.669 66.8286 185.948 67.108 186.196 67.5858ZM189.43 51.9647C189.097 51.7064 188.165 51.8126 188.846 50.8335C189.068 51.2642 189.249 51.6145 189.43 51.9647ZM167.051 45.7757C167.475 44.628 167.945 43.5604 168.136 42.3388C168.254 41.5862 168.02 40.7266 169.031 40.6086C167.742 40.0239 167.729 37.7159 167.653 36.5195C167.548 34.8718 167.048 32.6657 167.744 31.1321C168.458 29.5568 169.422 29.5828 169.713 31.459C169.827 32.1936 169.391 32.4312 169.309 32.9427C169.147 33.9548 169.469 33.7329 170.097 32.9619C170.356 33.7455 170.455 34.9231 171.509 34.8733C171.439 34.6614 171.035 34.1939 171.17 33.9306C171.377 33.5263 172.389 34.1441 172.518 34.2376C173.442 34.9105 173.643 35.5247 172.983 36.3735C173.896 36.4758 173.13 37.3074 173.719 37.5243C174.618 37.855 174.015 36.2881 173.918 36.0125C174.465 36.2348 174.648 36.4885 174.995 36.9383C175.198 37.2487 175.384 37.571 175.55 37.9044C175.737 38.5129 176.12 38.6654 176.701 38.3619C177.865 38.7421 179.472 38.6827 180.516 39.3471C180.993 39.6506 181.165 40.3147 181.563 40.5669C182.011 40.8508 182.611 40.722 183.092 40.9002C182.916 41.3164 183.059 41.5417 183.519 41.577C183.877 41.6111 184.224 41.695 184.559 41.8283C184.809 41.6318 185.082 41.4766 185.376 41.3635C185.574 41.7264 185.854 41.8161 186.215 41.6333C187.289 41.8425 187.805 42.2652 188.487 42.8971C189.1 43.4642 188.601 43.5102 189.272 43.46C189.542 43.4397 190.014 42.9638 190.631 43.0565C190.986 43.1285 191.328 43.2423 191.658 43.3979C192.014 43.7152 192.393 43.7551 192.793 43.5179C193.443 43.8486 193.507 44.4345 194.299 44.5146C195.176 44.6035 194.894 43.4661 195.496 45.0702C196.307 43.3696 196.604 46.0788 197.441 46.2976C198.308 46.5244 198.401 45.7929 199.143 46.5923C199.366 46.8318 199.353 47.2276 199.603 47.4817C200.012 47.8974 200.566 47.8143 200.922 48.3814C200.723 48.0649 200.968 49.503 200.964 49.4555C201.019 50.0901 200.478 50.8009 201.588 50.7469C201.575 50.8136 201.042 51.6225 200.938 51.5309C200.913 51.4386 200.891 51.3451 200.874 51.2504C200.755 51.3037 200.702 52.0743 200.724 52.2103C200.818 52.2257 200.857 52.1529 200.84 51.9919C200.657 52.5863 200.932 52.9637 200.582 53.5278C200.357 53.8884 199.744 54.1593 199.417 54.3819C198.63 54.9192 197.86 55.458 197.092 56.0297C195.301 57.3632 193.296 58.9711 191.041 59.2493C192.174 58.0921 198.69 53.7125 195.421 52.4552C194.815 52.2222 193.712 52.0015 193.078 51.9525C192.289 51.8915 191.474 52.3613 190.605 52.0682C189.555 51.7149 189.95 50.6883 189.309 50.32C187.948 49.5387 188.27 51.3761 187.841 51.8574C187.391 51.3658 187.487 51.1267 186.777 51.0822C186.055 51.037 185.884 51.731 185.042 51.2987C183.882 50.7028 184.496 49.5161 182.85 49.4881C182.878 49.2275 183.117 48.4994 182.803 48.2964C182.379 48.8677 182.707 49.5065 182.314 50.0564C182.117 50.3323 181.691 50.5522 181.379 50.6415C180.65 50.85 180.546 51.2493 180.665 50.1062C180.124 51.1198 178.466 50.7028 177.48 50.6009C175.877 50.435 174.174 50.1192 172.637 49.5843C171.215 49.0892 170.456 48.2389 169.284 47.4652C168.841 47.1724 168.629 47.2843 167.994 47.1027C167.366 46.9234 166.755 46.5758 167.051 45.7757ZM170.433 27.8293C170.675 27.6776 170.849 29.9419 170.556 30.365C170.019 29.4809 169.067 28.1842 170.433 27.8293ZM171.206 26.9261C171.984 26.1931 171.444 28.0865 171.301 28.4041C171.013 28.2118 170.724 28.0194 170.436 27.827C170.804 27.5921 170.896 27.2185 171.206 26.9261ZM200.569 23.8747C207.759 25.4451 214.883 28.3804 220.65 33.211C225.903 37.6109 229.611 43.8535 231.689 50.494C233.847 57.3866 233.122 65.0337 227.989 70.3088C225.285 73.0874 221.714 74.7639 218.311 76.3998C216.68 77.1834 215.001 77.8364 213.364 78.602C212.188 79.1519 210.753 80.0317 209.411 79.8792C210.096 79.1297 211.089 79.1143 211.917 78.656C212.918 78.1019 213.735 77.0385 214.598 76.279C215.455 75.5249 217.354 73.1502 218.671 73.725C218.488 72.4601 219.873 71.8727 220.497 71.0384C221.157 70.1559 221.204 69.124 222.421 68.835C221.114 67.7713 221.514 65.7649 221.798 64.3167C222.162 62.4647 222.33 60.7645 222.474 58.8799C222.732 55.4821 222.94 51.1539 221.136 48.1668C220.551 47.197 219.805 46.3056 219.283 45.2982C218.654 44.0842 218.793 43.0155 218.793 41.6846C217.642 42.4894 217.399 40.8485 216.913 40.0488C216.548 39.4487 216.069 39.1134 215.951 38.3585C215.866 37.809 216.439 37.7162 216.125 37.1403C215.74 37.443 215.586 37.9121 215.391 38.3474C215.035 38.1995 215.455 37.6844 215.251 37.517C215.245 37.5124 214.559 37.2024 214.593 37.2472C214.152 36.6651 214.01 35.6991 213.794 35.0063C212.985 35.4324 213.137 35.3822 212.235 34.6702C212.076 34.5449 211.282 33.9693 211.208 33.7812C210.859 32.9014 211.47 33.4225 211.299 32.8764C210.808 31.308 208.053 31.6046 207.834 29.2544C206.491 30.1423 205.978 28.8843 205.184 27.9895C204.37 27.0729 203.004 26.7204 203.077 25.2665C202.654 25.4171 202.232 25.5673 201.809 25.7171C202.029 24.3756 200.114 24.461 199.42 23.7805C199.805 23.7854 200.188 23.8169 200.569 23.8747ZM201.664 106.967C202.33 106.347 202.128 107.172 202.557 107.078C202.923 106.997 202.996 106.708 203.347 106.62C204.796 106.256 206.962 106.713 208.486 106.635C210.25 106.544 213.275 106.925 214.116 109.074C214.622 110.368 213.849 109.928 212.998 109.832C212.337 109.757 211.75 109.896 211.097 109.889C210.773 109.941 210.452 109.936 210.131 109.874C209.974 109.766 209.882 109.615 209.853 109.421C208.944 109.277 207.978 109.837 206.972 109.865C205.628 109.902 204.433 109.634 203.412 108.69C203.006 109.32 202.73 109.632 202 109.702C201.981 109.704 201.268 109.405 201.157 109.376C201.011 109.336 200.642 109.655 200.36 109.564C200.86 108.736 200.933 107.647 201.664 106.967ZM293.444 114.444C293.682 113.586 293.88 112.716 294.096 111.851C297.413 115.781 300.316 121.042 301.622 126.083C302.471 129.358 303.791 135.292 299.746 136.982C296.451 138.358 294.614 133.425 293.78 130.996C291.939 125.633 291.939 119.901 293.444 114.444ZM145.037 52.8637C145.079 52.8549 142.889 54.1804 143.611 53.107C143.901 52.6755 145 52.3721 145.488 52.3721L145.037 52.8637ZM142.93 53.4255C142.677 53.6473 142.421 53.8665 142.163 54.0827C141.915 53.6749 141.667 53.2672 141.419 52.8595C141.907 52.6449 143.983 52.484 142.93 53.4255ZM141.387 94.6377C140.928 94.3147 140.565 94.4864 140.428 95.0286C140.428 94.489 140.698 93.2356 141.112 93.0896C141.38 92.9949 140.221 91.5675 140.547 91.1939C141.376 91.6879 140.88 92.1611 141.122 92.7987C141.232 93.0865 141.561 93.3586 141.633 93.5797C141.755 93.9549 142.25 95.2451 141.387 94.6377ZM139.142 91.4257C138.673 91.5507 139.494 92.3569 139.494 92.7133C139.493 92.9827 139.182 93.1896 139.054 93.5582C138.776 94.3572 139.254 94.8968 138.466 95.5064C138.466 93.756 137.338 89.1177 139.507 88.2647C138.449 87.3976 139.318 86.3966 140.147 87.4343C140.944 88.4322 140.436 91.0809 139.142 91.4257ZM138.012 84.5182C137.586 82.9448 136.302 82.3945 134.836 82.4876C134.891 81.6822 135.478 80.5207 135.902 81.9726C136.076 81.5434 136.197 80.9836 136.594 80.6992C137.263 82.882 140.598 84.0879 138.521 86.453C138.352 85.8081 138.187 85.162 138.012 84.5182ZM134.136 82.6049C126.414 83.1877 115.571 84.8554 109.391 78.6947C105.362 74.6777 105.577 68.4219 108.833 63.9588C110.692 61.4121 113.228 59.6187 115.776 57.9104C116.759 57.2509 117.592 56.8156 118.672 56.4366C118.846 56.4171 119.011 56.4577 119.164 56.5585C119.225 56.2872 119.372 56.0864 119.606 55.9553C120.022 55.7231 120.616 55.6404 120.856 55.1583C120.6 56.0634 120.468 56.9953 120.374 57.9319C120.166 57.6797 119.958 57.4276 119.751 57.1755C119.577 58.8811 117.869 57.8487 116.85 58.0618C117.522 59.029 118.002 59.3804 118.06 60.6587C117.559 59.6977 116.514 59.0658 115.541 58.7561C116.069 60.3817 116.443 61.3466 115.911 63.1292C115.269 62.7475 115.225 61.8309 114.446 61.6114C114.241 62.6744 114.204 63.8538 113.941 64.8854C111.946 63.9385 112.141 66.4887 112.942 67.7506C113.368 68.4219 113.577 69.1991 113.957 69.8436C114.889 71.4243 114.181 69.0604 115.217 69.1726C114.984 70.8399 114.904 71.0059 116.076 72.2267C117.22 73.4173 117.814 75.0693 119.037 76.1879C119.392 75.7165 118.834 75.2233 118.786 74.7723C119.924 74.9712 120.458 76.1595 121.553 75.1068C122.03 76.0752 122.547 77.1416 123.69 77.3405C122.934 75.8453 125.141 76.8592 125.707 77.0715C126.137 77.2325 126.906 77.3604 127.072 77.4225C128.004 77.7731 127.365 77.1439 127.931 78.2931C128.762 78.0322 129.076 77.3145 130.07 77.9207C130.878 78.4139 130.88 79.2584 131.065 80.1237C131.257 79.5577 131.452 78.9921 131.665 78.4338C131.882 78.5288 132.792 79.5711 132.693 79.5761C134.823 79.4673 134.747 80.8437 134.136 82.6049ZM123.293 54.3881C123.721 54.0758 124.243 54.4915 124.723 54.3796C125.388 54.2252 125.766 53.6324 126.509 53.5688C126.302 54.2562 125.914 54.1919 125.586 54.7318C125.474 54.9157 125.532 55.3572 125.433 55.4629C124.601 56.3504 124.313 55.6262 123.463 54.9544C123.537 55.7645 123.687 56.0205 122.953 56.2378C122.29 56.4347 121.194 55.7093 120.859 55.1529C121.141 54.5651 122.781 54.7621 123.293 54.3881ZM128.592 53.122C129.313 53.1936 128.445 55.4078 127.411 53.2599C127.8 53.1718 128.194 53.1258 128.592 53.122ZM132.3 52.6939C133.437 52.4525 137.231 51.3275 137.653 53.1699C137.729 53.1239 138.011 52.0839 138.142 52.2107C138.667 52.7192 138.726 53.3933 138.686 54.0995C138.051 52.7231 138.277 53.9321 137.846 53.8378C137.734 53.8129 137.562 54.0313 137.278 53.9413C136.905 53.8228 136.638 52.9971 136.402 52.7173C136.01 53.2998 135.524 54.0497 134.739 53.9991C134.183 53.9635 133.288 52.4744 134.008 54.1045C133.585 53.9593 133.096 53.6305 132.625 53.6964C132.098 53.7703 131.824 54.3118 131.33 54.3992C130.235 54.5923 130.07 53.4956 129.359 52.9001C130.34 52.8407 131.332 52.8993 132.3 52.6939ZM139.181 52.6763C139.261 52.2985 140.256 52.146 140.509 52.2659C141.128 52.5583 140.899 52.9442 140.785 53.5864C140.326 53.3603 139.868 53.1346 139.409 52.9085C140.094 54.0566 138.853 54.2233 139.181 52.6763ZM331.815 119.925C331.734 117.173 331.657 114.374 330.987 111.696C330.518 109.821 329.366 106.46 327.186 106.134C323.9 105.644 322.08 112.404 321.159 114.725C320.975 111.992 321.136 109.084 320.144 106.491C319.35 104.413 317.345 102.445 315.617 104.779C314.08 106.856 313.785 109.922 313.38 112.42C312.856 115.658 312.541 118.921 312.158 122.179C310.657 119.16 310.395 115.704 309.208 112.566C308.089 109.605 306.327 106.777 304.629 104.143C303.244 101.992 301.558 99.9692 299.386 98.654C297.496 97.5094 294.192 96.2713 292.391 98.1723C290.887 99.7584 291.123 101.881 291.201 103.882C291.236 104.774 291.37 105.385 290.617 105.834C290.247 106.055 289.669 105.941 289.262 106.059C288.607 106.249 288.104 106.572 287.55 107C283.663 110.007 281.871 115.425 281.317 120.256C280.615 126.376 282.907 131.623 284.88 137.223C285.195 138.115 286.193 140.009 286.055 141.005C285.904 142.097 284.587 142.125 283.699 142.148C281.016 142.217 278.211 142.009 275.542 141.749C269.186 141.13 262.834 137.945 257.143 135.102C256.105 134.583 254.636 134.286 253.788 133.469C252.991 132.701 252.781 131.47 252.094 130.589C250.406 128.427 249.33 126.583 246.845 125.277C244.314 123.947 241.731 122.718 239.262 121.262C236.208 119.46 233.386 117.177 230.46 115.16C225.021 111.411 219.619 107.302 213.853 104.115C211.174 102.633 208.18 102.393 205.398 101.18C202.689 99.9994 199.364 99.9979 196.537 100.744C195.16 101.107 194.223 101.969 192.957 102.531C191.472 103.19 190.262 102.463 188.956 101.676C186.96 100.474 184.982 98.5161 187.824 97.2197C188.788 96.7798 189.996 96.6131 190.838 95.9214C191.735 95.1845 192.456 93.825 193.186 92.9018C194.808 90.8498 195.777 88.4874 198.152 87.2113C200.779 85.8 203.892 85.416 206.692 84.4937C209.726 83.4947 212.696 82.3068 215.674 81.1403C221.038 79.0388 226.615 76.7699 230.47 72.144C233.795 68.1529 235.244 63.0016 235.11 57.7694C234.835 47.0732 229.33 36.2179 221.431 29.5304C211.745 21.3299 199.423 18.5954 187.188 18.7387C181.446 18.8062 174.594 19.5883 169.802 23.2191C165.664 26.3552 164.976 31.8403 165.591 36.7916C165.841 38.8011 166.695 41.4528 165.333 43.2236C164.571 44.2141 163.203 44.4594 162.177 45.0771C160.887 45.8531 159.749 46.5969 158.288 47.0073C152.082 48.7516 145.545 48.1442 139.199 48.0477C128.628 47.8867 117.793 50.8653 109.907 58.6174C103.539 64.877 101.629 76.6806 109.396 82.7831C115.671 87.7129 125.514 87.1707 132.913 86.3108C135.207 86.0437 136.785 85.6559 136.79 88.5774C136.796 91.7687 136.288 95.1041 137.07 98.2371C138.302 103.171 142.858 103.289 146.885 102.226C149.011 101.666 151.065 100.823 153.083 99.9397C156.043 98.6448 158.757 96.7407 161.68 95.4482C163.662 94.5722 165.146 97.4052 166.903 95.4413C167.228 95.0784 167.288 94.5373 167.778 94.3515C168.546 94.0606 169.834 95.0807 170.507 95.4034C171.515 95.8866 172.532 96.2418 172.935 97.4052C173.312 98.4935 173.146 100.224 172.785 101.298C172.001 103.631 169.889 103.17 167.96 103.014C164.597 102.742 161.257 102.164 157.895 101.922C154.878 101.704 152.053 102.642 149.452 104.19C143.987 107.442 139.516 112.613 134.778 116.866C132.34 119.055 129.982 121.419 127.33 123.325C126.177 124.154 124.929 124.916 123.926 125.946C122.932 126.968 122.823 127.897 122.483 129.256C121.877 131.677 118.869 132.86 116.989 134.137C114.33 135.943 111.511 137.218 108.53 138.326C102.218 140.673 95.8556 142.311 89.2562 143.522C86.0251 144.116 82.8209 144.505 79.5582 144.826C76.7459 145.102 73.7553 146.003 70.9464 145.283C71.7555 143.917 73.189 143.097 74.3055 142.041C75.7449 140.681 76.9692 139.068 78.0585 137.397C80.1789 134.144 81.6661 130.653 82.0078 126.707C82.3156 123.155 81.9625 118.907 79.9035 115.907C79.1922 114.87 77.7852 114.588 77.1486 113.655C76.5157 112.727 76.757 111.129 76.4105 110.047C75.5283 107.295 72.9102 103.884 70.6062 102.286C68.1066 100.551 64.45 99.914 61.5624 100.818C56.213 102.493 52.9271 108.442 50.4793 113.251C49.1422 110.322 51.3815 105.978 48.7693 103.58C46.5661 101.557 44.8174 105.476 44.0804 107.152C40.6213 115.022 39.8358 123.369 38.3864 131.789C37.7958 131.183 38.0985 129.628 38.154 128.906C38.2574 127.56 38.2478 126.24 38.2504 124.889C38.2574 121.476 38.8671 118.047 38.5876 114.637C38.4262 112.666 37.8223 108.51 35.0704 109.164C32.7366 109.72 31.2748 113.135 30.5415 115.224C29.4838 118.235 29.2396 121.217 29.3054 124.399C29.3783 127.914 28.7347 131.372 28.5788 134.883C28.2757 141.702 28.5751 148.462 30.4551 155.043C33.5335 165.82 40.6117 174.774 50.0586 180.181C55.2635 183.16 61.0376 185.045 66.9743 185.45C70.1914 185.67 73.2971 185.271 76.4867 184.925C79.6343 184.584 82.7985 184.426 85.9406 184.025C92.9382 183.132 99.7568 180.826 106.117 177.724C109.465 176.09 112.614 174.086 115.907 172.344C117.228 171.646 118.121 170.772 119.249 169.801C120.367 168.838 120.676 168.763 121.948 168.763C121.575 167.724 122.663 167.404 123.147 166.747C123.12 167.066 123.093 167.384 123.066 167.703C123.435 166.869 123.779 166.877 124.097 167.727C124.411 166.775 124.644 165.797 125.024 164.87C126.475 165.634 126.353 167.452 128.294 166.125C129.893 165.032 131.363 163.744 132.992 162.674C136.704 160.235 139.905 157.062 143.628 154.652C143.628 156.999 143.787 159.368 143.485 161.704C143.199 163.925 142.402 166.001 141.768 168.127C140.599 172.05 140.518 176.243 139.224 180.127C138.688 181.735 137.292 183.08 136.892 184.646C136.484 186.243 137.426 187.523 135.847 188.572C134.733 189.311 133.341 189.623 132.108 190.07C130.227 190.753 128.441 191.716 126.61 192.532C118.022 196.362 109.644 200.263 101.687 205.413C94.1356 210.3 86.4687 215.347 79.5317 221.151C73.5111 226.188 67.4252 232.701 65.9597 240.918C64.5375 248.888 68.3265 257.443 75.9347 260.068C79.8906 261.433 84.3629 261.264 88.4825 261.323C92.9154 261.386 97.6128 260.275 101.971 259.47C106.574 258.62 111.098 257.291 115.714 256.532C120.143 255.804 124.205 254.177 128.561 253.174C133.201 252.106 137.96 251.527 142.626 250.566C144.726 250.133 146.784 249.495 148.89 249.095C151.196 248.656 153.527 248.492 155.811 247.911C160.24 246.785 164.48 244.969 168.929 243.921C170.929 243.449 172.898 242.818 174.898 242.378C176.741 241.973 178.176 240.895 180.022 241.78C181.513 242.495 182.703 243.721 184.114 244.575C185.945 245.682 187.875 246.674 189.783 247.627C193.618 249.543 197.596 250.866 201.605 252.304C205.817 253.815 209.953 255.537 214.317 256.535C218.79 257.557 223.354 257.842 227.858 258.651C237.083 260.307 246.229 261.05 255.593 261.11C260.326 261.141 265.058 260.557 269.78 260.626C273.96 260.688 277.595 261.668 281.417 259.355C287.525 255.66 294.609 250.093 294.459 242.007C294.323 234.684 290.102 227.687 286.143 221.911C281.335 214.897 274.48 209.958 267.761 205.119C260.601 199.963 252.558 196.4 245.032 191.899C241.183 189.597 237.634 187.12 233.454 185.484C231.459 184.704 229.513 183.798 227.542 182.958C225.955 182.281 223.664 181.908 222.307 180.785C221.459 180.085 221.378 179.025 221.154 177.984C220.659 175.68 219.88 173.495 219.125 171.273C217.668 166.983 216.7 162.613 216.074 158.114C215.477 153.824 214.152 149.363 214.838 145.004C219.352 149.548 223.99 153.916 228.608 158.34C230.339 159.998 232.038 161.69 233.778 163.338C235.084 164.575 236.717 166.412 238.538 166.779C240.863 167.248 240.014 164.571 241.61 164.157C242.586 163.904 245.528 166.484 246.3 166.993C251.19 170.224 256.604 172.271 261.982 174.471C267.622 176.776 273.422 178.825 279.49 179.405C285.095 179.942 290.827 179.253 296.236 177.664C307.009 174.499 314.936 166.989 320.753 157.254C327.382 146.161 332.206 133.166 331.815 119.925Z" fill="black"/>
<path fill-rule="evenodd" clip-rule="evenodd" d="M167.175 95.7422C167.173 95.7455 167.157 95.7821 167.157 95.7821C167.177 95.7674 167.183 95.7543 167.175 95.7422Z" fill="black"/>
<path fill-rule="evenodd" clip-rule="evenodd" d="M167.695 95.8852C167.655 95.5318 167.568 95.1859 167.434 94.8472C167.078 95.4356 166.759 95.6876 167.227 96.3107C167.383 96.1689 167.539 96.0271 167.695 95.8852Z" fill="black"/>
<path fill-rule="evenodd" clip-rule="evenodd" d="M192.536 179.981C192.935 179.539 192.237 179.373 191.972 179.367C191.998 179.841 191.773 180.976 192.396 181.196C192.246 180.767 192.293 180.362 192.536 179.981Z" fill="black"/>
<path fill-rule="evenodd" clip-rule="evenodd" d="M182.013 87.5454C181.328 88.9232 182.842 89.3506 183.719 88.685C184.379 88.1846 184.769 86.9089 184.877 86.0904C185.227 83.4418 183.447 80.9209 182.559 78.5709C182.329 77.9634 182.015 75.8803 181.276 75.8229C180.427 75.7572 180.365 77.6759 180.354 78.171C180.321 79.6639 180.701 81.1843 181.146 82.5935C181.625 84.1127 182.814 85.9363 182.013 87.5454Z" fill="black"/>
<path fill-rule="evenodd" clip-rule="evenodd" d="M185.274 82.0194C187.909 84.4614 190.017 80.3942 189.833 77.9883C189.787 77.3922 189.4 75.1946 188.314 75.9944C187.768 76.3962 188.233 77.7019 187.973 78.2751C186.713 81.0546 185.499 76.7435 184.651 76.4048C183.618 75.9925 183.514 77.4046 183.516 78.1594C183.518 79.6575 184.203 81.0272 185.274 82.0194Z" fill="black"/>
<path fill-rule="evenodd" clip-rule="evenodd" d="M175.708 82.3989C176.329 81.3817 177.092 80.0174 177.177 78.7987C177.308 76.9046 176.247 77.0626 175.374 78.3843C174.757 79.3178 174.295 80.9013 172.934 80.5078C171.253 80.0224 171.767 77.6708 170.826 76.5532C168.45 79.8741 172.946 86.9252 175.708 82.3989Z" fill="black"/>
<path fill-rule="evenodd" clip-rule="evenodd" d="M179.269 92.5613C180.252 92.7823 182.813 92.7007 181.926 91.135C180.806 89.1626 177.084 92.0693 179.269 92.5613Z" fill="black"/>
<path fill-rule="evenodd" clip-rule="evenodd" d="M213.691 33.7446C213.871 33.1872 213.623 33.086 213.195 32.647C212.788 33.0371 213.309 33.4475 213.691 33.7446Z" fill="black"/>
<path fill-rule="evenodd" clip-rule="evenodd" d="M232.018 134.71C232.666 134.818 232.875 134.461 232.643 133.64C231.62 133.571 231.412 133.928 232.018 134.71Z" fill="black"/>
<path fill-rule="evenodd" clip-rule="evenodd" d="M196.621 48.5813C197.336 48.9215 197.062 49.6195 197.049 50.2095C197.418 49.7929 198.162 49.0314 197.859 48.4331C197.392 47.5105 196.173 48.3684 196.621 48.5813Z" fill="black"/>
<path fill-rule="evenodd" clip-rule="evenodd" d="M172.266 36.9696C172.157 36.7483 172.048 36.527 171.939 36.3057C171.495 36.6765 170.809 37.6572 171.515 38.1351C171.804 37.7697 172.054 37.3812 172.266 36.9696Z" fill="black"/>
<path fill-rule="evenodd" clip-rule="evenodd" d="M180.845 43.4784C181.734 44.2045 181.308 41.976 181.281 41.7939C181.148 42.0554 180.395 43.1117 180.845 43.4784Z" fill="black"/>
<path fill-rule="evenodd" clip-rule="evenodd" d="M180.352 42.3467C180.284 42.1626 180.215 41.9785 180.147 41.7939C179.787 42.1414 179.345 42.851 179.941 43.2575C180.104 42.9728 180.241 42.6693 180.352 42.3467Z" fill="black"/>
<path fill-rule="evenodd" clip-rule="evenodd" d="M186.001 49.9997C186.074 50.0695 186.147 50.1393 186.219 50.2095C186.513 49.5935 186.179 49.1307 185.625 49.1118C185.664 49.4577 185.79 49.7537 186.001 49.9997Z" fill="black"/>
<path fill-rule="evenodd" clip-rule="evenodd" d="M162.163 119.301C162.516 119.051 162.837 118.766 163.125 118.446C162.081 117.781 162.706 119.221 161.449 118.337C161.178 118.727 161.621 119.599 162.163 119.301Z" fill="black"/>
<path fill-rule="evenodd" clip-rule="evenodd" d="M206.052 179.733C206.449 179.099 206.52 179.117 205.978 178.635C205.526 179.419 205.573 179.218 206.052 179.733Z" fill="black"/>
<path fill-rule="evenodd" clip-rule="evenodd" d="M123.047 78.7764C123.263 79.0111 123.479 79.2458 123.696 79.4801C123.796 79.1731 124.347 78.3055 123.973 78.0166C123.665 78.2699 123.356 78.5231 123.047 78.7764Z" fill="black"/>
<path fill-rule="evenodd" clip-rule="evenodd" d="M130.737 81.0983C130.392 81.0383 129.566 80.7762 129.375 81.1102C129.88 81.5409 131.02 81.1476 130.737 81.0983Z" fill="black"/>
</svg>
