<svg width="60" height="60" viewBox="0 0 60 60" fill="none" xmlns="http://www.w3.org/2000/svg">
<path fill-rule="evenodd" clip-rule="evenodd" d="M20.5078 27.5266C20.6918 30.0033 20.8758 32.48 21.0597 34.9567C22.0614 34.1947 23.063 33.4326 24.0646 32.6705V38.3129V39.796C24.0646 39.9272 24.0062 40.378 24.0646 40.4916C24.1142 40.588 24.4812 40.5907 24.568 40.607C25.1343 40.7127 25.702 40.8068 26.2705 40.8905C27.7688 41.1111 29.3724 41.4272 30.8764 41.1736C32.1838 40.9533 33.4512 40.3333 34.6457 39.6118C35.065 39.3586 35.4785 39.0875 35.8843 38.7978C35.9704 38.7364 36.2827 38.5914 36.3295 38.4664C36.3677 38.3642 36.278 38.0054 36.2661 37.898C36.2156 37.4455 36.1651 36.9929 36.1147 36.5404L35.4097 30.221L36.7414 31.9941C36.8457 32.1329 37.0438 32.5273 37.1882 32.5889C37.294 32.634 37.5561 32.4943 37.6607 32.4675C38.4147 32.2737 39.1688 32.08 39.9228 31.8863C40.0984 31.8411 40.4944 31.8428 40.6425 31.7013C40.7222 31.6251 40.7259 31.47 40.7541 31.3231C40.938 30.3624 41.1219 29.4018 41.3058 28.4411C41.3389 28.2681 41.5238 27.7225 41.4768 27.5483C41.4599 27.4858 41.3783 27.4431 41.3284 27.4024C40.1904 26.4757 39.0523 25.5489 37.9143 24.622C37.2909 24.1143 36.6674 23.6066 36.044 23.0989C35.7829 22.8862 35.4621 22.5031 35.1662 22.3841C34.9825 22.3102 34.7153 22.3656 34.5252 22.3583C34.1389 22.3436 33.7527 22.3289 33.3664 22.3142C33.3059 22.3119 33.0941 22.2544 33.0432 22.302C33.0008 22.3415 33.0184 22.3966 33.0045 22.4908C32.9705 22.7209 32.9703 22.969 32.9536 23.2026C32.9401 23.3901 32.9668 23.7339 32.9034 23.9035C32.863 24.012 32.9143 23.9688 32.8595 24.0212C32.7944 24.0836 32.5862 24.0635 32.5086 24.0755C32.1301 24.1341 31.7516 24.1927 31.3731 24.2514C30.9231 24.321 30.4681 24.4518 30.0159 24.3915C29.3305 24.3003 28.5915 24.3048 27.9184 24.1123C27.7435 24.0623 27.6805 23.9309 27.5456 23.7512C27.2822 23.4006 27.0215 23.046 26.7553 22.699C26.6248 22.529 26.6807 22.5579 26.5462 22.6224C26.3776 22.7031 26.2067 22.8981 26.0541 23.022C25.4695 23.4968 24.8849 23.9716 24.3003 24.4464L20.7312 27.3452C20.6567 27.4057 20.5823 27.4661 20.5078 27.5266Z" fill="#633B55"/>
<path fill-rule="evenodd" clip-rule="evenodd" d="M54.6454 27.8346C53.9097 31.5589 52.43 35.6198 49.4488 36.8068C48.724 37.0954 48.0189 37.3133 47.2661 37.2034C47.1945 37.193 47.1345 37.2064 47.0664 37.2081C46.9443 37.2112 47.0498 37.2697 46.9128 37.2133C46.806 37.1694 46.7061 37.0594 46.5948 37.0108C46.299 36.8818 45.9836 36.8568 45.683 36.7526C44.9443 36.4963 44.183 36.18 43.4672 35.8266C43.1302 35.6603 42.8204 35.4285 42.5034 35.2057C42.1811 34.9792 41.8396 34.8385 41.5137 34.6308C41.2561 34.4666 40.8149 34.2525 40.6338 33.9445C40.4408 33.616 40.7079 32.9167 40.7842 32.5675C41.0439 31.3792 41.3531 30.2083 41.5483 28.9964C42.2221 30.0376 43.1574 30.6825 44.1255 31.0984C44.6509 31.324 45.1913 31.4872 45.7377 31.5893C46.2338 31.6819 46.769 31.7941 47.2663 31.6625C47.6417 31.5632 48.1129 31.3331 48.381 30.9511C48.4767 30.8147 48.5915 30.5647 48.5379 30.3666C48.4698 30.115 48.2716 30.2334 48.1642 30.0457C48.0708 29.8823 48.0854 29.4999 48.0556 29.3008C48.0029 28.9485 47.9305 28.6058 47.8422 28.2667C47.6707 27.6082 47.4569 26.9482 47.4057 26.2475C47.3612 25.6396 47.465 25.0647 47.6925 24.5372C47.7999 24.2878 48.0699 23.6094 48.3333 23.6375C48.6226 23.6685 48.2325 25.2941 48.2197 25.6257C48.1691 26.9403 48.3014 28.341 48.8073 29.4932C49.001 29.9344 49.2812 30.4481 49.6947 30.5027C50.1328 30.5606 50.4862 30.101 50.6947 29.636C51.2035 28.5015 50.947 26.9449 50.6893 25.7558C50.3732 24.297 49.5482 23.2915 49.0266 21.9814C49.8054 22.0858 50.2225 22.7454 50.6221 23.5824C51.0622 24.5038 51.4048 25.6101 51.5737 26.6822C51.659 27.2239 51.6001 27.7678 51.6007 28.3148C51.6009 28.4965 51.6008 29.167 51.823 29.1405C52.0605 29.1123 52.1419 28.3562 52.1769 28.1255C52.2569 27.5965 52.3435 27.0673 52.413 26.5357C52.5361 25.595 52.5908 24.6315 52.7381 23.6974C52.763 23.5394 52.8126 23.1013 52.9899 23.2196C53.1266 23.3107 53.1047 23.9883 53.1097 24.1458C53.122 24.534 53.1392 24.9221 53.1416 25.3106C53.1451 25.8865 53.0589 26.4826 53.1012 27.0549C53.1288 27.4289 53.2793 27.8421 53.4659 27.3378C53.651 26.8376 53.6887 26.2138 53.7919 25.6759C53.9003 25.1112 54.0122 24.5381 54.2423 24.0365C54.3061 23.8973 54.3747 23.6764 54.5165 23.7419C54.6195 23.7895 54.6956 24.1151 54.7275 24.2301C54.8712 24.7495 54.8468 25.327 54.8377 25.8708C54.8266 26.5371 54.773 27.1886 54.6454 27.8346ZM40.2987 28.8011C40.2595 28.7841 40.0924 28.763 40.051 28.7582C40.0025 28.7525 40.0576 28.6332 39.9401 28.6672C39.9627 28.7422 40.003 28.7921 40.061 28.8173C39.8843 28.897 39.754 28.7002 39.6332 28.6748C39.5176 28.6506 39.5127 28.6748 39.3986 28.8376C39.275 28.6366 39.2982 28.762 39.1966 28.762C39.1596 28.7621 39.158 28.8366 39.0978 28.8277C39.0453 28.8198 39.0398 28.7136 39.0087 28.7011C38.8401 28.633 38.6666 28.9753 38.4754 28.6784C38.4291 28.9874 37.8982 28.6004 37.6939 28.6547C37.4798 28.7115 37.5722 28.8138 37.3992 28.6389C37.2343 28.4722 37.2803 28.5829 37.0885 28.7193C37.093 28.7161 36.9802 28.8177 36.9907 28.8193C36.858 28.7986 36.8655 28.6156 36.6974 28.6253C36.5194 28.6356 36.4434 28.8216 36.2806 28.5927C36.2452 28.7642 36.2379 28.6903 36.1544 28.7335C36.1085 28.748 36.0683 28.7319 36.0339 28.6853C36.0235 28.7324 36.0005 28.7613 35.965 28.7719C35.8742 28.7828 35.7035 28.7997 35.621 28.7413C35.4971 28.6537 35.5967 28.6201 35.5107 28.5216C35.4723 28.7932 35.3879 28.7354 35.2099 28.7608C35.0741 28.7802 35.0442 28.7246 34.9145 28.6976C34.7868 28.6711 34.6217 28.7372 34.4971 28.7653C34.4457 28.777 34.3768 28.8248 34.3244 28.808C34.2772 28.7929 34.257 28.744 34.2288 28.7313C34.1946 28.7159 34.2019 28.676 34.1428 28.6567C34.102 28.6434 34.029 28.6944 33.9882 28.7032C33.6978 28.766 33.4188 28.7667 33.1417 28.6143C33.2782 28.9341 32.8227 28.7615 32.7415 28.6291C32.64 28.8411 32.5172 28.6914 32.3126 28.708C32.1156 28.7239 31.8193 28.8043 31.7395 28.4772C31.7238 28.5437 31.612 28.7367 31.5676 28.7661C31.4384 28.8515 31.423 28.7252 31.303 28.6738C31.1395 28.6038 31.1736 28.7367 31.0723 28.7637C30.9012 28.8093 30.8088 28.6487 30.6576 28.5634C30.6512 28.6961 30.6479 28.7777 30.5619 28.8604C30.4856 28.4903 30.2136 28.8907 30.2603 28.396C30.1568 28.4859 30.0111 28.5549 29.9817 28.7367C30.1548 28.6732 30.0001 28.8241 29.9929 28.829C29.97 28.845 29.8927 28.7003 29.8748 28.68C29.8699 28.7482 29.865 28.8165 29.8601 28.8847C29.7912 28.8387 29.7264 28.7564 29.6705 28.7152C29.62 28.678 29.6923 28.6007 29.6071 28.5954C29.5622 28.5925 29.5154 28.7222 29.4682 28.7332C29.3961 28.7501 29.4308 28.6122 29.4006 28.6169C29.3546 28.6239 29.2798 28.7135 29.2451 28.7118C29.1311 28.7062 29.2082 28.6355 29.1213 28.6031C28.9659 28.545 28.9759 28.6805 28.8642 28.7294C28.6087 28.8412 28.6344 28.3266 28.3745 28.6698C28.3122 28.752 28.2722 28.8788 28.187 28.8717C28.0106 28.857 28.0725 28.5781 28.1084 28.4415C28.1455 28.4659 27.4638 28.9328 27.4692 28.9146C27.4734 28.8025 27.5807 28.7162 27.4848 28.6168C27.4065 28.8409 27.3241 28.8448 27.1434 28.8866C27.0556 28.9069 27.0383 28.9339 26.9443 28.8853C26.8844 28.8543 26.8442 28.727 26.7847 28.72C26.7927 28.721 26.6834 28.8318 26.6668 28.8418C26.5682 28.9011 26.5058 28.8339 26.41 28.8583C26.3283 28.879 26.2961 28.9717 26.2148 28.9463C26.1063 28.9125 26.1701 28.7398 26.0208 28.788C25.9698 28.8044 25.9391 28.9355 25.8587 28.9626C25.7334 29.0049 25.5798 28.926 25.4474 28.9672C25.3423 28.9999 25.2643 29.0137 25.1723 29.0205C25.0981 29.0261 25.1286 28.9491 24.992 29.04L24.934 28.8452C24.8656 28.9272 24.7971 29.0092 24.7287 29.0913C24.7157 29.0177 24.7075 28.9433 24.704 28.8678C24.602 29.0041 24.4734 29.0274 24.3362 29.0397C24.1877 29.0529 24.077 29.0961 23.9325 29.1324C23.8867 29.1437 23.769 29.162 23.7315 29.1407C23.737 29.1438 23.6612 29.1018 23.684 29.1098C23.6742 29.083 23.665 29.0559 23.6566 29.0282C23.6438 28.9513 23.6023 28.9479 23.5323 29.0181C23.496 29.0106 23.4257 28.9472 23.3895 28.9628C23.2963 29.0031 23.309 29.0996 23.2161 29.0854C23.1558 29.0762 23.125 28.9574 23.0623 28.9493C22.9662 28.9371 22.883 29.0804 22.7965 29.1117C23.0596 29.0164 22.4552 29.0903 22.6431 29.0969C22.5199 29.0926 22.392 29.0844 22.2781 29.1581C22.2152 29.1007 22.2916 28.9854 22.228 28.938C22.1704 28.8949 22.1659 29.0086 22.1592 29.0111C22.1955 28.9974 22.1774 29.0941 22.141 29.1113C22.0276 29.1648 21.9369 29.0286 21.931 28.8934C21.8347 29.0868 21.8076 29.0091 21.6659 29.021C21.5262 29.0328 21.4057 29.1305 21.2659 29.1287C20.9894 29.1252 20.8018 28.997 20.7094 28.6679C21.0041 28.7157 21.3006 28.4631 21.5887 28.5226C21.6834 28.5422 21.7425 28.637 21.8255 28.6202C21.9277 28.5995 21.999 28.4508 22.1301 28.4347C22.4191 28.3995 22.7041 28.4339 22.9951 28.3748C23.3428 28.3042 23.7055 28.2624 24.0565 28.2967C24.3277 28.3233 24.5473 28.185 24.8224 28.1584C25.178 28.1239 25.5365 28.1178 25.8928 28.0929C26.2588 28.0673 26.6526 27.9894 27.0176 28.0144C27.1316 28.0221 27.2296 28.037 27.3427 28.0279C27.3905 28.0241 27.4358 27.9808 27.486 27.9873C27.5514 27.9957 27.5794 28.0849 27.6472 28.0818C27.7624 28.0765 27.8856 27.95 28.0225 27.9465C28.2477 27.9409 28.4719 27.9415 28.6976 27.9244C28.8964 27.9094 29.1093 27.8475 29.3072 27.8509C29.4468 27.8532 29.4812 28.0117 29.5625 28.0281C29.7088 28.0575 30.4486 27.4962 30.5125 27.9999C30.8977 27.6485 31.4142 27.9461 31.8429 27.8801C32.3937 27.7952 32.9545 27.8708 33.5089 27.8406C34.0731 27.8099 34.6536 27.8384 35.2156 27.9093C35.4484 27.9387 35.6732 27.9662 35.9067 27.9484C36.0107 27.9405 36.131 27.905 36.2351 27.937C36.2603 27.9448 36.4533 28.1244 36.4293 28.1296C36.5348 28.0034 36.4634 27.9849 36.6489 27.9784C36.7918 27.9734 36.927 28.0146 37.0692 28.0258C37.3243 28.0459 37.5814 27.9988 37.836 28.0092C38.0486 28.0179 38.2564 28.0597 38.4701 28.0617C38.7004 28.0639 38.9724 28.0726 39.1391 28.3202C39.1215 28.2425 39.104 28.1647 39.0863 28.087C39.3434 28.1138 39.5975 28.2362 39.8574 28.179C39.7917 28.2629 39.7249 28.3316 39.6998 28.4547C39.84 28.431 39.9349 28.3006 40.0824 28.2995C40.2064 28.2985 40.2322 28.3814 40.363 28.2743C40.3792 28.4055 40.3952 28.5368 40.4113 28.6679C40.5926 28.6111 40.4737 28.4309 40.4869 28.2685C40.6342 28.3275 40.7589 28.2597 40.7009 28.5423C40.6561 28.7601 40.4522 28.8674 40.2987 28.8011ZM40.0441 31.2273C39.9809 31.464 39.4343 31.3288 39.305 31.3037C39.138 31.2715 38.9469 31.2204 38.7932 31.195C38.7747 31.1622 38.7526 31.1344 38.7268 31.1115C38.7075 31.1474 38.683 31.1729 38.6534 31.1879C38.5828 31.2085 38.5826 31.3057 38.4898 31.2842C38.4855 31.428 38.5604 31.3463 38.6178 31.3985C38.4731 31.5278 38.5393 31.3789 38.4581 31.3813C38.438 31.3433 38.41 31.3284 38.3741 31.3366C38.3284 31.3524 38.2862 31.3785 38.2477 31.4149C38.2115 31.4658 38.1805 31.4684 38.1547 31.4228C38.13 31.3897 38.0999 31.3692 38.0643 31.3614C37.9218 31.3924 37.8819 31.4766 37.7215 31.4629C37.4922 31.4432 37.2441 31.5238 37.0184 31.4813C36.8786 31.455 36.6448 31.162 36.5813 31.4477C36.4846 31.2359 36.3306 31.0918 36.238 30.8755C36.6693 30.8423 37.1004 30.8027 37.5321 30.7819C37.91 30.7637 38.3235 30.8204 38.6766 30.7967C39.0075 30.7744 39.3578 30.7257 39.6956 30.6854C40.0537 30.6428 40.1722 30.7475 40.0441 31.2273ZM28.7926 31.2623C28.9492 31.32 29.0983 31.189 29.2502 31.2304C29.3004 31.2441 29.4044 31.366 29.4272 31.3684C29.469 31.3729 29.592 31.2532 29.6447 31.2371C29.9783 31.1359 30.3824 31.1467 30.7159 31.2089C30.8927 31.2418 30.9197 31.134 31.074 31.0816C31.2344 31.0271 31.4623 31.0691 31.6311 31.054C32.0283 31.0186 32.4253 31.0438 32.8198 31.0051C33.2248 30.9653 33.6278 30.9438 34.033 30.916C34.309 30.8971 34.9724 30.6871 35.2011 30.9603C35.3898 31.1856 35.1467 31.5767 34.958 31.666C34.8169 31.7326 34.7493 31.5922 34.6446 31.6056C34.5253 31.6208 34.5668 31.8088 34.4604 31.6345C34.3944 31.8078 33.9797 31.7339 33.8609 31.7453C33.6019 31.7703 33.3828 31.8396 33.2065 31.5175C33.2185 31.6103 33.2304 31.7033 33.2424 31.7962C33.0086 31.6296 32.7577 31.6829 32.5548 31.741C32.4543 31.7697 32.1459 31.9684 32.0371 31.8827C31.9622 31.8238 32.0942 31.723 31.9678 31.6727C31.9015 31.6463 31.7872 31.793 31.7063 31.7856C31.4824 31.7651 31.5459 31.5643 31.3259 31.8198C31.2514 31.7339 31.2266 31.5878 31.2364 31.4626C31.0767 31.6443 31.09 31.9472 30.8043 31.8917C30.6979 31.8711 30.6783 31.7263 30.6228 31.6996C30.5046 31.6427 30.4911 31.745 30.3887 31.826C30.35 31.8565 30.3029 31.9057 30.2574 31.9118C30.1638 31.9243 30.149 31.867 30.1362 31.8689C30.074 31.8781 29.9956 31.9202 29.9217 31.8901C29.8555 31.863 29.8361 31.7071 29.7193 31.7435C29.6076 31.7785 29.6067 31.8797 29.627 32.0311C29.5168 32.0159 29.4501 31.9341 29.3677 31.8455C29.2845 32.1043 29.1093 31.8899 29.0124 32.1083C28.8861 31.9073 28.8052 31.9627 28.6486 31.7664C28.6563 31.8483 28.6639 31.9302 28.6716 32.0121C28.5494 31.9807 28.495 31.8658 28.3908 32.0178C28.2896 31.7665 27.9827 32.1246 27.8251 31.8818C27.7549 32.1893 27.2901 32.1157 27.0938 32.1211C26.9199 32.1258 26.7911 32.1068 26.6211 32.1607C26.4709 32.2083 26.2627 32.2576 26.1215 32.2359C26.0292 32.2216 25.9283 32.199 25.8133 32.2157C25.6475 32.2397 25.5043 32.3541 25.3326 32.3C25.074 32.2185 24.9155 31.7656 25.2035 31.5667C25.4006 31.4306 25.7557 31.481 25.9726 31.4559C26.3321 31.4142 26.7349 31.3269 27.0949 31.3666C27.3757 31.3976 27.6316 31.3082 27.9181 31.2705C28.1338 31.2421 28.4872 31.191 28.6279 31.476C28.6819 31.3928 28.6763 31.2194 28.7926 31.2623ZM24.8573 35.1635C24.8187 34.9072 26.4622 34.766 26.6253 34.7493C26.9678 34.7141 27.3112 34.689 27.6545 34.6773C27.9367 34.6678 28.2001 34.7396 28.4823 34.6818C28.7459 34.6279 29.0641 34.5174 29.2935 34.7662C29.3273 34.4259 30.3166 34.5917 30.5048 34.5927C31.3241 34.5966 32.1081 34.5991 32.9006 34.5315C33.3535 34.4928 33.8345 34.4408 34.2874 34.471C34.4918 34.4847 34.6563 34.5572 34.8595 34.4942C34.992 34.4531 35.1348 34.3676 35.2615 34.4885C35.4099 34.6301 35.4732 35.1105 35.3711 35.3111C35.2967 35.4572 35.2308 35.441 35.1119 35.4157C34.9291 35.3769 34.7933 35.3205 34.6069 35.4196C34.6371 35.4035 34.482 35.4497 34.4949 35.4483C34.2837 35.4694 33.9942 35.666 33.8123 35.4393C33.8851 35.4564 33.9911 35.2829 33.8992 35.2686C33.8302 35.2579 33.7864 35.3565 33.7325 35.3896C33.5483 35.5026 33.4541 35.4672 33.3441 35.2302C33.1222 35.4862 33.0983 35.4154 33.0009 35.1001C32.926 35.1771 32.9099 35.3592 32.8508 35.419C32.8421 35.4279 32.8784 35.5385 32.8358 35.5339C32.7962 35.5297 32.7833 35.4433 32.7529 35.4365C32.7335 35.4321 32.7233 35.3563 32.7048 35.3517C32.6846 35.3467 32.6639 35.3951 32.6411 35.3937C32.5801 35.3898 32.4058 35.5628 32.4683 35.3201C32.3759 35.4767 32.3362 35.3768 32.3029 35.2343C32.1962 35.3424 32.0896 35.4505 31.9829 35.5585C31.9333 35.3747 31.848 35.4248 31.7406 35.4889C31.773 35.3613 31.7527 35.2405 31.6716 35.3293C31.6246 35.3807 31.593 35.5438 31.5449 35.6131C31.3502 35.3502 31.2794 35.4223 31.0104 35.4565C30.9077 35.4695 30.7801 35.4948 30.6884 35.4121C30.6078 35.3394 30.5622 35.0727 30.4243 35.2882C30.455 35.2403 30.4069 35.6084 30.3983 35.6669C30.3375 35.6122 30.2859 35.545 30.2433 35.4653C30.1639 35.6747 29.9556 35.4868 29.7849 35.5296C29.5161 35.597 29.2389 35.7105 29.0015 35.4438C28.9847 35.5299 28.7903 35.6396 28.79 35.6429C28.8015 35.4905 28.8737 35.5441 28.7263 35.5151C28.6992 35.5098 28.6685 35.5748 28.6429 35.582C28.555 35.6062 28.4524 35.5832 28.3639 35.5798C27.9957 35.5657 27.6586 35.6745 27.2949 35.7139C27.1723 35.7272 27.0269 35.7533 26.9118 35.6917C26.7933 35.6281 26.7965 35.556 26.6766 35.5969C26.7145 35.584 26.6016 35.7422 26.6078 35.7362C26.5916 35.7518 26.5243 35.6747 26.5004 35.6805C26.4934 35.7142 26.4865 35.7479 26.4795 35.7816C26.4506 35.7769 26.4217 35.7721 26.3928 35.7674C26.3137 35.7815 26.2424 35.6748 26.1681 35.6712C26.1818 35.6719 25.9676 35.7782 25.9774 35.7846C25.8279 35.6852 25.8708 35.714 25.6811 35.7746C25.5019 35.8318 25.3234 35.8184 25.1394 35.8541C24.6044 35.9577 24.9232 35.6002 24.8573 35.1635ZM24.3848 38.73C24.2842 38.5397 24.5519 38.474 24.6374 38.4572C24.778 38.4295 24.9645 38.4845 25.0582 38.4547C25.2009 38.4095 25.3386 38.3015 25.4993 38.2722C25.702 38.2352 25.9063 38.2292 26.1099 38.2061C26.1777 38.1983 26.2616 38.1672 26.3276 38.1724C26.4258 38.1803 26.4667 38.2496 26.546 38.2501C26.6811 38.251 26.8478 38.1373 26.9862 38.1164C27.1636 38.0896 27.3427 38.077 27.5208 38.0653C27.8962 38.0404 28.2678 38.0507 28.643 38.0501C28.8142 38.0498 29.2699 37.813 29.3553 38.0785C29.4739 37.8773 29.7782 37.9047 29.9479 37.8989C30.2467 37.8887 30.5424 37.8502 30.841 37.8317C31.0966 37.8159 31.3823 37.8888 31.6334 37.8377C31.7717 37.8096 31.8176 37.7505 31.9745 37.7772C32.0911 37.7969 32.2687 37.7147 32.3688 37.7511C32.3636 37.7492 32.4937 37.8566 32.4531 37.86C32.4978 37.8562 32.4952 37.8978 32.5444 37.8793C32.6092 37.855 32.5794 37.7465 32.7135 37.7079C32.9227 37.6478 33.2017 37.7174 33.419 37.702C33.6299 37.687 33.8403 37.6805 34.0514 37.6818C34.1486 37.6824 34.2687 37.6515 34.3632 37.6768C34.4096 37.6891 34.508 37.7697 34.5472 37.7616C34.6585 37.7385 34.7151 37.6354 34.8655 37.6418C35.0359 37.649 35.1893 37.6459 35.3588 37.6286C35.5229 37.6119 35.5492 37.5806 35.6306 37.7627C35.7112 37.9433 35.7334 38.1784 35.585 38.3011C35.6815 38.2927 35.8 38.4648 35.6864 38.56C35.6162 38.6189 35.4755 38.4861 35.3915 38.4956C35.288 38.5075 35.2067 38.5805 35.094 38.585C34.9755 38.5898 34.8553 38.6296 34.7385 38.6326C34.6168 38.6358 34.5248 38.5633 34.4094 38.5942C34.3078 38.6214 34.2971 38.7323 34.1748 38.6349C34.1141 38.5864 34.1038 38.4069 34.0209 38.4052C33.9098 38.4029 33.9541 38.5943 33.8902 38.6829C33.8731 38.4093 33.7146 38.8621 33.6516 38.5299C33.5936 38.6402 33.3786 38.7945 33.2744 38.7059C33.1795 38.6252 33.211 38.4424 33.1715 38.3107C33.1056 38.5473 32.929 38.7929 32.945 38.362C32.8592 38.5028 32.6273 38.4806 32.6854 38.727C32.6155 38.7252 32.599 38.5922 32.5401 38.5821C32.4894 38.5734 32.4491 38.6255 32.4413 38.6247C32.4691 38.6278 32.3581 38.677 32.3564 38.6775C32.4315 38.6572 32.1396 38.6225 32.1893 38.623C32.1216 38.6223 32.0386 38.6963 31.9595 38.696C31.8873 38.6958 31.8155 38.6579 31.7443 38.6471C31.5596 38.6189 31.5981 38.673 31.4822 38.7503C31.4392 38.779 31.4284 38.8275 31.3674 38.8214C31.3224 38.817 31.3056 38.7386 31.3005 38.738C31.2372 38.7295 31.284 38.7012 31.1857 38.7143C31.1744 38.7401 31.1632 38.7659 31.1519 38.7917C31.1164 38.8523 31.0704 38.8674 31.0139 38.8372C30.8685 38.8788 30.3863 39.0591 30.4335 38.7253C30.3596 38.7734 30.2857 38.8216 30.2118 38.8698C30.1801 38.6007 29.7787 38.9575 29.689 38.9755C29.5739 38.9985 29.5633 38.9397 29.4545 38.9083C29.4349 38.9027 29.3956 38.9889 29.3497 38.9766C29.2303 38.9446 29.2091 38.9287 29.1886 38.7559C29.1035 38.968 29.0328 38.8732 28.8785 38.908C28.8443 38.9158 28.8225 39.0054 28.7735 38.9899C28.7382 38.9788 28.7372 38.8927 28.7128 38.8816C28.6909 38.8715 28.6942 38.8036 28.6619 38.794C28.6249 38.7828 28.4986 38.9209 28.4624 38.9421C28.3807 38.9902 28.2465 39.0696 28.1668 39.0458C28.0682 39.0164 28.1121 38.919 27.9727 38.9299C27.7529 38.9471 27.6613 39.1965 27.5245 38.8035C27.4628 38.961 27.4706 39.0037 27.3715 39.0556C27.2983 39.094 27.1127 39.0539 27.0163 39.0492C26.6044 39.0289 26.1995 39.216 25.791 39.167C25.6115 39.1455 25.4601 39.0976 25.2789 39.1367C25.0886 39.1779 24.9023 39.2385 24.7092 39.2629C24.611 39.2752 24.4058 39.3129 24.3576 39.1455C24.3152 38.9981 24.4734 38.8976 24.3848 38.73ZM25.1926 44.772C24.6583 45.2485 24.2159 45.8993 23.7253 46.4503C23.2335 47.0027 22.8433 47.6168 22.401 48.2286C21.9921 48.7941 21.6164 49.3291 21.122 49.7564C20.8092 50.0269 20.5301 50.3597 20.2087 50.6148C19.968 50.8057 19.6034 51.0569 19.7209 50.4728C19.8412 49.8741 20.0634 49.269 20.2564 48.7099C20.5307 47.9152 20.8071 47.1278 21.1039 46.3482C21.2154 46.0552 21.2778 45.7636 21.4547 45.5303C21.6472 45.2763 21.7819 44.9447 21.9927 44.7048C22.8793 43.6955 24.2155 44.4753 25.1926 44.772ZM26.8684 45.1142C26.6261 45.2836 26.3549 45.3255 26.098 45.4376C25.8792 45.533 25.6757 45.7027 25.4403 45.7153C25.6546 45.5007 25.8387 45.2093 26.0802 45.0465C26.3519 44.8633 26.5986 44.9966 26.8684 45.1142ZM37.505 46.5257C36.6136 46.1247 35.7837 45.5338 34.9155 45.0582C34.7657 44.9761 33.5936 44.4614 33.6174 44.2164C34.4387 44.0158 35.2846 43.6715 36.108 44.0469C36.857 44.3884 37.4662 45.2076 38.0461 45.8931C38.1973 46.072 39.133 46.8866 39.0492 47.1461C38.9912 47.3259 38.5404 47.2768 38.434 47.24C38.2964 47.1923 38.2172 47.081 38.1094 46.9587C37.9291 46.7544 37.7295 46.6267 37.505 46.5257ZM35.8595 39.8258C35.9949 39.6597 36.0759 39.4077 36.2053 39.2544C36.3714 39.0573 36.6396 39.1533 36.8212 39.2557C37.3663 39.5628 37.8321 40.0791 38.3738 40.3995C38.9741 40.7546 39.4939 41.2291 40.0353 41.7182C40.5302 42.1652 41.0654 42.5353 41.5706 42.9619C42.0854 43.3967 42.6616 43.6793 43.1835 44.0986C43.7146 44.5255 44.2436 44.9541 44.754 45.4244C45.6641 46.2631 46.6116 47.1244 47.2849 48.3169C47.631 48.9298 47.9549 49.625 48.2089 50.3133C48.4397 50.939 48.6901 51.8075 48.391 52.4584C48.1037 53.0835 47.614 53.5759 47.1996 54.0423C47.0426 54.2188 46.8933 54.4334 46.6898 54.51C46.4424 54.603 46.1537 54.5773 45.8992 54.6048C44.5385 54.7519 43.2708 54.6131 41.9299 54.2885C40.6369 53.9757 39.3385 53.8006 38.0356 53.5831C37.3006 53.4604 36.5657 53.3176 35.8407 53.1133C35.5307 53.026 35.2154 52.9252 34.9121 52.8063C34.6473 52.7023 34.4245 52.4736 34.1522 52.3829C32.9965 51.9981 31.6741 51.851 30.5299 51.2037C31.5424 50.6427 32.6185 50.3037 33.6562 49.8375C34.7485 49.3468 35.8152 48.9351 36.9664 48.7957C37.5588 48.7239 38.089 48.5222 38.6589 48.3111C39.2019 48.1099 39.7689 48.0482 40.3267 47.9581C40.5747 47.918 41.2827 47.978 41.3649 47.5457C41.4873 46.902 40.7917 46.8277 40.4952 46.8854C40.0745 46.9671 39.7277 47.1071 39.4058 46.647C39.0771 46.1771 38.7577 45.6961 38.423 45.2322C37.8025 44.372 37.1629 43.3771 36.2857 42.9912C35.2156 42.5204 33.9747 42.9673 32.907 43.235C31.7792 43.5178 30.6532 43.7885 29.5466 44.1996C29.0883 44.3698 28.4973 44.7448 28.0217 44.6846C27.5529 44.6251 27.022 44.5228 26.5691 44.3425C26.3641 44.261 26.1956 44.1099 26.0122 43.969C25.7737 43.7857 25.5125 43.6683 25.2594 43.5259C24.7476 43.2379 24.2487 42.9726 23.6965 42.8594C23.2316 42.764 22.7378 42.7075 22.2872 42.9248C21.8451 43.138 21.4534 43.5722 21.145 44.036C20.81 44.5398 20.533 45.1045 20.2585 45.6674C20.1266 45.9376 19.9657 46.1734 19.8292 46.4375C19.7145 46.6593 19.6476 46.9058 19.5263 47.1214C19.2548 47.6037 19.0705 48.2207 18.906 48.7819C18.7233 49.4051 18.5202 50.1463 18.5638 50.8243C18.5803 51.0806 18.5975 51.42 18.6719 51.6576C18.7665 51.9598 18.9013 51.9521 19.0957 52.0661C19.4296 52.2619 19.5232 52.8032 19.9547 52.6977C20.3595 52.5988 20.7105 52.1541 21.0059 51.7995C21.3908 51.3376 21.7591 50.8506 22.1274 50.3653C22.5054 49.8672 22.8779 49.3148 23.1785 48.7289C23.2969 48.4983 23.3891 48.2377 23.529 48.0277C23.7071 47.7602 23.9071 47.728 24.149 47.6215C26.2641 46.6897 28.3895 45.7909 30.5707 45.1756C31.0933 45.0282 31.6201 44.8381 32.1334 44.6418C32.6779 44.4338 32.9598 44.6537 33.4091 45.0497C34.3479 45.8773 35.4575 46.4603 36.5028 47.0002C36.832 47.1702 37.356 47.181 37.6133 47.5163C36.0881 47.8263 34.6347 48.4227 33.1637 49.0167C32.4384 49.3094 31.7048 49.5633 30.9768 49.8433C30.2485 50.1235 29.5479 50.4865 28.8296 50.8023C28.1148 51.1166 27.3593 51.2448 26.6375 51.5347C25.9007 51.8306 25.1669 52.0342 24.4107 52.214C23.647 52.3958 22.8886 52.6054 22.1224 52.7681C21.7715 52.8425 21.4207 52.9198 21.0738 53.0222C20.7343 53.1225 20.4063 53.3626 20.0651 53.4182C18.5413 53.6668 17.0475 54.2206 15.5297 54.5337C14.3964 54.7675 12.4248 55.0935 11.6899 53.5775C10.9509 52.0529 11.8576 50.2745 12.6665 49.1844C13.1692 48.5069 13.7342 47.9107 14.3269 47.3802C14.9612 46.8126 15.5715 46.1996 16.2059 45.6327C17.6417 44.3499 19.1986 43.3036 20.7411 42.2729C21.4815 41.7781 22.1969 41.2475 22.9171 40.7045C23.2746 40.435 23.4725 40.8699 23.755 41.1654C23.9773 41.3979 24.3854 41.971 24.6963 41.7061C24.7083 41.8015 24.7203 41.8969 24.7323 41.9924C24.8233 41.937 24.9145 41.8817 25.0056 41.8263C25.0667 42.0402 25.0596 42.1731 25.2305 42.2855C25.3354 42.3545 25.5594 42.4376 25.6595 42.316C25.6799 42.4005 25.7003 42.4849 25.7207 42.5694C25.8082 42.5605 25.8251 42.2268 25.8416 42.1487C25.9915 42.4406 26.1989 42.6846 26.4624 42.7671C26.4637 42.748 26.4195 42.5082 26.4214 42.5067C26.5048 42.4386 26.61 42.7301 26.6542 42.7925C26.8007 42.9993 26.8881 42.9672 27.05 42.8003C27.0617 42.8173 27.1165 43.0079 27.1245 43.0045C27.1596 42.9897 27.2261 42.8207 27.2334 42.8054C27.2233 43.0276 27.545 43.0723 27.6586 43.0246C27.6331 42.9595 27.6076 42.8945 27.5822 42.8293C27.9779 42.7589 28.1333 43.3195 28.5132 43.291C28.7941 43.2699 28.5688 43.1881 28.7277 43.0277C28.8666 42.8876 28.8913 43.1941 28.9049 43.1843C28.9314 43.1474 28.952 43.1049 28.9665 43.0569C29.0179 43.3194 29.427 43.5548 29.3847 43.1232C29.5457 43.2091 29.6599 43.3515 29.8381 43.3816C30.0545 43.4182 30.2858 43.3569 30.5017 43.333C30.9671 43.2814 31.4058 43.1548 31.8253 42.8706C32.074 42.702 32.3387 42.5491 32.5725 42.3458C32.7682 42.1756 33.1393 41.6589 33.3998 41.8814C33.3331 41.619 33.6472 41.8622 33.6572 41.5242C33.7076 41.5749 33.7581 41.6256 33.8085 41.6763C33.8388 41.5878 33.8304 41.4485 33.8709 41.3714C33.9265 41.2655 33.9537 41.3279 34.0011 41.2683C34.0542 41.2017 34.1005 41.0233 34.1642 40.9725C34.2297 40.9202 34.3069 40.9825 34.3774 40.9369C34.4849 40.8672 34.947 40.1878 34.8688 40.77C35.0675 40.68 34.9143 40.5976 34.9391 40.4211C34.989 40.0673 35.1103 40.3219 35.2312 40.3527C35.4291 40.4033 35.4251 40.1852 35.5355 40.0266C35.6363 39.8818 35.8257 39.817 35.7605 39.5655C35.835 39.619 35.8509 39.7239 35.8595 39.8258ZM23.9288 32.2689C23.7729 32.5005 23.6561 32.4015 23.4828 32.3675C23.4642 32.2846 23.4326 32.2732 23.3877 32.3331C23.3364 32.3724 23.2812 32.3984 23.222 32.4107C23.0799 32.4574 22.9322 32.4376 22.7931 32.5083C22.7971 32.4462 22.846 32.3358 22.8147 32.2728C22.6685 32.4076 22.5778 32.4934 22.3982 32.496C22.2527 32.498 21.9973 32.3498 21.8765 32.527C21.8728 32.458 21.869 32.3891 21.8654 32.3201C21.8062 32.3594 21.7547 32.412 21.7109 32.478C21.7026 32.3758 21.698 32.2985 21.6473 32.2159C21.5512 32.4795 21.4459 32.4857 21.2592 32.385C21.2853 32.3991 21.0722 32.2326 21.0804 32.2787C21.013 31.9002 22.0766 31.9315 22.1882 31.9165C22.4671 31.879 22.7459 31.8572 23.0251 31.8229C23.29 31.7904 23.4877 31.7354 23.671 32.03C23.5893 31.6044 24.3621 31.6256 23.9288 32.2689ZM11.7347 25.6693C11.764 26.3126 11.8714 26.9965 11.6837 27.6157C11.5329 28.1134 11.232 28.6756 10.9079 29.0004C10.2442 29.6654 9.68167 28.8516 9.58931 27.9572C9.49302 27.0244 9.68388 25.8845 10.2863 25.3093C10.6463 24.9657 10.9949 24.9895 11.4093 25.1025C11.5067 25.1291 11.6647 25.1188 11.7203 25.2478C11.7334 25.278 11.7217 25.6687 11.7347 25.6693ZM20.5493 34.2411C20.4347 34.3183 20.3147 34.3635 20.2136 34.4685C20.1785 34.5049 20.1666 34.588 20.1293 34.6187C20.0615 34.6746 19.9646 34.6375 19.8939 34.6836C19.777 34.7598 19.6931 34.8689 19.5541 34.9391C19.3477 35.0434 19.1667 35.1864 18.9716 35.3221C18.6465 35.5481 18.2976 35.7421 17.9578 35.9261C17.7862 36.019 17.3117 36.2 17.3282 36.5349C17.2898 36.5487 17.2506 36.4368 17.1705 36.4457C17.0604 36.4579 16.9151 36.6275 16.8009 36.6692C16.5873 36.7472 16.422 36.7541 16.422 37.1172C16.354 37.0556 16.3367 36.9049 16.2462 36.8849C16.1444 36.8624 16.1016 37.0089 16.0201 37.0544C15.9242 37.1081 15.8049 37.0566 15.7099 37.1138C15.6684 37.1723 15.6222 37.2235 15.5714 37.2671C15.5197 37.275 15.4683 37.273 15.4171 37.2607C15.2155 37.3177 15.0299 37.4189 14.8277 37.4714C14.6307 37.5227 14.4958 37.5414 14.5786 37.8519C14.3679 37.9069 14.3164 37.6088 14.0787 37.7178C13.7872 37.8514 13.5149 37.9478 13.2106 38.0293C13.0555 38.0708 12.8933 38.1636 12.7371 38.1854C12.6256 38.2009 12.5215 38.1477 12.4117 38.1643C12.2794 38.1841 12.173 38.2658 12.0361 38.2688C11.9062 38.2719 11.7699 38.2408 11.6423 38.2102C11.6603 38.2787 11.6829 38.3444 11.71 38.4074C11.6218 38.3827 11.5811 38.2413 11.5063 38.2204C11.4278 38.1985 11.3575 38.3064 11.2922 38.2825C11.2644 38.2723 11.2829 38.1579 11.2331 38.136C11.1878 38.1162 11.1686 38.1396 11.1236 38.1302C11.1086 38.1271 10.9205 38.1135 10.8905 38.1346C10.8381 38.1717 10.8911 38.2411 10.8807 38.2514C10.7037 38.426 10.7016 38.3317 10.6227 38.1494C10.5069 37.8816 10.3672 38.0506 10.1566 38.0037C9.922 37.9515 9.73714 38.0896 9.50619 38.0699C9.2571 38.0487 8.96437 37.8002 8.74414 37.6551C8.26857 37.3417 7.80483 37.0451 7.40545 36.5705C6.62471 35.6426 5.98953 34.5015 5.61503 33.1951C5.21265 31.7917 5.1364 30.328 5.1687 28.8391C5.18813 27.9437 5.24188 27.0488 5.34774 26.1638C5.42061 25.555 5.43587 24.4733 5.95061 24.1961C6.03912 25.6214 5.75987 27.0738 5.93596 28.4899C5.98898 28.9164 6.11831 29.4848 6.36305 29.8007C6.72541 30.2683 6.81018 29.5924 6.84297 29.2189C6.90396 28.5255 7.01729 27.8358 7.09752 27.1456C7.17769 26.4557 7.23432 25.7581 7.34581 25.0755C7.38645 24.8266 7.71424 23.0038 7.95482 23.0902C7.90615 24.4162 7.77688 25.7193 7.7718 27.0502C7.76977 27.584 7.73392 28.1479 7.79172 28.6782C7.82144 28.951 8.00784 29.7518 8.3284 29.6851C8.62505 29.6233 8.29891 29.0592 8.27121 28.8417C8.19784 28.266 8.29137 27.5496 8.35978 26.9781C8.48923 25.8966 8.77804 24.7889 9.25011 23.8851C9.67291 23.0758 10.3239 22.3053 11.1081 22.448C11.4432 22.5091 11.7046 22.62 11.873 23.028C12.0051 23.3481 12.5255 23.7119 12.2239 24.1128C11.9494 24.4777 11.5054 24.1856 11.2002 24.0986C10.8266 23.9921 10.4261 24.1202 10.1137 24.4121C9.57754 24.9129 9.272 25.8082 9.17227 26.6478C9.03786 27.78 9.39715 30.7434 10.7205 30.0793C11.5996 29.638 12.2618 28.0508 12.188 26.8357C12.1584 26.3493 12.0158 25.4258 12.5205 25.2945C13.1671 25.1263 13.2585 26.0767 13.193 26.6943C13.0978 27.5927 12.7417 28.4281 12.3343 29.1384C11.9792 29.7575 11.5662 30.1446 11.139 30.6559C11.0125 30.8073 10.6898 31.1476 10.744 31.4291C10.8034 31.7376 11.3105 31.8254 11.5135 31.8761C12.518 32.1268 13.6507 31.8961 14.6535 31.7211C16.7145 31.3613 18.7483 30.475 20.4383 28.8455C20.5066 29.8537 20.5926 30.8586 20.6243 31.8704C20.6397 32.3616 20.6436 32.8599 20.6857 33.3484C20.7116 33.6489 20.8054 34.0687 20.5493 34.2411ZM14.8346 37.7542C14.7537 37.8106 14.8412 37.4693 14.8187 37.5823C14.9395 37.64 14.9449 37.6974 14.8346 37.7542ZM23.3841 25.5529C23.5125 25.3641 23.8634 24.9151 23.9748 25.3412C24.0162 25.1596 24.0216 24.8906 24.1816 25.1359C24.2453 24.8345 24.9479 24.8627 25.1219 24.8494C25.6791 24.8069 26.2386 24.7842 26.7938 24.7104C27.9348 24.5588 29.0957 24.637 30.2408 24.632C30.4888 24.6309 30.7361 24.613 30.9823 24.661C31.2198 24.7073 31.4695 24.8371 31.7116 24.7897C31.9268 24.7475 32.068 24.6683 32.2896 24.7022C32.5547 24.7427 32.8121 24.7715 33.0796 24.7702C34.2627 24.7645 35.4452 24.8284 36.6286 24.8308C36.8592 24.8313 37.1356 24.7713 37.3519 24.9018C37.4321 24.9503 37.5197 25.1114 37.5809 25.1291C37.6511 25.1493 37.6094 25.0033 37.7033 25.0693C37.8291 25.1575 37.7318 25.4288 37.6486 25.4718C37.6984 25.446 37.5588 25.4207 37.5728 25.4197C37.5065 25.4244 37.45 25.4922 37.3788 25.4879C37.2705 25.4816 37.1797 25.3935 37.0924 25.316C37.0909 25.3476 37.1389 25.5588 37.0841 25.5694C37.037 25.5787 36.9928 25.3704 36.9881 25.322C36.7234 25.6333 36.4429 25.4598 36.1144 25.4992C35.8814 25.5272 35.3955 25.7345 35.233 25.4101C35.2262 25.4791 35.2055 25.5395 35.1708 25.5913C35.1243 25.6856 35.0842 25.6776 35.0502 25.567C35.0387 25.5677 34.9255 25.6005 34.9233 25.6003C34.8436 25.5919 34.7404 25.5537 34.6593 25.5445C34.5339 25.5302 34.557 25.6519 34.4571 25.6539C34.4026 25.6549 34.2634 25.5499 34.1683 25.5433C34.0036 25.5319 33.8353 25.6251 33.6727 25.5968C33.5608 25.5775 33.4597 25.456 33.3499 25.4513C33.2131 25.4452 33.1687 25.5843 33.0603 25.3889C33.0381 25.3809 33.0244 25.4959 33.0155 25.4978C33.0177 25.4974 32.9124 25.5181 32.8999 25.5246C32.8783 25.5356 32.7941 25.587 32.7685 25.5876C32.7132 25.589 32.6831 25.5361 32.6245 25.5349C32.5275 25.5327 32.2177 25.6466 32.2263 25.4073C31.8801 25.5784 31.5846 25.5117 31.2292 25.5521C31.0661 25.5707 30.9636 25.5416 30.8085 25.5017C30.6142 25.4517 30.4852 25.5145 30.2914 25.5272C30.1052 25.5394 30.0465 25.4343 29.8893 25.3395C29.8273 25.3021 29.7863 25.2528 29.7103 25.2736C29.6669 25.2854 29.6978 25.3828 29.6849 25.3894C29.6181 25.4238 29.5715 25.3874 29.4799 25.3957C29.3108 25.4111 29.2435 25.5995 29.0697 25.4226C29.1274 25.4133 29.1852 25.4038 29.243 25.3945C29.0768 25.3006 28.8574 25.2526 28.8977 25.5947C28.7559 25.5682 28.8786 25.4395 28.809 25.3934C28.7393 25.3475 28.6612 25.4244 28.5735 25.4625C28.3417 25.5627 28.1485 25.513 27.9068 25.495C27.6322 25.4745 26.9898 25.7733 26.7932 25.3854C26.7873 25.4672 26.7215 25.6949 26.6339 25.6841C26.6053 25.6806 26.6849 25.4389 26.6939 25.4133C26.6488 25.5414 26.443 25.5657 26.3416 25.6321C26.353 25.5633 26.3643 25.4945 26.3756 25.4258C26.2815 25.5595 26.2357 25.4779 26.1249 25.5226C26.0765 25.5421 26.0064 25.6753 25.9649 25.6833C25.9167 25.6087 25.856 25.5766 25.7829 25.587C25.7343 25.5708 25.6857 25.5676 25.6372 25.5775C25.4427 25.5964 25.2654 25.7404 25.0719 25.6423C24.9045 25.5572 24.8397 25.3385 24.7399 25.6865C24.7136 25.6247 24.6873 25.5628 24.661 25.5009C24.6287 25.5681 24.5963 25.6352 24.5638 25.7023C24.4371 25.5917 24.4294 25.5276 24.2835 25.5683C24.2493 25.5865 24.2142 25.5839 24.1783 25.5606C24.1697 25.5947 24.1611 25.6288 24.1526 25.6628C24.1491 25.7485 24.1301 25.7768 24.0954 25.7476C24.0662 25.7337 24.0398 25.7125 24.0164 25.684C23.9199 25.6938 23.7967 25.7277 23.6932 25.7089C23.6532 25.7018 23.4027 25.5255 23.3841 25.5529ZM26.3359 23.2495C26.3473 23.2728 26.3587 23.296 26.37 23.3193C26.2134 23.4296 26.1766 23.3662 26.1604 23.1448C26.2369 23.1468 26.2499 23.3262 26.3359 23.2495ZM26.4329 23.1196C26.5083 23.164 26.5948 23.2511 26.6659 23.1343C26.7137 23.3197 26.3585 23.5726 26.4329 23.1196ZM26.92 23.2014C27.0783 23.3441 26.6985 23.2294 26.6991 23.2297C26.7674 23.1456 26.841 23.1362 26.92 23.2014ZM28.2817 22.4059C28.336 22.7711 28.4858 22.7607 28.7275 22.591C29.08 22.3433 29.1395 21.9377 29.1641 21.4534C29.1877 20.9891 29.2303 20.8093 29.5894 20.9062C29.8401 20.9739 30.0521 20.917 30.3048 20.9077C30.5745 20.8978 30.6695 20.9527 30.6912 21.3227C30.7129 21.6932 30.7624 21.9745 30.964 22.2565C31.169 22.5431 31.4424 22.7143 31.7088 22.8746C31.8458 22.957 31.9744 23.0457 32.126 23.0636C32.1847 23.0705 32.4904 23.019 32.4968 23.1479C32.5015 23.2449 32.0782 23.5183 32.0333 23.5509C31.837 23.6933 31.6412 23.821 31.4268 23.9072C30.9334 24.1057 30.4103 24.1174 29.8993 24.1054C29.0753 24.0861 27.9366 23.6214 27.444 22.6468C27.7232 22.5665 28.0025 22.4861 28.2817 22.4059ZM28.2078 19.2426C28.0774 19.0967 27.993 18.8763 27.8847 18.7036C27.8301 18.6165 27.7901 18.5887 27.7381 18.5451C27.6834 18.4992 27.6525 18.5642 27.6069 18.4563C27.4889 18.1773 27.853 17.7848 27.4668 17.6775C27.3362 17.6411 27.0218 17.7791 26.9837 17.5295C26.9297 17.1766 27.4349 17.1536 27.5537 16.9745C27.7901 16.6184 27.6297 16.0147 27.7736 15.6039C27.9099 15.2147 28.2616 15.1456 28.5392 15.0287C28.926 14.8658 29.3175 14.7714 29.7103 14.6411C29.9849 14.55 30.4412 14.184 30.6958 14.5074C30.3028 14.6237 30.5313 14.8064 30.7932 14.9094C31.09 15.0263 31.4045 15.0719 31.7119 15.1044C32.0284 15.1379 32.3509 15.1443 32.6636 15.0602C32.9528 14.9824 33.2758 14.6472 33.5791 14.733C33.4108 15.1231 32.9096 15.3361 32.6051 15.4383C32.4499 15.4904 32.3505 15.4741 32.3713 15.7321C32.3915 15.9821 32.5545 16.2328 32.5914 16.4933C32.6401 16.838 32.5975 17.1547 32.5055 17.4789C32.415 17.7978 32.3938 17.8395 32.473 18.1443C32.5962 18.6188 32.3313 19.1433 32.0864 19.4879C31.0961 20.8814 29.2009 20.3535 28.2078 19.2426ZM30.7242 10.9146C30.7248 10.9234 30.7282 10.9288 30.7242 10.9146V10.9146ZM31.0326 14.4311C30.9916 14.472 30.7551 14.5578 30.765 14.4346C30.7782 14.2694 30.9913 14.3291 31.0326 14.4311ZM31.5717 11.0957C31.5162 11.0405 31.3608 11.0632 31.4744 10.8541C31.5114 10.9461 31.5416 11.0209 31.5717 11.0957ZM27.8418 9.77415C27.9125 9.52909 27.9908 9.30114 28.0227 9.04029C28.0424 8.87959 28.0033 8.69607 28.1718 8.67087C27.957 8.54601 27.9548 8.05319 27.9422 7.79775C27.9247 7.44591 27.8414 6.97486 27.9574 6.64741C28.0764 6.31104 28.237 6.31661 28.2855 6.71721C28.3045 6.87406 28.2318 6.92479 28.2182 7.03402C28.1912 7.25011 28.2449 7.20274 28.3494 7.03811C28.3926 7.20544 28.4091 7.45688 28.5848 7.44624C28.5731 7.40099 28.5058 7.30117 28.5283 7.24496C28.5628 7.15864 28.7315 7.29053 28.7529 7.3105C28.907 7.45418 28.9404 7.58534 28.8305 7.76657C28.9827 7.78842 28.855 7.96597 28.9532 8.01228C29.103 8.0829 29.0025 7.74833 28.9863 7.6895C29.0775 7.73695 29.1081 7.79112 29.1658 7.88718C29.1997 7.95345 29.2306 8.02227 29.2584 8.09345C29.2894 8.22338 29.3533 8.25595 29.4501 8.19115C29.6442 8.27231 29.912 8.25963 30.086 8.40151C30.1654 8.46631 30.1941 8.60811 30.2605 8.66195C30.3351 8.72258 30.4352 8.69509 30.5154 8.73313C30.486 8.82199 30.5098 8.8701 30.5866 8.87763C30.6462 8.88491 30.7039 8.90283 30.7598 8.9313C30.8015 8.88933 30.847 8.85619 30.896 8.83206C30.929 8.90954 30.9756 8.92869 31.0359 8.88966C31.2148 8.93433 31.3008 9.02458 31.4145 9.15951C31.5166 9.2806 31.4335 9.29042 31.5454 9.2797C31.5903 9.27537 31.6691 9.17374 31.7718 9.19354C31.831 9.20893 31.8881 9.23323 31.943 9.26645C32.0024 9.3342 32.0654 9.34271 32.1321 9.29206C32.2405 9.36267 32.2511 9.48777 32.3832 9.50488C32.5294 9.52386 32.4823 9.28101 32.5827 9.62352C32.7178 9.26039 32.7673 9.83887 32.9068 9.88559C33.0513 9.93403 33.0669 9.77783 33.1906 9.94851C33.2277 9.99965 33.2256 10.0842 33.2672 10.1384C33.3354 10.2272 33.4277 10.2094 33.4869 10.3305C33.4539 10.263 33.4947 10.57 33.494 10.5599C33.5032 10.6954 33.413 10.8472 33.598 10.8356C33.5959 10.8499 33.507 11.0226 33.4897 11.003C33.4855 10.9833 33.4818 10.9633 33.479 10.9431C33.4592 10.9545 33.4503 11.1191 33.454 11.1481C33.4697 11.1514 33.4761 11.1358 33.4733 11.1015C33.4429 11.2284 33.4887 11.309 33.4303 11.4294C33.3929 11.5064 33.2906 11.5642 33.2362 11.6118C33.105 11.7265 32.9766 11.8415 32.8486 11.9636C32.5502 12.2484 32.216 12.5917 31.8402 12.6511C32.029 12.404 33.1149 11.4688 32.5702 11.2004C32.4692 11.1506 32.2853 11.1035 32.1796 11.093C32.0482 11.08 31.9123 11.1803 31.7674 11.1177C31.5925 11.0423 31.6584 10.8231 31.5516 10.7445C31.3247 10.5776 31.3783 10.97 31.3069 11.0727C31.2319 10.9678 31.2479 10.9167 31.1295 10.9072C31.0092 10.8976 30.9806 11.0457 30.8403 10.9534C30.647 10.8262 30.7493 10.5728 30.4751 10.5668C30.4797 10.5112 30.5194 10.3557 30.4671 10.3124C30.3966 10.4344 30.4512 10.5708 30.3857 10.6882C30.3529 10.7471 30.2818 10.7941 30.2299 10.8131C30.1083 10.8576 30.091 10.9429 30.1108 10.6988C30.0207 10.9152 29.7444 10.8262 29.5801 10.8045C29.3129 10.769 29.0289 10.7016 28.7728 10.5874C28.5359 10.4817 28.4094 10.3001 28.214 10.1349C28.1401 10.0724 28.1049 10.0963 27.999 10.0575C27.8944 10.0192 27.7925 9.94499 27.8418 9.77415ZM28.4055 5.94219C28.4459 5.90979 28.4748 6.39328 28.4259 6.48361C28.3364 6.29484 28.1778 6.01796 28.4055 5.94219ZM28.5344 5.74934C28.6641 5.59281 28.574 5.99709 28.5502 6.06492C28.5021 6.02385 28.4541 5.98278 28.406 5.9417C28.4673 5.89154 28.4826 5.81177 28.5344 5.74934ZM33.4281 5.09779C34.6265 5.4331 35.8139 6.05985 36.775 7.0913C37.6505 8.03077 38.2684 9.36373 38.6149 10.7816C38.9745 12.2534 38.8536 13.8862 37.9981 15.0125C37.5474 15.6058 36.9523 15.9638 36.3851 16.3131C36.1133 16.4804 35.8335 16.6199 35.5606 16.7833C35.3647 16.9007 35.1255 17.0886 34.9019 17.056C35.0159 16.896 35.1814 16.8927 35.3195 16.7949C35.4863 16.6766 35.6225 16.4495 35.7663 16.2873C35.9091 16.1263 36.2257 15.6193 36.4451 15.742C36.4146 15.4719 36.6455 15.3465 36.7495 15.1683C36.8595 14.9799 36.8674 14.7596 37.0701 14.6979C36.8524 14.4707 36.9191 14.0423 36.9664 13.7331C37.027 13.3377 37.055 12.9746 37.0789 12.5722C37.1219 11.8467 37.1566 10.9225 36.856 10.2847C36.7584 10.0776 36.6342 9.88731 36.5472 9.6722C36.4423 9.41299 36.4654 9.18479 36.4654 8.90062C36.2737 9.07245 36.2332 8.72209 36.1522 8.55132C36.0914 8.42319 36.0115 8.3516 35.9919 8.19041C35.9776 8.07308 36.0731 8.05328 36.0208 7.9303C35.9566 7.99494 35.931 8.09509 35.8985 8.18804C35.8392 8.15645 35.9091 8.04648 35.8751 8.01073C35.8742 8.00975 35.7598 7.94355 35.7655 7.95313C35.692 7.82884 35.6683 7.62257 35.6323 7.47463C35.4976 7.56562 35.5228 7.5549 35.3725 7.40287C35.346 7.37612 35.2137 7.25322 35.2013 7.21305C35.1431 7.02519 35.245 7.13646 35.2165 7.01987C35.1347 6.68497 34.6755 6.7483 34.639 6.24649C34.4151 6.43607 34.3297 6.16745 34.1973 5.97639C34.0616 5.78068 33.834 5.7054 33.8462 5.39497C33.7757 5.42712 33.7053 5.4592 33.6348 5.49119C33.6714 5.20473 33.3523 5.22298 33.2367 5.07766C33.3008 5.07873 33.3647 5.08544 33.4281 5.09779ZM33.6106 22.8399C33.7217 22.7075 33.688 22.8837 33.7594 22.8636C33.8205 22.8463 33.8326 22.7847 33.8912 22.7658C34.1327 22.688 34.4937 22.7858 34.7476 22.769C35.0417 22.7496 35.5458 22.831 35.6859 23.2898C35.7704 23.5661 35.6415 23.4721 35.4996 23.4516C35.3895 23.4357 35.2917 23.4654 35.1828 23.4639C35.1289 23.475 35.0753 23.4739 35.0218 23.4606C34.9957 23.4377 34.9803 23.4054 34.9755 23.3638C34.824 23.3332 34.6631 23.4528 34.4953 23.4588C34.2713 23.4667 34.0722 23.4094 33.9021 23.2078C33.8344 23.3422 33.7883 23.4089 33.6666 23.424C33.6635 23.4244 33.5446 23.3606 33.5262 23.3542C33.5019 23.3458 33.4403 23.4139 33.3933 23.3944C33.4766 23.2175 33.4888 22.9852 33.6106 22.8399ZM48.9074 24.4365C48.9469 24.2532 48.98 24.0674 49.016 23.8828C49.5689 24.722 50.0527 25.8453 50.2704 26.9215C50.4118 27.6209 50.6319 28.888 49.9577 29.2487C49.4085 29.5425 49.1023 28.4893 48.9633 27.9706C48.6565 26.8255 48.6565 25.6017 48.9074 24.4365ZM24.1728 11.2876C24.1799 11.2857 23.8149 11.5687 23.9352 11.3396C23.9834 11.2474 24.1667 11.1826 24.2479 11.1826L24.1728 11.2876ZM23.8217 11.4076C23.7795 11.4549 23.7368 11.5017 23.6938 11.5479C23.6525 11.4608 23.6111 11.3738 23.5698 11.2867C23.6512 11.2409 23.9971 11.2065 23.8217 11.4076ZM23.5645 20.2073C23.4881 20.1384 23.4275 20.175 23.4046 20.2908C23.4046 20.1756 23.4496 19.9079 23.5187 19.8768C23.5634 19.8566 23.3702 19.5518 23.4245 19.472C23.5626 19.5775 23.4799 19.6785 23.5204 19.8147C23.5386 19.8761 23.5935 19.9342 23.6055 19.9814C23.6259 20.0615 23.7083 20.337 23.5645 20.2073ZM23.1903 19.5215C23.1121 19.5482 23.249 19.7203 23.2489 19.7964C23.2488 19.8539 23.197 19.8981 23.1756 19.9768C23.1293 20.1474 23.209 20.2626 23.0777 20.3928C23.0777 20.0191 22.8896 19.0287 23.2511 18.8465C23.0748 18.6614 23.2196 18.4477 23.3578 18.6692C23.4907 18.8823 23.4061 19.4479 23.1903 19.5215ZM23.002 18.0466C22.9309 17.7106 22.717 17.5931 22.4726 17.613C22.4819 17.441 22.5797 17.193 22.6503 17.503C22.6793 17.4114 22.6994 17.2919 22.7656 17.2311C22.8771 17.6972 23.4329 17.9547 23.0869 18.4597C23.0586 18.322 23.0311 18.184 23.002 18.0466ZM22.3561 17.638C21.0689 17.7625 19.2619 18.1186 18.2319 16.8031C17.5603 15.9454 17.5961 14.6097 18.1389 13.6567C18.4486 13.1129 18.8714 12.73 19.296 12.3652C19.4599 12.2244 19.5987 12.1314 19.7786 12.0505C19.8077 12.0463 19.8351 12.055 19.8607 12.0765C19.8708 12.0186 19.8953 11.9757 19.9343 11.9477C20.0037 11.8982 20.1027 11.8805 20.1427 11.7776C20.1 11.9708 20.0781 12.1698 20.0624 12.3698C20.0277 12.3159 19.9931 12.2621 19.9584 12.2083C19.9295 12.5725 19.6449 12.352 19.475 12.3975C19.5869 12.604 19.667 12.6791 19.6766 12.952C19.5932 12.7468 19.4189 12.6119 19.2569 12.5458C19.3449 12.8929 19.4071 13.0989 19.3185 13.4795C19.2115 13.398 19.2042 13.2023 19.0744 13.1554C19.0401 13.3824 19.0341 13.6343 18.9902 13.8545C18.6577 13.6523 18.6902 14.1969 18.8237 14.4663C18.8946 14.6097 18.9295 14.7756 18.9928 14.9132C19.1482 15.2507 19.0301 14.746 19.2029 14.7699C19.1641 15.1259 19.1506 15.1614 19.346 15.4221C19.5367 15.6763 19.6356 16.029 19.8396 16.2679C19.8986 16.1672 19.8057 16.0619 19.7976 15.9656C19.9874 16.0081 20.0763 16.2618 20.2588 16.037C20.3383 16.2438 20.4244 16.4715 20.615 16.514C20.489 16.1947 20.8569 16.4112 20.9512 16.4565C21.0228 16.4909 21.151 16.5182 21.1786 16.5315C21.3341 16.6063 21.2275 16.472 21.3218 16.7174C21.4603 16.6617 21.5126 16.5084 21.6783 16.6379C21.813 16.7432 21.8133 16.9235 21.8441 17.1082C21.8762 16.9874 21.9086 16.8666 21.9441 16.7474C21.9803 16.7677 22.132 16.9903 22.1154 16.9913C22.4704 16.9681 22.4579 17.262 22.3561 17.638ZM20.5489 11.6131C20.6201 11.5464 20.7072 11.6352 20.7872 11.6113C20.898 11.5783 20.961 11.4517 21.0848 11.4382C21.0504 11.5849 20.9857 11.5712 20.931 11.6865C20.9124 11.7258 20.9221 11.82 20.9055 11.8426C20.7668 12.0321 20.7188 11.8775 20.5772 11.734C20.5895 11.907 20.6144 11.9617 20.4922 12.008C20.3816 12.0501 20.199 11.8952 20.1432 11.7764C20.1902 11.6509 20.4635 11.693 20.5489 11.6131ZM21.432 11.3428C21.5522 11.3581 21.4074 11.8308 21.2352 11.3722C21.3001 11.3534 21.3657 11.3436 21.432 11.3428ZM22.05 11.2514C22.2396 11.1998 22.8718 10.9596 22.9421 11.353C22.9548 11.3432 23.0018 11.1211 23.0237 11.1482C23.1112 11.2568 23.121 11.4007 23.1143 11.5515C23.0085 11.2576 23.0461 11.5157 22.9744 11.4956C22.9557 11.4903 22.9271 11.5369 22.8796 11.5177C22.8175 11.4924 22.7729 11.3161 22.7337 11.2564C22.6684 11.3807 22.5874 11.5408 22.4565 11.53C22.3639 11.5224 22.2147 11.2045 22.3346 11.5525C22.2642 11.5215 22.1827 11.4513 22.1042 11.4654C22.0164 11.4812 21.9707 11.5968 21.8884 11.6155C21.7059 11.6567 21.6784 11.4225 21.5599 11.2954C21.7233 11.2827 21.8887 11.2952 22.05 11.2514ZM23.1968 11.2476C23.2101 11.1669 23.376 11.1344 23.4182 11.16C23.5213 11.2224 23.4832 11.3048 23.4642 11.4419C23.3877 11.3936 23.3113 11.3455 23.2348 11.2972C23.3489 11.5423 23.1421 11.5779 23.1968 11.2476ZM55.3026 25.6067C55.289 25.0192 55.2762 24.4216 55.1645 23.8496C55.0863 23.4494 54.8943 22.7316 54.5311 22.6621C53.9833 22.5573 53.68 24.0008 53.5265 24.4963C53.4958 23.913 53.5226 23.292 53.3574 22.7383C53.225 22.2946 52.8908 21.8744 52.6029 22.3727C52.3467 22.8161 52.2974 23.4708 52.23 24.0043C52.1426 24.6957 52.0902 25.3925 52.0264 26.088C51.7762 25.4433 51.7325 24.7054 51.5347 24.0354C51.3481 23.4031 51.0544 22.7993 50.7716 22.2369C50.5406 21.7776 50.2596 21.3457 49.8977 21.0649C49.5827 20.8205 49.032 20.5561 48.7318 20.962C48.4812 21.3007 48.5205 21.7539 48.5335 22.1813C48.5394 22.3716 48.5617 22.5021 48.4362 22.598C48.3745 22.6451 48.2781 22.6207 48.2103 22.6459C48.1011 22.6866 48.0173 22.7555 47.925 22.8471C47.2772 23.489 46.9785 24.6459 46.8862 25.6774C46.7692 26.9842 47.1512 28.1045 47.48 29.3003C47.5324 29.4908 47.6988 29.8951 47.6759 30.1078C47.6507 30.341 47.4312 30.347 47.2832 30.3518C46.836 30.3666 46.3686 30.3221 45.9236 30.2666C44.8643 30.1344 43.8057 29.4544 42.8572 28.8473C42.6841 28.7365 42.4393 28.6731 42.298 28.4987C42.1652 28.3347 42.1302 28.0719 42.0156 27.8838C41.7343 27.4222 41.5551 27.0283 41.1408 26.7495C40.719 26.4655 40.2885 26.2031 39.8769 25.8921C39.368 25.5074 38.8977 25.0201 38.41 24.5893C37.5036 23.7889 36.6032 22.9115 35.6422 22.2309C35.1957 21.9145 34.6967 21.8633 34.233 21.6044C33.7816 21.3522 33.2274 21.3518 32.7562 21.5111C32.5267 21.5887 32.3705 21.7727 32.1595 21.8927C31.9121 22.0334 31.7103 21.8781 31.4927 21.7101C31.1601 21.4536 30.8304 21.0354 31.304 20.7586C31.4646 20.6647 31.6659 20.6291 31.8063 20.4814C31.9559 20.3241 32.076 20.0338 32.1976 19.8367C32.4681 19.3985 32.6296 18.8941 33.0254 18.6216C33.4631 18.3203 33.9819 18.2383 34.4486 18.0413C34.9543 17.828 35.4494 17.5744 35.9456 17.3253C36.8397 16.8766 37.7692 16.3921 38.4117 15.4044C38.9658 14.5522 39.2073 13.4523 39.1849 12.3351C39.1392 10.0512 38.2217 7.73335 36.9052 6.3054C35.2908 4.55441 33.2372 3.97053 31.198 4.00113C30.241 4.01554 29.0989 4.18253 28.3004 4.95779C27.6107 5.62742 27.4959 6.79862 27.5985 7.85584C27.6402 8.28491 27.7825 8.85112 27.5555 9.22922C27.4285 9.44073 27.2005 9.49309 27.0294 9.62499C26.8144 9.79068 26.6249 9.94949 26.3813 10.0371C25.347 10.4096 24.2574 10.2799 23.1998 10.2593C21.438 10.2249 19.6322 10.8609 18.3179 12.5162C17.2565 13.8527 16.9382 16.3731 18.2327 17.6761C19.2785 18.7287 20.9189 18.6129 22.1521 18.4293C22.5345 18.3723 22.7974 18.2895 22.7983 18.9133C22.7993 19.5947 22.7146 20.3069 22.845 20.9759C23.0504 22.0294 23.8096 22.0545 24.4809 21.8276C24.8351 21.7079 25.1775 21.5279 25.5139 21.3394C26.0072 21.0629 26.4594 20.6564 26.9466 20.3804C27.2769 20.1933 27.5243 20.7982 27.8172 20.3789C27.8714 20.3014 27.8814 20.1859 27.963 20.1462C28.091 20.0841 28.3056 20.3019 28.4178 20.3708C28.5859 20.474 28.7553 20.5498 28.8224 20.7982C28.8853 21.0306 28.8577 21.4001 28.7976 21.6294C28.6668 22.1277 28.3148 22.0292 27.9934 21.9959C27.4329 21.9377 26.8761 21.8144 26.3158 21.7626C25.813 21.7161 25.3422 21.9164 24.9086 22.247C23.9979 22.9412 23.2527 24.0455 22.463 24.9536C22.0566 25.421 21.6637 25.9258 21.2217 26.3328C21.0296 26.5098 20.8214 26.6725 20.6544 26.8924C20.4887 27.1105 20.4705 27.3089 20.4138 27.5992C20.3128 28.1161 19.8115 28.3687 19.4981 28.6414C19.055 29.0271 18.5852 29.2991 18.0884 29.5357C17.0363 30.0368 15.9759 30.3867 14.876 30.6453C14.3375 30.772 13.8035 30.8552 13.2597 30.9236C12.791 30.9825 12.2926 31.175 11.8244 31.0212C11.9592 30.7296 12.1982 30.5545 12.3843 30.3291C12.6242 30.0385 12.8282 29.6942 13.0097 29.3375C13.3632 28.6428 13.611 27.8974 13.668 27.0548C13.7193 26.2965 13.6604 25.3893 13.3172 24.7488C13.1987 24.5274 12.9642 24.4672 12.8581 24.2679C12.7526 24.0697 12.7928 23.7286 12.7351 23.4975C12.588 22.9099 12.1517 22.1817 11.7677 21.8404C11.3511 21.47 10.7417 21.3339 10.2604 21.5269C9.36884 21.8845 8.82119 23.1549 8.41322 24.1817C8.19036 23.5564 8.56358 22.6288 8.12821 22.1167C7.76101 21.6848 7.46956 22.5215 7.34673 22.8795C6.77021 24.5598 6.63929 26.3421 6.39774 28.14C6.2993 28.0107 6.34975 27.6786 6.359 27.5243C6.37623 27.237 6.37463 26.9552 6.37506 26.6667C6.37623 25.938 6.47785 25.2058 6.43127 24.4777C6.40436 24.0568 6.30372 23.1693 5.84506 23.3091C5.4561 23.4277 5.21246 24.157 5.09025 24.6029C4.91397 25.246 4.87327 25.8826 4.88424 26.562C4.89638 27.3126 4.78911 28.051 4.76313 28.8006C4.71262 30.2566 4.76251 31.7 5.07584 33.1052C5.58892 35.4063 6.76862 37.3182 8.34311 38.4727C9.21058 39.1089 10.1729 39.5114 11.1624 39.5979C11.6986 39.6448 12.2162 39.5597 12.7478 39.4858C13.2724 39.4129 13.7997 39.3791 14.3234 39.2936C15.4897 39.1028 16.6261 38.6105 17.6862 37.9481C18.2442 37.5994 18.7689 37.1713 19.3178 36.7995C19.538 36.6504 19.6868 36.4638 19.8748 36.2563C20.0611 36.0508 20.1127 36.0347 20.3246 36.0347C20.2624 35.8129 20.4439 35.7446 20.5246 35.6043C20.52 35.6724 20.5155 35.7404 20.511 35.8084C20.5725 35.6304 20.6298 35.6321 20.6828 35.8135C20.7352 35.6104 20.774 35.4015 20.8373 35.2035C21.0792 35.3667 21.0589 35.7548 21.3824 35.4714C21.6488 35.2382 21.8938 34.9631 22.1654 34.7346C22.7841 34.2139 23.3175 33.5364 23.938 33.0217C23.938 33.523 23.9645 34.0287 23.9142 34.5274C23.8664 35.0017 23.7336 35.445 23.628 35.899C23.4332 36.7367 23.4197 37.6319 23.2039 38.4612C23.1146 38.8046 22.882 39.0918 22.8153 39.4261C22.7474 39.7671 22.9044 40.0404 22.6411 40.2644C22.4555 40.4222 22.2236 40.4889 22.018 40.5844C21.7045 40.7301 21.4069 40.9357 21.1017 41.1101C19.6703 41.9279 18.274 42.7608 16.9479 43.8604C15.6893 44.9038 14.4114 45.9815 13.2553 47.2208C12.2519 48.2963 11.2375 49.687 10.9933 51.4415C10.7563 53.1433 11.3878 54.97 12.6558 55.5304C13.3151 55.8219 14.0605 55.7858 14.7471 55.7984C15.4859 55.812 16.2688 55.5746 16.9952 55.4028C17.7623 55.2214 18.5163 54.9375 19.2856 54.7755C20.0238 54.62 20.7008 54.2726 21.4269 54.0585C22.2002 53.8304 22.9934 53.7067 23.7709 53.5016C24.121 53.4092 24.464 53.273 24.8151 53.1875C25.1994 53.0939 25.5879 53.0588 25.9685 52.9348C26.7066 52.6943 27.4134 52.3065 28.1548 52.0827C28.4881 51.9821 28.8163 51.8473 29.1497 51.7533C29.4568 51.6667 29.6959 51.4366 30.0036 51.6256C30.2521 51.7783 30.4504 52.04 30.6857 52.2223C30.9908 52.4589 31.3125 52.6707 31.6306 52.8742C32.2697 53.2831 32.9326 53.5657 33.6009 53.8727C34.3029 54.1953 34.9922 54.5631 35.7195 54.776C36.465 54.9943 37.2256 55.0551 37.9763 55.2279C39.5138 55.5815 41.0382 55.7402 42.5988 55.7531C43.3876 55.7597 44.1764 55.635 44.9634 55.6497C45.6601 55.6628 46.2658 55.8722 46.9028 55.3783C47.9208 54.5892 49.1015 53.4006 49.0765 51.6742C49.0538 50.1105 48.3503 48.6165 47.6905 47.3832C46.8891 45.8854 45.7466 44.8308 44.6269 43.7976C43.4334 42.6966 42.093 41.9358 40.8387 40.9748C40.1972 40.4832 39.6056 39.9544 38.9091 39.6051C38.5765 39.4385 38.2522 39.2452 37.9236 39.0657C37.6592 38.9213 37.2774 38.8415 37.0511 38.6018C36.9099 38.4524 36.8963 38.226 36.8591 38.0036C36.7764 37.5117 36.6467 37.0452 36.5209 36.5708C36.2781 35.6547 36.1167 34.7217 36.0123 33.7609C35.9128 32.845 35.692 31.8925 35.8064 30.9617C36.5587 31.932 37.3317 32.8647 38.1014 33.8092C38.3898 34.1632 38.673 34.5246 38.9629 34.8764C39.1806 35.1405 39.4528 35.5329 39.7563 35.6113C40.1438 35.7114 40.0023 35.1398 40.2683 35.0513C40.431 34.9972 40.9214 35.5481 41.05 35.6569C41.865 36.3468 42.7674 36.7839 43.6637 37.2535C44.6036 37.7458 45.5703 38.1832 46.5817 38.3071C47.5159 38.4218 48.4712 38.2746 49.3727 37.9353C51.1681 37.2595 52.4893 35.6559 53.4589 33.5773C54.5637 31.2088 55.3676 28.4341 55.3026 25.6067Z" fill="black"/>
<path fill-rule="evenodd" clip-rule="evenodd" d="M27.8626 20.4434C27.8623 20.4441 27.8596 20.4519 27.8596 20.4519C27.8629 20.4488 27.8639 20.4459 27.8626 20.4434Z" fill="black"/>
<path fill-rule="evenodd" clip-rule="evenodd" d="M27.9492 20.4736C27.9425 20.3981 27.928 20.3243 27.9057 20.252C27.8463 20.3776 27.7931 20.4314 27.8711 20.5645C27.8971 20.5342 27.9231 20.5039 27.9492 20.4736Z" fill="black"/>
<path fill-rule="evenodd" clip-rule="evenodd" d="M32.0893 38.43C32.1558 38.3357 32.0395 38.3001 31.9954 38.2988C31.9997 38.4 31.9621 38.6425 32.066 38.6895C32.041 38.5979 32.0489 38.5114 32.0893 38.43Z" fill="black"/>
<path fill-rule="evenodd" clip-rule="evenodd" d="M30.3355 18.6928C30.2213 18.987 30.4736 19.0783 30.6198 18.9362C30.7298 18.8293 30.7947 18.5569 30.8128 18.3821C30.8712 17.8166 30.5744 17.2783 30.4265 16.7766C30.3882 16.6469 30.3358 16.202 30.2127 16.1898C30.0712 16.1758 30.0608 16.5855 30.0589 16.6912C30.0535 17.0099 30.1168 17.3346 30.191 17.6355C30.2709 17.9599 30.469 18.3492 30.3355 18.6928Z" fill="black"/>
<path fill-rule="evenodd" clip-rule="evenodd" d="M30.8789 17.5129C31.3181 18.0343 31.6694 17.1659 31.6388 16.6522C31.6312 16.5249 31.5667 16.0556 31.3857 16.2264C31.2947 16.3122 31.3722 16.591 31.3289 16.7134C31.1188 17.3069 30.9165 16.3864 30.7751 16.3141C30.603 16.226 30.5857 16.5275 30.5859 16.6887C30.5864 17.0086 30.7005 17.301 30.8789 17.5129Z" fill="black"/>
<path fill-rule="evenodd" clip-rule="evenodd" d="M29.2847 17.5939C29.3882 17.3767 29.5154 17.0854 29.5294 16.8252C29.5512 16.4207 29.3745 16.4545 29.229 16.7367C29.1262 16.936 29.0491 17.2741 28.8223 17.1901C28.5422 17.0865 28.6278 16.5843 28.471 16.3457C28.0751 17.0548 28.8243 18.5604 29.2847 17.5939Z" fill="black"/>
<path fill-rule="evenodd" clip-rule="evenodd" d="M29.8781 19.7639C30.0419 19.8111 30.4688 19.7936 30.3209 19.4593C30.1344 19.0382 29.5139 19.6588 29.8781 19.7639Z" fill="black"/>
<path fill-rule="evenodd" clip-rule="evenodd" d="M35.6151 7.20508C35.6451 7.08605 35.6039 7.06444 35.5324 6.9707C35.4647 7.054 35.5514 7.14163 35.6151 7.20508Z" fill="black"/>
<path fill-rule="evenodd" clip-rule="evenodd" d="M38.6696 28.7636C38.7776 28.7865 38.8124 28.7103 38.7739 28.535C38.6034 28.5203 38.5687 28.5965 38.6696 28.7636Z" fill="black"/>
<path fill-rule="evenodd" clip-rule="evenodd" d="M32.7701 10.373C32.8893 10.4457 32.8436 10.5947 32.8416 10.7207C32.903 10.6318 33.027 10.4692 32.9765 10.3414C32.8987 10.1444 32.6954 10.3276 32.7701 10.373Z" fill="black"/>
<path fill-rule="evenodd" clip-rule="evenodd" d="M28.7109 7.89373C28.6928 7.84647 28.6746 7.79921 28.6565 7.75195C28.5824 7.83114 28.4682 8.04053 28.5858 8.14258C28.634 8.06456 28.6757 7.98161 28.7109 7.89373Z" fill="black"/>
<path fill-rule="evenodd" clip-rule="evenodd" d="M30.1408 9.2835C30.289 9.43854 30.2179 8.96269 30.2134 8.92383C30.1914 8.97965 30.0659 9.20519 30.1408 9.2835Z" fill="black"/>
<path fill-rule="evenodd" clip-rule="evenodd" d="M30.0586 9.04185C30.0473 9.00254 30.0359 8.96323 30.0245 8.92383C29.9645 8.99802 29.8908 9.14953 29.9901 9.23633C30.0173 9.17553 30.0402 9.11074 30.0586 9.04185Z" fill="black"/>
<path fill-rule="evenodd" clip-rule="evenodd" d="M31.0002 10.6759C31.0124 10.6908 31.0245 10.7057 31.0366 10.7207C31.0854 10.5892 31.0298 10.4904 30.9375 10.4863C30.9441 10.5602 30.965 10.6234 31.0002 10.6759Z" fill="black"/>
<path fill-rule="evenodd" clip-rule="evenodd" d="M27.0272 25.4733C27.0861 25.42 27.1395 25.3591 27.1875 25.2907C27.0134 25.1488 27.1177 25.4563 26.9082 25.2675C26.863 25.3507 26.9368 25.5369 27.0272 25.4733Z" fill="black"/>
<path fill-rule="evenodd" clip-rule="evenodd" d="M34.3419 38.377C34.4081 38.2415 34.4201 38.2454 34.3297 38.1426C34.2543 38.31 34.2621 38.267 34.3419 38.377Z" fill="black"/>
<path fill-rule="evenodd" clip-rule="evenodd" d="M20.5078 16.8204C20.5438 16.8705 20.5799 16.9207 20.6159 16.9707C20.6327 16.9051 20.7245 16.7199 20.6622 16.6582C20.6107 16.7123 20.5592 16.7664 20.5078 16.8204Z" fill="black"/>
<path fill-rule="evenodd" clip-rule="evenodd" d="M21.7895 17.3162C21.7319 17.3034 21.5943 17.2474 21.5625 17.3187C21.6467 17.4107 21.8366 17.3267 21.7895 17.3162Z" fill="black"/>
</svg>
