<svg width="100" height="100" viewBox="0 0 100 100" fill="none" xmlns="http://www.w3.org/2000/svg">
<path fill-rule="evenodd" clip-rule="evenodd" d="M34.1797 45.8776C34.4863 50.0054 34.7929 54.1334 35.0996 58.2612C36.7689 56.9911 38.4384 55.7209 40.1077 54.4509V63.8548V66.3266C40.1077 66.5453 40.0103 67.2966 40.1077 67.486C40.1903 67.6466 40.802 67.6512 40.9467 67.6783C41.8906 67.8545 42.8367 68.0113 43.7842 68.1508C46.2813 68.5185 48.9541 69.0453 51.4607 68.6227C53.6397 68.2555 55.752 67.2222 57.7428 66.0197C58.4417 65.5976 59.1309 65.1458 59.8072 64.663C59.9506 64.5606 60.4711 64.319 60.5491 64.1106C60.6128 63.9404 60.4634 63.3423 60.4435 63.1633C60.3593 62.4092 60.2752 61.6549 60.1911 60.9007L59.0162 50.3684L61.2357 53.3234C61.4095 53.5549 61.7397 54.2122 61.9803 54.3148C62.1567 54.3901 62.5935 54.1572 62.7679 54.1124C64.0245 53.7895 65.2813 53.4666 66.538 53.1438C66.8307 53.0686 67.4906 53.0714 67.7374 52.8356C67.8703 52.7085 67.8765 52.45 67.9234 52.2051C68.23 50.6039 68.5365 49.0029 68.843 47.4019C68.8982 47.1135 69.2062 46.2042 69.128 45.9138C69.0999 45.8097 68.9639 45.7386 68.8807 45.6706C66.984 44.1261 65.0872 42.5814 63.1905 41.0367C62.1514 40.1906 61.1124 39.3444 60.0734 38.4982C59.6382 38.1437 59.1035 37.5051 58.6103 37.3068C58.3042 37.1837 57.8588 37.2759 57.542 37.2638C56.8982 37.2393 56.2545 37.2148 55.6107 37.1903C55.5099 37.1865 55.1568 37.0907 55.072 37.1699C55.0014 37.2358 55.0306 37.3277 55.0075 37.4847C54.9509 37.8682 54.9505 38.2817 54.9226 38.6711C54.9002 38.9835 54.9447 39.5564 54.8391 39.8392C54.7716 40.0199 54.8572 39.9479 54.7659 40.0353C54.6573 40.1393 54.3104 40.1058 54.1811 40.1258C53.5502 40.2235 52.9193 40.3212 52.2885 40.4189C51.5385 40.535 50.7801 40.753 50.0265 40.6526C48.8841 40.5006 47.6524 40.5081 46.5307 40.1872C46.2392 40.1038 46.1341 39.8848 45.9093 39.5854C45.4704 39.0011 45.0359 38.4099 44.5922 37.8317C44.3747 37.5484 44.4678 37.5964 44.2437 37.7039C43.9627 37.8385 43.6778 38.1635 43.4235 38.3701C42.4491 39.1614 41.4748 39.9527 40.5004 40.744L34.5519 45.5753C34.4278 45.6761 34.3038 45.7768 34.1797 45.8776Z" fill="#633B55"/>
<path fill-rule="evenodd" clip-rule="evenodd" d="M91.0757 46.3908C89.8495 52.598 87.3833 59.3661 82.4147 61.3446C81.2067 61.8255 80.0315 62.1887 78.7769 62.0056C78.6574 61.9881 78.5575 62.0105 78.4439 62.0133C78.2405 62.0185 78.4163 62.116 78.1879 62.0221C78.01 61.9488 77.8435 61.7655 77.6581 61.6845C77.165 61.4695 76.6394 61.4279 76.1383 61.2542C74.9072 60.827 73.6383 60.2998 72.4453 59.7109C71.8836 59.4336 71.3673 59.0474 70.839 58.676C70.3018 58.2985 69.7326 58.0641 69.1895 57.7178C68.7602 57.4441 68.0248 57.0874 67.723 56.5741C67.4013 56.0266 67.8465 54.861 67.9737 54.279C68.4065 52.2985 68.9218 50.347 69.2471 48.3271C70.3702 50.0626 71.9289 51.1373 73.5426 51.8305C74.4181 52.2066 75.3188 52.4785 76.2295 52.6487C77.0564 52.8031 77.9484 52.99 78.7772 52.7707C79.4029 52.6052 80.1882 52.2217 80.6351 51.585C80.7945 51.3577 80.9859 50.9409 80.8965 50.6108C80.7831 50.1916 80.4526 50.3889 80.2737 50.0761C80.1179 49.8036 80.1424 49.1664 80.0927 48.8346C80.0049 48.2474 79.8842 47.6762 79.7369 47.111C79.4511 46.0135 79.0949 44.9135 79.0095 43.7457C78.9353 42.7324 79.1084 41.7743 79.4874 40.8951C79.6665 40.4795 80.1164 39.3488 80.5555 39.3957C81.0376 39.4473 80.3874 42.1567 80.3662 42.7094C80.2819 44.9003 80.5023 47.2348 81.3455 49.1552C81.6683 49.8905 82.1353 50.7466 82.8245 50.8377C83.5547 50.9341 84.1436 50.1681 84.4912 49.3931C85.3392 47.5024 84.9116 44.9079 84.4822 42.9262C83.9554 40.4949 82.5804 38.819 81.7109 36.6355C83.009 36.8095 83.7041 37.9089 84.3702 39.3038C85.1037 40.8395 85.6746 42.6833 85.9562 44.4702C86.0984 45.373 86.0002 46.2795 86.0011 47.1912C86.0014 47.494 86.0013 48.6115 86.3717 48.5674C86.7675 48.5204 86.9032 47.2602 86.9615 46.8757C87.0949 45.994 87.2392 45.1121 87.3551 44.226C87.5602 42.6581 87.6513 41.0524 87.8969 39.4954C87.9384 39.2322 88.021 38.502 88.3166 38.6992C88.5443 38.8509 88.5078 39.9804 88.5162 40.2429C88.5366 40.8898 88.5654 41.5366 88.5693 42.1842C88.5751 43.144 88.4316 44.1374 88.502 45.0914C88.5479 45.7147 88.7988 46.4034 89.1099 45.5628C89.4183 44.7292 89.4812 43.6895 89.6531 42.793C89.8338 41.8518 90.0204 40.8966 90.4038 40.0607C90.5101 39.8287 90.6244 39.4605 90.8608 39.5696C91.0325 39.649 91.1593 40.1917 91.2124 40.3833C91.452 41.249 91.4113 42.2115 91.3962 43.1178C91.3777 44.2283 91.2883 45.3142 91.0757 46.3908ZM67.1646 48.0016C67.0991 47.9734 66.8207 47.9382 66.7517 47.9302C66.6708 47.9207 66.7626 47.7219 66.5668 47.7785C66.6046 47.9034 66.6717 47.9868 66.7683 48.0286C66.4738 48.1614 66.2566 47.8335 66.0553 47.7912C65.8627 47.7508 65.8545 47.7912 65.6643 48.0624C65.4584 47.7275 65.497 47.9364 65.3276 47.9366C65.266 47.9367 65.2634 48.0608 65.1631 48.0459C65.0755 48.0328 65.0663 47.8558 65.0145 47.835C64.7335 47.7215 64.4444 48.2921 64.1257 47.7972C64.0485 48.3121 63.1637 47.6671 62.8232 47.7577C62.4664 47.8523 62.6203 48.0229 62.332 47.7313C62.0572 47.4535 62.1338 47.6381 61.8141 47.8654C61.8216 47.8601 61.6337 48.0293 61.6512 48.032C61.4299 47.9975 61.4425 47.6925 61.1623 47.7087C60.8657 47.7259 60.7391 48.0358 60.4676 47.6544C60.4086 47.9401 60.3964 47.817 60.2573 47.889C60.1808 47.9132 60.1139 47.8864 60.0565 47.8087C60.0391 47.8872 60.0009 47.9353 59.9417 47.9531C59.7903 47.9712 59.5059 47.9993 59.3683 47.9021C59.1618 47.756 59.3278 47.7 59.1846 47.5358C59.1204 47.9885 58.9798 47.8923 58.6831 47.9345C58.4568 47.9668 58.407 47.8742 58.1908 47.8292C57.9779 47.7849 57.7028 47.8951 57.4952 47.942C57.4094 47.9615 57.2946 48.0412 57.2074 48.0132C57.1287 47.988 57.095 47.9066 57.048 47.8853C56.991 47.8597 57.0032 47.7931 56.9046 47.7609C56.8367 47.7388 56.715 47.8238 56.6471 47.8385C56.163 47.9432 55.6979 47.9443 55.2361 47.6904C55.4636 48.2234 54.7045 47.9356 54.5691 47.715C54.4 48.0683 54.1954 47.8189 53.8544 47.8464C53.526 47.873 53.0322 48.0071 52.8991 47.4619C52.8731 47.5726 52.6867 47.8943 52.6126 47.9434C52.3973 48.0856 52.3717 47.8752 52.1716 47.7896C51.8992 47.6728 51.956 47.8943 51.7872 47.9393C51.5021 48.0154 51.348 47.7477 51.096 47.6055C51.0854 47.8267 51.0799 47.9628 50.9364 48.1005C50.8094 47.4837 50.356 48.1509 50.4338 47.3266C50.2613 47.4763 50.0186 47.5914 49.9694 47.8943C50.2579 47.7885 50.0002 48.0399 49.9881 48.0483C49.95 48.0748 49.8212 47.8337 49.7913 47.7998C49.7831 47.9135 49.775 48.0273 49.7669 48.141C49.6519 48.0644 49.5441 47.9272 49.4508 47.8584C49.3667 47.7965 49.4872 47.6676 49.3452 47.6588C49.2703 47.654 49.1922 47.8702 49.1137 47.8886C48.9936 47.9167 49.0513 47.6869 49.001 47.6946C48.9244 47.7064 48.7997 47.8557 48.7417 47.8528C48.5518 47.8434 48.6804 47.7256 48.5355 47.6716C48.2765 47.5749 48.2932 47.8007 48.1071 47.8822C47.6812 48.0686 47.724 47.2108 47.2907 47.7829C47.1871 47.9198 47.1204 48.1312 46.9784 48.1193C46.6843 48.0948 46.7875 47.63 46.8473 47.4024C46.9091 47.4431 45.7729 48.2212 45.7819 48.1908C45.7891 48.0041 45.9677 47.8602 45.8081 47.6945C45.6775 48.068 45.5401 48.0746 45.239 48.1441C45.0926 48.1779 45.0638 48.2231 44.9072 48.1419C44.8074 48.0904 44.7404 47.8782 44.6412 47.8665C44.6546 47.8681 44.4724 48.0529 44.4446 48.0695C44.2803 48.1683 44.1763 48.0563 44.0166 48.0969C43.8804 48.1316 43.8268 48.2859 43.6913 48.2437C43.5105 48.1874 43.6168 47.8995 43.368 47.9798C43.2829 48.0072 43.2318 48.2257 43.0978 48.2708C42.889 48.3413 42.633 48.2099 42.4124 48.2785C42.2372 48.333 42.1071 48.356 41.9539 48.3674C41.8302 48.3766 41.8811 48.2483 41.6533 48.3998L41.5566 48.0751C41.4426 48.2119 41.3285 48.3485 41.2145 48.4853C41.1928 48.3627 41.1792 48.2386 41.1733 48.1129C41.0033 48.3401 40.789 48.3788 40.5604 48.3993C40.3128 48.4214 40.1283 48.4934 39.8874 48.5538C39.8112 48.5727 39.6151 48.6031 39.5525 48.5677C39.5616 48.5729 39.4353 48.5028 39.4734 48.5161C39.4569 48.4715 39.4417 48.4263 39.4276 48.3802C39.4064 48.252 39.3372 48.2464 39.2205 48.3633C39.16 48.3509 39.0428 48.2452 38.9825 48.2712C38.8272 48.3383 38.8483 48.4991 38.6934 48.4755C38.593 48.4601 38.5417 48.2622 38.4371 48.2487C38.2771 48.2283 38.1383 48.4672 37.9941 48.5193C38.4326 48.3605 37.4253 48.4837 37.7385 48.4946C37.5332 48.4875 37.32 48.4739 37.1302 48.5966C37.0254 48.501 37.1526 48.3089 37.0467 48.2298C36.9506 48.158 36.9432 48.3475 36.932 48.3517C36.9926 48.3288 36.9623 48.49 36.9017 48.5186C36.7127 48.6079 36.5615 48.3809 36.5517 48.1556C36.3911 48.4778 36.346 48.3483 36.1099 48.3682C35.8769 48.3878 35.6761 48.5506 35.4431 48.5476C34.9823 48.5418 34.6696 48.3282 34.5157 47.7796C35.0068 47.8594 35.501 47.4384 35.9811 47.5376C36.139 47.5701 36.2375 47.7282 36.3758 47.7001C36.5462 47.6656 36.6651 47.4178 36.8835 47.3911C37.3652 47.3323 37.8401 47.3896 38.3252 47.2911C38.9046 47.1734 39.5092 47.1038 40.0942 47.161C40.5462 47.2054 40.9122 46.9749 41.3706 46.9306C41.9633 46.873 42.5609 46.8628 43.1546 46.8213C43.7646 46.7787 44.421 46.6488 45.0294 46.6904C45.2193 46.7034 45.3827 46.7282 45.5712 46.7131C45.6509 46.7066 45.7264 46.6345 45.81 46.6453C45.9189 46.6593 45.9657 46.808 46.0787 46.8028C46.2707 46.7941 46.476 46.5831 46.7042 46.5774C47.0795 46.568 47.4532 46.5691 47.8294 46.5406C48.1607 46.5155 48.5156 46.4124 48.8453 46.418C49.0779 46.4218 49.1353 46.6861 49.2709 46.7133C49.5146 46.7623 50.7477 45.8268 50.8542 46.6664C51.4961 46.0807 52.357 46.5767 53.0715 46.4666C53.9894 46.3252 54.9241 46.4512 55.8482 46.4009C56.7886 46.3496 57.756 46.3971 58.6926 46.5153C59.0806 46.5643 59.4554 46.6102 59.8445 46.5805C60.0179 46.5673 60.2184 46.5082 60.3918 46.5616C60.4338 46.5745 60.7555 46.8738 60.7156 46.8824C60.8913 46.6721 60.7724 46.6413 61.0815 46.6306C61.3197 46.6222 61.5451 46.6908 61.782 46.7095C62.2072 46.7431 62.6357 46.6645 63.06 46.6818C63.4143 46.6963 63.7607 46.766 64.1168 46.7694C64.5007 46.7731 64.9541 46.7875 65.2318 47.2002C65.2025 47.0706 65.1733 46.9411 65.1439 46.8115C65.5724 46.8562 65.9958 47.0601 66.4291 46.9648C66.3195 47.1047 66.2082 47.2191 66.1663 47.4244C66.3999 47.3848 66.5581 47.1674 66.8041 47.1657C67.0106 47.164 67.0536 47.3022 67.2717 47.1237C67.2986 47.3424 67.3254 47.5611 67.3522 47.7797C67.6543 47.685 67.4561 47.3847 67.4782 47.114C67.7237 47.2123 67.9315 47.0994 67.8348 47.5703C67.7601 47.9333 67.4203 48.1122 67.1646 48.0016ZM66.7401 52.0454C66.6348 52.4399 65.7238 52.2145 65.5083 52.1728C65.23 52.119 64.9116 52.0338 64.6553 51.9915C64.6245 51.9368 64.5876 51.8905 64.5447 51.8523C64.5124 51.9122 64.4717 51.9547 64.4223 51.9797C64.3047 52.014 64.3043 52.176 64.1496 52.1402C64.1424 52.3799 64.2673 52.2437 64.363 52.3307C64.1219 52.5461 64.2321 52.2981 64.0969 52.302C64.0634 52.2386 64.0167 52.2138 63.9568 52.2274C63.8806 52.2538 63.8103 52.2973 63.7461 52.3579C63.6858 52.4428 63.6342 52.4471 63.5912 52.3712C63.55 52.3159 63.4998 52.2819 63.4404 52.2689C63.2029 52.3204 63.1365 52.4609 62.8691 52.438C62.4869 52.4051 62.0735 52.5395 61.6974 52.4687C61.4643 52.4249 61.0747 51.9366 60.9689 52.4126C60.8077 52.0597 60.551 51.8196 60.3967 51.459C61.1155 51.4036 61.8341 51.3376 62.5535 51.303C63.1834 51.2727 63.8724 51.3672 64.4611 51.3277C65.0125 51.2906 65.5964 51.2093 66.1594 51.1422C66.7562 51.0712 66.9536 51.2457 66.7401 52.0454ZM47.9876 52.1036C48.2486 52.1999 48.4972 51.9816 48.7503 52.0506C48.834 52.0733 49.0072 52.2765 49.0453 52.2805C49.115 52.288 49.3199 52.0885 49.4078 52.0618C49.9638 51.8931 50.6373 51.9111 51.1931 52.0147C51.4878 52.0695 51.5329 51.8898 51.79 51.8025C52.0573 51.7117 52.4371 51.7816 52.7185 51.7566C53.3805 51.6975 54.0422 51.7395 54.6997 51.675C55.3747 51.6087 56.0464 51.5729 56.7217 51.5265C57.1817 51.495 58.2873 51.1451 58.6685 51.6004C58.9829 51.9758 58.5779 52.6277 58.2634 52.7765C58.0282 52.8875 57.9155 52.6535 57.7409 52.6758C57.5421 52.7012 57.6114 53.0144 57.434 52.724C57.324 53.0128 56.6329 52.8896 56.4348 52.9087C56.0032 52.9503 55.638 53.0658 55.3442 52.529C55.3641 52.6837 55.384 52.8386 55.4039 52.9934C55.0143 52.7158 54.5962 52.8047 54.258 52.9015C54.0906 52.9494 53.5765 53.2805 53.3951 53.1377C53.2703 53.0395 53.4903 52.8715 53.2796 52.7876C53.1692 52.7437 52.9787 52.9881 52.8439 52.9758C52.4706 52.9416 52.5765 52.607 52.2099 53.0328C52.0857 52.8896 52.0444 52.6462 52.0607 52.4375C51.7944 52.7403 51.8167 53.2452 51.3406 53.1527C51.1631 53.1183 51.1305 52.877 51.038 52.8325C50.8409 52.7376 50.8186 52.9082 50.6479 53.0432C50.5834 53.0941 50.5048 53.176 50.4289 53.1863C50.273 53.207 50.2483 53.1115 50.227 53.1147C50.1233 53.1299 49.9926 53.2002 49.8695 53.15C49.7591 53.1048 49.7268 52.8451 49.5322 52.9057C49.346 52.964 49.3445 53.1327 49.3783 53.3851C49.1946 53.3597 49.0836 53.2233 48.9462 53.0757C48.8074 53.507 48.5155 53.1497 48.354 53.5137C48.1435 53.1788 48.0086 53.2709 47.7476 52.9438C47.7605 53.0803 47.7732 53.2168 47.786 53.3533C47.5823 53.3009 47.4917 53.1095 47.3179 53.3629C47.1493 52.9439 46.6379 53.5408 46.3752 53.1362C46.2582 53.6487 45.4835 53.5261 45.1563 53.535C44.8664 53.5429 44.6518 53.5112 44.3685 53.601C44.1181 53.6803 43.7712 53.7626 43.5358 53.7263C43.3819 53.7025 43.2138 53.6649 43.0221 53.6927C42.7458 53.7327 42.5072 53.9233 42.2209 53.8332C41.7899 53.6974 41.5258 52.9426 42.0058 52.611C42.3343 52.3841 42.9261 52.4681 43.2876 52.4263C43.8868 52.3569 44.5582 52.2113 45.1582 52.2775C45.6261 52.3292 46.0526 52.1803 46.5301 52.1174C46.8896 52.0701 47.4787 51.9848 47.7132 52.4598C47.8032 52.3211 47.7939 52.0322 47.9876 52.1036ZM41.4288 58.6057C41.3645 58.1785 44.1036 57.9432 44.3755 57.9153C44.9463 57.8566 45.5187 57.8148 46.0908 57.7954C46.5612 57.7795 47.0001 57.8992 47.4705 57.8029C47.9099 57.713 48.4402 57.5288 48.8226 57.9435C48.8788 57.3763 50.5276 57.6526 50.8413 57.6543C52.2068 57.6608 53.5135 57.665 54.8343 57.5523C55.5892 57.4879 56.3908 57.4012 57.1457 57.4515C57.4863 57.4743 57.7604 57.5952 58.0991 57.4902C58.3199 57.4218 58.558 57.2793 58.7692 57.4807C59.0164 57.7166 59.1221 58.5174 58.9518 58.8516C58.8278 59.0951 58.7179 59.0681 58.5198 59.026C58.2151 58.9614 57.9888 58.8674 57.6781 59.0326C57.7285 59.0057 57.47 59.0826 57.4915 59.0804C57.1396 59.1155 56.657 59.4432 56.3538 59.0654C56.4752 59.0938 56.6518 58.8047 56.4986 58.7808C56.3836 58.7631 56.3107 58.9274 56.2209 58.9825C55.9139 59.1708 55.7568 59.1119 55.5734 58.7169C55.2037 59.1436 55.1639 59.0255 55.0016 58.5C54.8766 58.6284 54.8498 58.9319 54.7514 59.0315C54.7368 59.0463 54.7973 59.2307 54.7263 59.2231C54.6604 59.216 54.6388 59.072 54.5881 59.0606C54.5558 59.0533 54.5389 58.927 54.508 58.9194C54.4743 58.911 54.4398 58.9916 54.4018 58.9893C54.3002 58.9829 54.0096 59.2712 54.1138 58.8666C53.9599 59.1277 53.8937 58.9612 53.8381 58.7237C53.6604 58.9038 53.4827 59.084 53.3049 59.264C53.2222 58.9577 53.08 59.0411 52.9011 59.1481C52.955 58.9353 52.9212 58.734 52.7859 58.882C52.7076 58.9676 52.655 59.2396 52.5748 59.3551C52.2503 58.9169 52.1324 59.0371 51.684 59.0941C51.5129 59.1157 51.3002 59.1579 51.1474 59.02C51.0129 58.8989 50.9369 58.4543 50.7071 58.8135C50.7583 58.7336 50.6781 59.3472 50.6639 59.4447C50.5625 59.3536 50.4764 59.2415 50.4055 59.1087C50.2732 59.4578 49.926 59.1445 49.6415 59.2158C49.1936 59.3282 48.7315 59.5173 48.3359 59.0729C48.3079 59.2164 47.9838 59.3991 47.9834 59.4047C48.0026 59.1507 48.1228 59.24 47.8772 59.1917C47.8321 59.1828 47.7808 59.2913 47.7381 59.3031C47.5917 59.3435 47.4207 59.3052 47.2732 59.2996C46.6594 59.276 46.0976 59.4573 45.4915 59.5231C45.2872 59.5452 45.0449 59.5887 44.853 59.486C44.6555 59.38 44.6609 59.2599 44.461 59.3281C44.5242 59.3065 44.336 59.5701 44.3463 59.5602C44.3194 59.5862 44.2072 59.4576 44.1674 59.4673C44.1557 59.5235 44.1442 59.5797 44.1325 59.6359C44.0843 59.6279 44.0361 59.62 43.988 59.6121C43.8562 59.6357 43.7373 59.4579 43.6135 59.4519C43.6363 59.453 43.2794 59.6301 43.2956 59.6409C43.0464 59.4752 43.118 59.5232 42.8019 59.6241C42.5031 59.7194 42.2056 59.6972 41.899 59.7567C41.0073 59.9293 41.5386 59.3335 41.4288 58.6057ZM40.6413 64.5498C40.4737 64.2327 40.9198 64.1231 41.0623 64.0951C41.2966 64.049 41.6075 64.1407 41.7637 64.091C42.0015 64.0156 42.231 63.8356 42.4988 63.7868C42.8366 63.7252 43.1772 63.7152 43.5165 63.6766C43.6294 63.6637 43.7694 63.6119 43.8793 63.6206C44.0431 63.6337 44.1111 63.7492 44.2433 63.75C44.4684 63.7515 44.7463 63.5619 44.9771 63.5272C45.2726 63.4824 45.5711 63.4616 45.868 63.4419C46.4937 63.4005 47.113 63.4177 47.7384 63.4167C48.0236 63.4162 48.7832 63.0215 48.9254 63.464C49.1232 63.1287 49.6304 63.1744 49.9132 63.1647C50.4112 63.1476 50.904 63.0836 51.4016 63.0527C51.8277 63.0263 52.3039 63.1479 52.7223 63.0627C52.9529 63.0158 53.0293 62.9173 53.2908 62.9618C53.4851 62.9946 53.7812 62.8577 53.948 62.9183C53.9394 62.9151 54.1561 63.0942 54.0885 63.0999C54.163 63.0935 54.1586 63.1629 54.2407 63.132C54.3486 63.0915 54.299 62.9106 54.5226 62.8464C54.8712 62.7462 55.3361 62.8622 55.6984 62.8365C56.0498 62.8115 56.4006 62.8007 56.7524 62.8029C56.9143 62.8039 57.1145 62.7523 57.272 62.7944C57.3493 62.815 57.5133 62.9494 57.5787 62.9359C57.7641 62.8973 57.8585 62.7256 58.1091 62.7362C58.3932 62.7482 58.6489 62.743 58.9313 62.7141C59.2048 62.6863 59.2487 62.6342 59.3843 62.9376C59.5186 63.2386 59.5557 63.6305 59.3084 63.8351C59.4691 63.821 59.6666 64.1078 59.4774 64.2666C59.3604 64.3647 59.1258 64.1433 58.9858 64.1592C58.8133 64.179 58.6778 64.3007 58.49 64.3082C58.2926 64.3162 58.0921 64.3825 57.8974 64.3875C57.6947 64.3928 57.5413 64.272 57.349 64.3234C57.1797 64.3688 57.1618 64.5538 56.958 64.3913C56.8568 64.3105 56.8396 64.0113 56.7015 64.0085C56.5163 64.0047 56.5902 64.3237 56.4837 64.4714C56.4551 64.0154 56.191 64.77 56.086 64.2164C55.9893 64.4002 55.6309 64.6574 55.4574 64.5097C55.2991 64.3751 55.3516 64.0705 55.2858 63.851C55.176 64.2454 54.8816 64.6547 54.9083 63.9365C54.7653 64.1712 54.3788 64.1341 54.4757 64.5449C54.3592 64.5419 54.3316 64.3202 54.2336 64.3034C54.149 64.2889 54.0818 64.3757 54.0688 64.3743C54.1152 64.3795 53.9302 64.4616 53.9273 64.4624C54.0525 64.4284 53.566 64.3706 53.6488 64.3716C53.536 64.3703 53.3977 64.4936 53.2658 64.4932C53.1455 64.4928 53.0259 64.4297 52.9072 64.4117C52.5994 64.3647 52.6635 64.4549 52.4703 64.5838C52.3987 64.6315 52.3807 64.7124 52.279 64.7023C52.2041 64.6948 52.176 64.5643 52.1675 64.5632C52.0621 64.549 52.1399 64.5018 51.9762 64.5236C51.9574 64.5667 51.9387 64.6097 51.9199 64.6528C51.8607 64.7537 51.784 64.7789 51.6898 64.7286C51.4475 64.7979 50.6438 65.0983 50.7225 64.542C50.5993 64.6222 50.4762 64.7025 50.353 64.7829C50.3002 64.3343 49.6311 64.929 49.4817 64.959C49.2899 64.9974 49.2722 64.8993 49.0909 64.8471C49.0582 64.8377 48.9927 64.9814 48.9161 64.9608C48.7172 64.9075 48.6818 64.881 48.6477 64.593C48.5059 64.9465 48.388 64.7884 48.1308 64.8465C48.0739 64.8595 48.0375 65.0088 47.9558 64.983C47.8969 64.9645 47.8953 64.821 47.8547 64.8025C47.8182 64.7857 47.8237 64.6725 47.7699 64.6564C47.7082 64.6379 47.4977 64.868 47.4373 64.9034C47.3012 64.9835 47.0776 65.1159 46.9447 65.0762C46.7803 65.0272 46.8534 64.8648 46.6212 64.8831C46.2549 64.9117 46.1021 65.3274 45.8742 64.6724C45.7713 64.9348 45.7844 65.006 45.6192 65.0926C45.4971 65.1565 45.1879 65.0897 45.0272 65.0818C44.3407 65.048 43.6658 65.3598 42.985 65.2781C42.6858 65.2423 42.4335 65.1625 42.1315 65.2277C41.8143 65.2964 41.5039 65.3973 41.182 65.438C41.0184 65.4586 40.6764 65.5213 40.5961 65.2423C40.5254 64.9967 40.789 64.8292 40.6413 64.5498ZM41.9876 74.6199C41.0972 75.4141 40.3598 76.4986 39.5422 77.417C38.7226 78.3377 38.0721 79.3612 37.335 80.3808C36.6534 81.3233 36.0273 82.215 35.2033 82.9271C34.6819 83.3779 34.2168 83.9327 33.6812 84.3578C33.2801 84.676 32.6724 85.0947 32.8681 84.1212C33.0687 83.1233 33.439 82.1149 33.7606 81.1831C34.2178 79.8585 34.6785 78.5462 35.1731 77.2468C35.359 76.7586 35.463 76.2725 35.7578 75.8836C36.0786 75.4603 36.3032 74.9078 36.6545 74.5078C38.1322 72.8257 40.3592 74.1253 41.9876 74.6199ZM44.7807 75.1902C44.3768 75.4725 43.9248 75.5424 43.4967 75.7291C43.1319 75.8881 42.7928 76.171 42.4005 76.1919C42.7576 75.8344 43.0644 75.3486 43.467 75.0773C43.9199 74.7719 44.3309 74.9942 44.7807 75.1902ZM62.5084 77.5427C61.0227 76.8743 59.6396 75.8895 58.1926 75.0969C57.9428 74.96 55.9893 74.1022 56.0289 73.6939C57.3979 73.3596 58.8077 72.7857 60.18 73.4114C61.4283 73.9806 62.4437 75.3458 63.4101 76.4884C63.6622 76.7865 65.2216 78.1442 65.0821 78.5766C64.9854 78.8764 64.2341 78.7946 64.0566 78.7332C63.8274 78.6537 63.6954 78.4682 63.5156 78.2644C63.2151 77.9238 62.8826 77.711 62.5084 77.5427ZM59.7658 66.3762C59.9915 66.0994 60.1265 65.6794 60.3421 65.4238C60.619 65.0954 61.066 65.2554 61.3686 65.426C62.2771 65.9378 63.0536 66.7983 63.9564 67.3323C64.9569 67.9241 65.8231 68.7151 66.7255 69.5302C67.5504 70.2751 68.4423 70.8919 69.2843 71.603C70.1423 72.3276 71.1027 72.7987 71.9725 73.4976C72.8576 74.209 73.7393 74.9233 74.59 75.7071C76.1068 77.1051 77.6861 78.5405 78.8082 80.528C79.385 81.5495 79.9249 82.7082 80.3481 83.8554C80.7328 84.8982 81.1501 86.3458 80.6516 87.4306C80.1728 88.4723 79.3567 89.293 78.6659 90.0703C78.4043 90.3646 78.1555 90.7221 77.8164 90.8498C77.404 91.0048 76.9228 90.962 76.4986 91.0078C74.2308 91.253 72.118 91.0216 69.8831 90.4808C67.7282 89.9594 65.5642 89.6674 63.3927 89.305C62.1677 89.1006 60.9429 88.8625 59.7345 88.5219C59.2179 88.3764 58.6923 88.2086 58.1868 88.0103C57.7454 87.8371 57.3742 87.4558 56.9203 87.3047C54.9941 86.6634 52.7901 86.4182 50.8831 85.3393C52.5707 84.4043 54.3641 83.8394 56.0937 83.0624C57.9141 82.2446 59.692 81.5584 61.6107 81.326C62.5981 81.2064 63.4817 80.8702 64.4314 80.5184C65.3365 80.1831 66.2814 80.0803 67.2112 79.93C67.6246 79.8632 68.8045 79.9632 68.9414 79.2427C69.1454 78.1699 67.9862 78.046 67.492 78.1422C66.7909 78.2784 66.2128 78.5117 65.6763 77.7449C65.1284 76.9618 64.5961 76.16 64.0383 75.3868C63.0041 73.9532 61.9382 72.295 60.4762 71.6518C58.6927 70.8671 56.6245 71.612 54.845 72.0582C52.9653 72.5295 51.0887 72.9807 49.2444 73.6658C48.4805 73.9495 47.4956 74.5745 46.7029 74.4741C45.9216 74.375 45.0367 74.2045 44.2818 73.9041C43.9402 73.7682 43.6594 73.5164 43.3537 73.2815C42.9562 72.9761 42.5208 72.7804 42.099 72.543C41.246 72.063 40.4144 71.6208 39.4942 71.4321C38.7193 71.2732 37.8963 71.179 37.1453 71.5412C36.4086 71.8966 35.7557 72.6202 35.2416 73.3931C34.6833 74.2329 34.2217 75.1739 33.7641 76.1122C33.5443 76.5625 33.2762 76.9555 33.0486 77.3957C32.8576 77.7654 32.746 78.1761 32.5438 78.5355C32.0914 79.3394 31.7842 80.3677 31.51 81.3029C31.2054 82.3417 30.867 83.577 30.9397 84.707C30.9672 85.1341 30.9959 85.6998 31.1198 86.0958C31.2774 86.5995 31.5022 86.5867 31.8261 86.7767C32.3827 87.103 32.5387 88.0052 33.2579 87.8293C33.9325 87.6645 34.5176 86.9233 35.0098 86.3324C35.6513 85.5626 36.2652 84.7508 36.8791 83.942C37.509 83.1119 38.1298 82.1913 38.6308 81.2147C38.8281 80.8303 38.9818 80.3961 39.2149 80.046C39.5118 79.6001 39.8451 79.5465 40.2483 79.3689C43.7736 77.816 47.3159 76.3179 50.9511 75.2926C51.8221 75.0469 52.7001 74.7299 53.5557 74.4029C54.4631 74.0561 54.933 74.4227 55.6819 75.0827C57.2465 76.4621 59.0958 77.4336 60.8381 78.3335C61.3866 78.6169 62.2599 78.6349 62.6888 79.1937C60.1469 79.7103 57.7245 80.7044 55.2728 81.6943C54.064 82.1823 52.8413 82.6054 51.6279 83.0721C50.4141 83.539 49.2465 84.1439 48.0493 84.6703C46.8579 85.1941 45.5988 85.4078 44.3958 85.891C43.1678 86.3842 41.9449 86.7235 40.6844 87.0232C39.4117 87.3261 38.1477 87.6755 36.8706 87.9466C36.2859 88.0707 35.7012 88.1994 35.1229 88.3702C34.5571 88.5374 34.0105 88.9375 33.4418 89.0302C30.9022 89.4445 28.4125 90.3676 25.8829 90.8893C23.994 91.2789 20.708 91.8224 19.4832 89.2957C18.2515 86.7547 19.7626 83.7907 21.1108 81.9739C21.9487 80.8447 22.8903 79.851 23.8781 78.9669C24.9353 78.0208 25.9524 76.9991 27.0098 76.0544C29.4028 73.9164 31.9976 72.1726 34.5685 70.4546C35.8026 69.63 36.9948 68.7456 38.1952 67.8407C38.791 67.3915 39.1208 68.1163 39.5917 68.6088C39.9621 68.9964 40.6423 69.9515 41.1606 69.51C41.1805 69.669 41.2005 69.828 41.2204 69.9871C41.3722 69.8948 41.5241 69.8026 41.6759 69.7103C41.7779 70.0669 41.7659 70.2884 42.0508 70.4756C42.2257 70.5907 42.599 70.7291 42.7658 70.5265C42.7998 70.6673 42.8339 70.8081 42.8679 70.9488C43.0136 70.9339 43.0418 70.3778 43.0693 70.2476C43.3192 70.7342 43.6648 71.1408 44.1039 71.2783C44.1061 71.2465 44.0325 70.8468 44.0357 70.8443C44.1746 70.7309 44.3499 71.2166 44.4236 71.3207C44.6678 71.6653 44.8135 71.6118 45.0833 71.3336C45.1029 71.362 45.1942 71.6797 45.2075 71.674C45.2659 71.6493 45.3768 71.3677 45.3889 71.3421C45.3721 71.7125 45.9083 71.7871 46.0977 71.7076C46.0552 71.599 46.0127 71.4906 45.9703 71.382C46.6299 71.2646 46.8889 72.199 47.522 72.1516C47.9901 72.1164 47.6147 71.98 47.8796 71.7127C48.1109 71.4791 48.1522 71.99 48.1749 71.9738C48.219 71.9121 48.2532 71.8413 48.2776 71.7613C48.3632 72.1988 49.045 72.5912 48.9746 71.8719C49.2428 72.0149 49.4332 72.2524 49.7301 72.3026C50.0909 72.3635 50.4763 72.2614 50.8362 72.2215C51.6119 72.1355 52.343 71.9245 53.0421 71.4508C53.4567 71.1699 53.8979 70.915 54.2875 70.5761C54.6136 70.2925 55.2322 69.4314 55.6664 69.8022C55.5552 69.3649 56.0787 69.7702 56.0953 69.2068C56.1794 69.2914 56.2635 69.3758 56.3475 69.4603C56.398 69.3129 56.3839 69.0807 56.4514 68.9522C56.5442 68.7758 56.5895 68.8797 56.6685 68.7804C56.757 68.6694 56.8342 68.372 56.9402 68.2873C57.0496 68.2001 57.1782 68.3041 57.2957 68.228C57.4748 68.1119 58.2451 66.9795 58.1147 67.9498C58.4459 67.7998 58.1905 67.6626 58.2319 67.3683C58.3149 66.7786 58.5172 67.203 58.7187 67.2544C59.0485 67.3387 59.0419 66.9751 59.2259 66.7108C59.3938 66.4695 59.7095 66.3615 59.6008 65.9423C59.725 66.0316 59.7514 66.2064 59.7658 66.3762ZM39.8814 53.7814C39.6215 54.1673 39.4269 54.0023 39.138 53.9457C39.1071 53.8076 39.0542 53.7885 38.9796 53.8883C38.894 53.9539 38.8019 53.9971 38.7033 54.0177C38.4665 54.0956 38.2204 54.0624 37.9886 54.1804C37.9952 54.0769 38.0767 53.8929 38.0245 53.7878C37.7808 54.0125 37.6297 54.1556 37.3304 54.1598C37.0879 54.1632 36.6622 53.9162 36.4609 54.2115C36.4546 54.0965 36.4484 53.9817 36.4423 53.8667C36.3437 53.9322 36.2579 54.0199 36.1848 54.1298C36.171 53.9595 36.1634 53.8307 36.0789 53.693C35.9187 54.1324 35.7432 54.1428 35.432 53.9749C35.4756 53.9983 35.1204 53.7208 35.134 53.7977C35.0217 53.1669 36.7943 53.219 36.9804 53.194C37.4451 53.1314 37.9098 53.0952 38.3752 53.038C38.8166 52.9839 39.1461 52.8921 39.4516 53.3832C39.3155 52.6739 40.6034 52.7091 39.8814 53.7814ZM19.5578 42.7819C19.6066 43.8542 19.7856 44.994 19.4729 46.026C19.2215 46.8556 18.72 47.7924 18.1798 48.3338C17.0737 49.4422 16.1361 48.0859 15.9822 46.5952C15.8217 45.0405 16.1398 43.1407 17.1439 42.182C17.7438 41.6093 18.3248 41.649 19.0155 41.8373C19.1778 41.8816 19.4411 41.8646 19.5339 42.0795C19.5556 42.1298 19.5361 42.781 19.5578 42.7819ZM34.2488 57.0684C34.0578 57.197 33.8579 57.2723 33.6894 57.4473C33.6309 57.5081 33.611 57.6465 33.5488 57.6976C33.4359 57.7908 33.2744 57.729 33.1566 57.8059C32.9617 57.9329 32.8219 58.1147 32.5902 58.2317C32.2462 58.4055 31.9445 58.6439 31.6194 58.87C31.0775 59.2467 30.4961 59.57 29.9296 59.8767C29.6437 60.0315 28.8529 60.3331 28.8803 60.8913C28.8163 60.9143 28.751 60.7278 28.6174 60.7426C28.4341 60.763 28.1919 61.0456 28.0016 61.1152C27.6455 61.2452 27.3699 61.2566 27.3699 61.8618C27.2566 61.7591 27.2278 61.5079 27.0771 61.4747C26.9074 61.4372 26.836 61.6813 26.7002 61.7572C26.5403 61.8467 26.3415 61.7609 26.1832 61.8561C26.1139 61.9537 26.037 62.039 25.9523 62.1116C25.8662 62.1249 25.7805 62.1215 25.6952 62.101C25.3591 62.1961 25.0498 62.3646 24.7129 62.4522C24.3846 62.5377 24.1597 62.5688 24.2977 63.0864C23.9465 63.1781 23.8607 62.6811 23.4645 62.8629C22.9787 63.0855 22.5248 63.2461 22.0177 63.3819C21.7591 63.4512 21.4889 63.6059 21.2284 63.6421C21.0426 63.668 20.8691 63.5794 20.6862 63.6069C20.4656 63.6399 20.2884 63.7762 20.0602 63.7812C19.8437 63.7863 19.6164 63.7344 19.4038 63.6836C19.4339 63.7977 19.4715 63.9072 19.5166 64.0121C19.3696 63.971 19.3018 63.7354 19.1772 63.7005C19.0464 63.6639 18.9292 63.8438 18.8203 63.804C18.774 63.7869 18.8048 63.5963 18.7219 63.5599C18.6463 63.5269 18.6144 63.5659 18.5394 63.5502C18.5144 63.545 18.2008 63.5224 18.1508 63.5576C18.0635 63.6193 18.1518 63.735 18.1345 63.7522C17.8395 64.0432 17.836 63.8861 17.7045 63.5821C17.5114 63.1359 17.2786 63.4175 16.9277 63.3394C16.5367 63.2524 16.2286 63.4824 15.8437 63.4497C15.4285 63.4144 14.9406 63.0002 14.5736 62.7583C13.781 62.236 13.0081 61.7417 12.3424 60.9506C11.0412 59.4042 9.98255 57.5024 9.35839 55.3251C8.68774 52.9861 8.56066 50.5465 8.6145 48.065C8.64688 46.5726 8.73647 45.0811 8.91289 43.6062C9.03435 42.5916 9.05979 40.7886 9.91768 40.3266C10.0652 42.7022 9.59978 45.1229 9.89327 47.483C9.98163 48.1939 10.1972 49.1411 10.6051 49.6676C11.209 50.447 11.3503 49.3204 11.4049 48.6981C11.5066 47.5423 11.6955 46.3929 11.8292 45.2426C11.9628 44.0927 12.0572 42.93 12.243 41.7923C12.3108 41.3775 12.8571 38.3396 13.258 38.4834C13.1769 40.6934 12.9615 42.8654 12.953 45.0836C12.9496 45.9733 12.8899 46.913 12.9862 47.7968C13.0357 48.2516 13.3464 49.5862 13.8807 49.475C14.3751 49.372 13.8315 48.4319 13.7853 48.0694C13.6631 47.1098 13.819 45.9158 13.933 44.9633C14.1487 43.1608 14.6301 41.3146 15.4169 39.8083C16.1215 38.4594 17.2065 37.1754 18.5136 37.4132C19.072 37.5149 19.5077 37.6998 19.7883 38.3798C20.0085 38.9134 20.8758 39.5197 20.3732 40.1878C19.9156 40.796 19.1756 40.3091 18.667 40.1642C18.0443 39.9866 17.3769 40.2002 16.8561 40.6868C15.9626 41.5213 15.4533 43.0135 15.2871 44.4129C15.0631 46.2999 15.6619 51.2389 17.8675 50.132C19.3327 49.3965 20.4363 46.7512 20.3133 44.726C20.264 43.9153 20.0263 42.3762 20.8675 42.1574C21.9452 41.877 22.0974 43.4611 21.9883 44.4904C21.8297 45.9877 21.2362 47.38 20.5572 48.5639C19.9654 49.5956 19.2771 50.2408 18.5649 51.093C18.3541 51.3453 17.8164 51.9124 17.9067 52.3817C18.0057 52.8959 18.8508 53.0421 19.1892 53.1267C20.8633 53.5445 22.7512 53.1601 24.4225 52.8684C27.8574 52.2686 31.2472 50.7915 34.0638 48.0757C34.1776 49.756 34.321 51.4308 34.3738 53.1173C34.3995 53.9359 34.406 54.7664 34.4762 55.5805C34.5194 56.0814 34.6756 56.781 34.2488 57.0684ZM24.7243 62.9236C24.5895 63.0175 24.7353 62.4488 24.6978 62.6369C24.8992 62.7332 24.9081 62.8288 24.7243 62.9236ZM38.9734 42.588C39.1876 42.2734 39.7724 41.525 39.958 42.2352C40.0271 41.9325 40.0361 41.4841 40.3027 41.8929C40.4088 41.3907 41.5798 41.4377 41.8698 41.4155C42.7985 41.3447 43.731 41.3068 44.6564 41.1838C46.558 40.9311 48.4928 41.0615 50.4013 41.0532C50.8147 41.0514 51.2269 41.0215 51.6371 41.1015C52.0331 41.1786 52.4491 41.3951 52.8526 41.316C53.2114 41.2456 53.4467 41.1137 53.816 41.1702C54.2579 41.2377 54.6868 41.2857 55.1326 41.2835C57.1045 41.274 59.0754 41.3805 61.0477 41.3846C61.4321 41.3854 61.8926 41.2853 62.2532 41.5029C62.3868 41.5837 62.5328 41.8522 62.6348 41.8816C62.7518 41.9153 62.6823 41.672 62.8388 41.7819C63.0486 41.9289 62.8862 42.3811 62.7477 42.4529C62.8307 42.4099 62.598 42.3676 62.6213 42.366C62.5108 42.3739 62.4166 42.4868 62.298 42.4797C62.1174 42.4692 61.9662 42.3224 61.8207 42.1931C61.8182 42.2459 61.8982 42.5978 61.8069 42.6156C61.7283 42.631 61.6547 42.2839 61.6468 42.2032C61.2056 42.7221 60.7381 42.4328 60.1906 42.4986C59.8023 42.5452 58.9925 42.8906 58.7216 42.3501C58.7104 42.465 58.6757 42.5657 58.6179 42.652C58.5405 42.8092 58.4736 42.7958 58.417 42.6115C58.3979 42.6127 58.2092 42.6674 58.2055 42.667C58.0727 42.6529 57.9006 42.5894 57.7656 42.574C57.5565 42.5502 57.5951 42.753 57.4285 42.7563C57.3376 42.7581 57.1057 42.583 56.9472 42.5721C56.6726 42.553 56.3921 42.7083 56.1212 42.6612C55.9346 42.6289 55.7661 42.4266 55.5831 42.4186C55.3551 42.4086 55.2812 42.6404 55.1006 42.3147C55.0635 42.3014 55.0406 42.493 55.0259 42.4962C55.0295 42.4954 54.854 42.5301 54.8332 42.5408C54.7972 42.5592 54.6569 42.6449 54.6142 42.6458C54.5219 42.6482 54.4719 42.5601 54.3741 42.558C54.2124 42.5543 53.6961 42.7442 53.7105 42.3453C53.1335 42.6304 52.641 42.5193 52.0486 42.5867C51.7768 42.6177 51.6061 42.5692 51.3475 42.5027C51.0237 42.4193 50.8086 42.5241 50.4856 42.5452C50.1753 42.5655 50.0774 42.3904 49.8155 42.2324C49.7121 42.17 49.6439 42.0878 49.5171 42.1225C49.4449 42.1422 49.4963 42.3045 49.4749 42.3156C49.3636 42.3728 49.2858 42.3121 49.1332 42.326C48.8514 42.3517 48.7392 42.6657 48.4495 42.3709C48.5457 42.3554 48.642 42.3396 48.7384 42.324C48.4613 42.1674 48.0957 42.0875 48.1628 42.6577C47.9266 42.6135 48.1311 42.399 48.0149 42.3222C47.8988 42.2456 47.7687 42.3739 47.6224 42.4373C47.2362 42.6044 46.9141 42.5215 46.5113 42.4915C46.0537 42.4574 44.983 42.9553 44.6553 42.3089C44.6455 42.4451 44.5357 42.8246 44.3898 42.8068C44.3422 42.8009 44.4749 42.3981 44.4899 42.3554C44.4147 42.5688 44.0717 42.6093 43.9026 42.72C43.9216 42.6053 43.9405 42.4907 43.9594 42.3761C43.8025 42.5989 43.7262 42.463 43.5415 42.5374C43.4608 42.57 43.3439 42.792 43.2749 42.8054C43.1945 42.681 43.0933 42.6276 42.9716 42.6449C42.8906 42.6179 42.8095 42.6126 42.7286 42.6291C42.4045 42.6604 42.109 42.9006 41.7866 42.7371C41.5075 42.5952 41.3995 42.2307 41.2331 42.8107C41.1893 42.7076 41.1455 42.6045 41.1017 42.5014C41.0478 42.6134 40.9938 42.7252 40.9397 42.837C40.7286 42.6527 40.7156 42.5459 40.4726 42.6137C40.4156 42.6439 40.357 42.6397 40.2972 42.6008C40.2829 42.6577 40.2686 42.7144 40.2543 42.7712C40.2485 42.9139 40.2168 42.9611 40.1589 42.9126C40.1103 42.8893 40.0664 42.8539 40.0273 42.8065C39.8665 42.8228 39.6611 42.8793 39.4886 42.8481C39.422 42.8362 39.0045 42.5423 38.9734 42.588ZM43.8932 38.7491C43.9121 38.7878 43.9311 38.8265 43.95 38.8653C43.689 39.0491 43.6276 38.9435 43.6006 38.5745C43.7281 38.5778 43.7499 38.8769 43.8932 38.7491ZM44.0549 38.5325C44.1806 38.6064 44.3247 38.7517 44.4431 38.5571C44.5228 38.8659 43.9309 39.2875 44.0549 38.5325ZM44.8666 38.6689C45.1305 38.9067 44.4975 38.7155 44.4986 38.7159C44.6124 38.5759 44.735 38.5602 44.8666 38.6689ZM47.1362 37.343C47.2267 37.9517 47.4763 37.9344 47.8792 37.6514C48.4666 37.2386 48.5658 36.5627 48.6068 35.7555C48.6461 34.9816 48.7171 34.682 49.3157 34.8436C49.7335 34.9564 50.0868 34.8616 50.508 34.846C50.9575 34.8295 51.1158 34.921 51.152 35.5377C51.1882 36.1552 51.2706 36.624 51.6067 37.094C51.9484 37.5717 52.404 37.8569 52.8479 38.1242C53.0763 38.2616 53.2907 38.4094 53.5433 38.4391C53.6412 38.4507 54.1506 38.3648 54.1613 38.5797C54.1692 38.7413 53.4637 39.197 53.3889 39.2513C53.0617 39.4886 52.7354 39.7015 52.3779 39.8452C51.5557 40.176 50.6838 40.1955 49.8321 40.1755C48.4589 40.1433 46.5611 39.3689 45.7399 37.7444C46.2054 37.6107 46.6708 37.4767 47.1362 37.343ZM47.013 32.0708C46.7957 31.8276 46.655 31.4604 46.4745 31.1725C46.3835 31.0273 46.3168 30.9811 46.2302 30.9084C46.139 30.8319 46.0876 30.9401 46.0115 30.7603C45.8148 30.2954 46.4216 29.6412 45.778 29.4623C45.5604 29.4016 45.0363 29.6317 44.9728 29.2157C44.8829 28.6276 45.7248 28.5891 45.9229 28.2906C46.3168 27.6971 46.0495 26.691 46.2893 26.0063C46.5164 25.3577 47.1027 25.2425 47.5653 25.0476C48.21 24.7762 48.8625 24.6189 49.5171 24.4016C49.9749 24.2498 50.7353 23.6399 51.1597 24.1788C50.5047 24.3727 50.8855 24.6771 51.3221 24.8489C51.8166 25.0437 52.3407 25.1196 52.8532 25.1739C53.3807 25.2297 53.9182 25.2403 54.4394 25.1001C54.9214 24.9704 55.4597 24.4119 55.9651 24.5549C55.6847 25.205 54.8494 25.5601 54.3417 25.7304C54.0831 25.8171 53.9175 25.79 53.9522 26.22C53.9858 26.6367 54.2576 27.0546 54.319 27.4886C54.4001 28.0632 54.3292 28.591 54.1758 29.1313C54.025 29.6629 53.9897 29.7323 54.1216 30.2403C54.327 31.0312 53.8854 31.9054 53.4773 32.4798C51.8268 34.8021 48.6681 33.9224 47.013 32.0708ZM51.207 18.1908C51.2081 18.2055 51.2137 18.2145 51.207 18.1908V18.1908ZM51.7211 24.0517C51.6526 24.1199 51.2585 24.2628 51.275 24.0574C51.297 23.7822 51.6522 23.8817 51.7211 24.0517ZM52.6194 18.4926C52.527 18.4007 52.2679 18.4385 52.4573 18.09C52.519 18.2433 52.5693 18.368 52.6194 18.4926ZM46.4029 16.2901C46.5208 15.8817 46.6514 15.5017 46.7045 15.067C46.7373 14.7992 46.6721 14.4933 46.9529 14.4513C46.5951 14.2432 46.5914 13.4218 46.5703 12.9961C46.5412 12.4097 46.4023 11.6246 46.5956 11.0789C46.794 10.5182 47.0616 10.5275 47.1424 11.1952C47.1741 11.4566 47.053 11.5412 47.0303 11.7232C46.9853 12.0834 47.0748 12.0044 47.2491 11.73C47.321 12.0089 47.3486 12.428 47.6413 12.4102C47.6218 12.3348 47.5097 12.1685 47.5472 12.0748C47.6047 11.9309 47.8859 12.1507 47.9216 12.184C48.1784 12.4235 48.234 12.6421 48.0509 12.9441C48.3044 12.9805 48.0916 13.2765 48.2553 13.3536C48.505 13.4713 48.3375 12.9137 48.3105 12.8157C48.4625 12.8948 48.5134 12.985 48.6097 13.1451C48.6662 13.2556 48.7176 13.3703 48.764 13.4889C48.8157 13.7055 48.9222 13.7598 49.0836 13.6517C49.407 13.787 49.8534 13.7659 50.1433 14.0024C50.2757 14.1104 50.3235 14.3467 50.4341 14.4364C50.5586 14.5375 50.7253 14.4916 50.859 14.5551C50.8101 14.7032 50.8497 14.7833 50.9776 14.7959C51.077 14.808 51.1732 14.8379 51.2663 14.8853C51.3359 14.8154 51.4117 14.7602 51.4934 14.7199C51.5483 14.8491 51.626 14.881 51.7265 14.8159C52.0247 14.8904 52.168 15.0408 52.3575 15.2657C52.5277 15.4675 52.3892 15.4839 52.5756 15.466C52.6505 15.4588 52.7817 15.2894 52.9531 15.3224C53.0516 15.348 53.1467 15.3886 53.2383 15.4439C53.3373 15.5568 53.4424 15.571 53.5535 15.4866C53.7341 15.6043 53.7519 15.8128 53.9721 15.8413C54.2156 15.8729 54.1372 15.4682 54.3045 16.039C54.5296 15.4338 54.6122 16.398 54.8447 16.4758C55.0854 16.5566 55.1115 16.2962 55.3176 16.5807C55.3794 16.6659 55.376 16.8068 55.4453 16.8972C55.559 17.0452 55.7128 17.0156 55.8115 17.2174C55.7565 17.1048 55.8245 17.6166 55.8234 17.5996C55.8387 17.8255 55.6882 18.0784 55.9967 18.0592C55.9932 18.0829 55.8451 18.3708 55.8161 18.3382C55.8091 18.3054 55.8031 18.2721 55.7984 18.2384C55.7653 18.2574 55.7506 18.5316 55.7567 18.58C55.7828 18.5855 55.7936 18.5596 55.7888 18.5023C55.7381 18.7138 55.8145 18.8481 55.7172 19.0488C55.6548 19.1772 55.4843 19.2736 55.3936 19.3528C55.175 19.544 54.961 19.7357 54.7477 19.9392C54.2503 20.4138 53.6934 20.986 53.067 21.085C53.3816 20.6731 55.1916 19.1146 54.2837 18.6671C54.1154 18.5842 53.8088 18.5057 53.6327 18.4882C53.4137 18.4665 53.1872 18.6337 52.9457 18.5294C52.6542 18.4037 52.764 18.0383 52.5859 17.9073C52.2078 17.6292 52.2971 18.2831 52.1781 18.4544C52.0531 18.2794 52.0798 18.1944 51.8825 18.1785C51.6821 18.1624 51.6344 18.4094 51.4005 18.2556C51.0783 18.0435 51.2488 17.6212 50.7918 17.6112C50.7994 17.5185 50.8657 17.2594 50.7785 17.1871C50.6609 17.3905 50.7519 17.6178 50.6428 17.8135C50.5882 17.9117 50.4697 17.9899 50.3832 18.0217C50.1805 18.0959 50.1517 18.238 50.1847 17.8312C50.0345 18.1919 49.574 18.0435 49.3001 18.0073C48.8548 17.9482 48.3816 17.8358 47.9547 17.6455C47.5598 17.4693 47.349 17.1667 47.0233 16.8913C46.9002 16.7872 46.8415 16.827 46.665 16.7623C46.4907 16.6985 46.3209 16.5748 46.4029 16.2901ZM47.3425 9.90349C47.4098 9.84949 47.4581 10.6553 47.3766 10.8058C47.2274 10.4912 46.9629 10.0298 47.3425 9.90349ZM47.5573 9.58207C47.7734 9.32119 47.6233 9.995 47.5836 10.108C47.5035 10.0396 47.4234 9.97113 47.3434 9.90267C47.4455 9.81908 47.4711 9.68612 47.5573 9.58207ZM55.7135 8.49616C57.7108 9.055 59.6898 10.0996 61.2917 11.8187C62.7509 13.3845 63.7807 15.6061 64.3581 17.9692C64.9574 20.4221 64.7561 23.1435 63.3302 25.0207C62.5791 26.0096 61.5871 26.6062 60.6418 27.1883C60.1889 27.4672 59.7224 27.6996 59.2677 27.9721C58.9411 28.1677 58.5424 28.4809 58.1698 28.4266C58.3599 28.1598 58.6357 28.1544 58.8659 27.9913C59.1438 27.7941 59.3709 27.4157 59.6106 27.1454C59.8485 26.877 60.3762 26.0319 60.7418 26.2365C60.691 25.7863 61.0758 25.5773 61.2491 25.2804C61.4325 24.9663 61.4457 24.5991 61.7835 24.4963C61.4206 24.1177 61.5318 23.4037 61.6106 22.8883C61.7117 22.2293 61.7584 21.6242 61.7982 20.9535C61.8699 19.7443 61.9277 18.204 61.4267 17.141C61.264 16.7959 61.0571 16.4787 60.912 16.1202C60.7371 15.6882 60.7757 15.3078 60.7757 14.8342C60.4561 15.1206 60.3887 14.5366 60.2536 14.252C60.1523 14.0385 60.0192 13.9192 59.9865 13.6505C59.9627 13.455 60.1218 13.422 60.0346 13.217C59.9277 13.3247 59.885 13.4916 59.8308 13.6466C59.732 13.5939 59.8485 13.4106 59.7919 13.3511C59.7903 13.3494 59.5997 13.2391 59.6092 13.255C59.4867 13.0479 59.4472 12.7041 59.3871 12.4576C59.1626 12.6092 59.2046 12.5913 58.9541 12.338C58.91 12.2934 58.6895 12.0885 58.6688 12.0216C58.5719 11.7085 58.7417 11.8939 58.6942 11.6996C58.5579 11.1415 57.7924 11.247 57.7317 10.4107C57.3585 10.7266 57.2162 10.2789 56.9955 9.96049C56.7693 9.6343 56.39 9.50884 56.4104 8.99145C56.2929 9.04504 56.1754 9.0985 56.058 9.15182C56.119 8.67439 55.5871 8.7048 55.3944 8.46261C55.5014 8.46438 55.6077 8.47557 55.7135 8.49616ZM56.0177 38.0664C56.2028 37.8456 56.1466 38.1394 56.2657 38.1058C56.3676 38.077 56.3877 37.9744 56.4854 37.9429C56.8878 37.8132 57.4894 37.9761 57.9127 37.9482C58.4028 37.9159 59.243 38.0515 59.4765 38.8162C59.6173 39.2767 59.4026 39.12 59.166 39.0858C58.9825 39.0593 58.8195 39.1088 58.638 39.1064C58.5482 39.1248 58.4588 39.123 58.3697 39.1008C58.3262 39.0626 58.3005 39.0089 58.2926 38.9396C58.04 38.8886 57.7718 39.0878 57.4921 39.0978C57.1188 39.111 56.787 39.0155 56.5034 38.6795C56.3907 38.9036 56.3138 39.0147 56.1111 39.0398C56.1057 39.0405 55.9077 38.9341 55.877 38.9235C55.8365 38.9094 55.7338 39.023 55.6556 38.9906C55.7944 38.6958 55.8146 38.3085 56.0177 38.0664ZM81.5124 40.7274C81.5782 40.4218 81.6333 40.1122 81.6934 39.8046C82.6148 41.2032 83.4211 43.0754 83.784 44.8691C84.0196 46.0346 84.3865 48.1466 83.2628 48.7477C82.3475 49.2374 81.8371 47.482 81.6055 46.6175C81.0942 44.709 81.0942 42.6693 81.5124 40.7274ZM40.288 18.8125C40.2998 18.8094 39.6915 19.2811 39.8919 18.8991C39.9724 18.7456 40.2778 18.6376 40.4132 18.6376L40.288 18.8125ZM39.7028 19.0124C39.6324 19.0914 39.5613 19.1694 39.4896 19.2463C39.4208 19.1012 39.3518 18.9561 39.283 18.811C39.4187 18.7347 39.9952 18.6774 39.7028 19.0124ZM39.2741 33.6787C39.1468 33.5638 39.0459 33.6249 39.0077 33.8178C39.0077 33.6258 39.0826 33.1797 39.1979 33.1278C39.2723 33.0941 38.9504 32.5861 39.0409 32.4532C39.271 32.6289 39.1332 32.7974 39.2006 33.0243C39.2311 33.1267 39.3225 33.2235 39.3425 33.3022C39.3764 33.4357 39.5138 33.8949 39.2741 33.6787ZM38.6505 32.5357C38.5202 32.5801 38.7484 32.867 38.7482 32.9939C38.748 33.0897 38.6617 33.1634 38.626 33.2946C38.5488 33.5789 38.6817 33.7709 38.4629 33.9879C38.4629 33.3649 38.1494 31.7143 38.7519 31.4108C38.458 31.1021 38.6994 30.746 38.9297 31.1152C39.1512 31.4703 39.0101 32.4129 38.6505 32.5357ZM38.3366 30.0775C38.2182 29.5175 37.8617 29.3217 37.4543 29.3548C37.4698 29.0682 37.6328 28.6549 37.7505 29.1716C37.7989 29.0188 37.8324 28.8196 37.9427 28.7184C38.1285 29.4952 39.0549 29.9243 38.4781 30.766C38.431 30.5365 38.3851 30.3066 38.3366 30.0775ZM37.2601 29.3966C35.1149 29.604 32.1032 30.1975 30.3865 28.0051C29.2671 26.5755 29.3269 24.3493 30.2315 22.761C30.7477 21.8547 31.4523 21.2164 32.1601 20.6085C32.4331 20.3738 32.6645 20.2189 32.9643 20.084C33.0128 20.0771 33.0585 20.0915 33.1012 20.1274C33.1181 20.0308 33.1588 19.9594 33.2238 19.9127C33.3395 19.8301 33.5045 19.8007 33.5712 19.6291C33.5 19.9512 33.4634 20.2829 33.4373 20.6161C33.3795 20.5264 33.3218 20.4367 33.264 20.347C33.2158 20.9539 32.7415 20.5866 32.4583 20.6624C32.6449 21.0066 32.7783 21.1316 32.7943 21.5865C32.6554 21.2445 32.3649 21.0197 32.0948 20.9095C32.2415 21.488 32.3452 21.8313 32.1974 22.4657C32.0191 22.3299 32.007 22.0037 31.7907 21.9256C31.7336 22.3039 31.7234 22.7236 31.6503 23.0907C31.0962 22.7537 31.1503 23.6613 31.3728 24.1103C31.491 24.3493 31.5492 24.6258 31.6547 24.8552C31.9137 25.4177 31.7169 24.5765 32.0048 24.6164C31.9401 25.2098 31.9176 25.2688 32.2433 25.7033C32.5611 26.127 32.726 26.7149 33.066 27.1129C33.1643 26.9452 33.0096 26.7697 32.996 26.6092C33.3124 26.68 33.4605 27.1028 33.7646 26.7282C33.8972 27.0728 34.0407 27.4524 34.3583 27.5231C34.1484 26.991 34.7615 27.3518 34.9187 27.4274C35.0381 27.4847 35.2517 27.5302 35.2977 27.5523C35.5568 27.6771 35.3791 27.4532 35.5364 27.8621C35.7672 27.7693 35.8544 27.5139 36.1305 27.7296C36.355 27.9051 36.3555 28.2057 36.4068 28.5136C36.4603 28.3122 36.5144 28.1109 36.5735 27.9122C36.6338 27.946 36.8866 28.3169 36.8591 28.3187C37.4507 28.28 37.4298 28.7698 37.2601 29.3966ZM34.2481 19.355C34.3669 19.2439 34.512 19.3918 34.6454 19.352C34.8301 19.297 34.935 19.0861 35.1413 19.0634C35.0839 19.3081 34.9761 19.2852 34.885 19.4773C34.854 19.5428 34.8701 19.6999 34.8425 19.7375C34.6112 20.0533 34.5314 19.7956 34.2953 19.5566C34.3158 19.8448 34.3574 19.9359 34.1537 20.0133C33.9693 20.0833 33.665 19.8252 33.572 19.6272C33.6504 19.418 34.1059 19.4881 34.2481 19.355ZM35.72 18.9044C35.9204 18.9299 35.6791 19.7179 35.392 18.9535C35.5001 18.9222 35.6095 18.9058 35.72 18.9044ZM36.7501 18.7521C37.0659 18.6662 38.1196 18.2658 38.2369 18.9215C38.258 18.9051 38.3363 18.535 38.3728 18.5801C38.5187 18.7611 38.535 19.001 38.5239 19.2523C38.3474 18.7625 38.4102 19.1927 38.2906 19.1592C38.2595 19.1503 38.2118 19.228 38.1327 19.196C38.0291 19.1539 37.9549 18.86 37.8895 18.7604C37.7806 18.9677 37.6456 19.2346 37.4275 19.2166C37.2732 19.2039 37.0244 18.674 37.2244 19.2541C37.107 19.2024 36.9711 19.0854 36.8404 19.1089C36.694 19.1352 36.6179 19.3279 36.4807 19.359C36.1765 19.4277 36.1306 19.0374 35.9331 18.8255C36.2055 18.8043 36.4811 18.8252 36.7501 18.7521ZM38.6613 18.7458C38.6835 18.6114 38.96 18.5571 39.0303 18.5998C39.2022 18.7038 39.1386 18.8412 39.1071 19.0697C38.9796 18.9893 38.8521 18.9089 38.7246 18.8285C38.9149 19.237 38.5701 19.2964 38.6613 18.7458ZM92.1709 42.6776C92.1484 41.6985 92.127 40.7024 91.9409 39.7492C91.8105 39.0821 91.4905 37.8859 90.8851 37.7701C89.9722 37.5954 89.4666 40.0012 89.2108 40.8271C89.1596 39.8548 89.2044 38.8199 88.929 37.897C88.7084 37.1575 88.1513 36.4571 87.6714 37.2876C87.2444 38.0267 87.1624 39.1178 87.05 40.0071C86.9044 41.1594 86.8169 42.3206 86.7106 43.4799C86.2936 42.4054 86.2207 41.1755 85.8911 40.0588C85.5801 39.005 85.0907 37.9986 84.6193 37.0614C84.2344 36.2958 83.766 35.576 83.1629 35.108C82.6379 34.7007 81.7199 34.2601 81.2196 34.9366C80.8021 35.501 80.8675 36.2564 80.8892 36.9686C80.8989 37.2858 80.9362 37.5033 80.727 37.6632C80.6242 37.7417 80.4635 37.7011 80.3506 37.7431C80.1685 37.8109 80.0289 37.9257 79.8749 38.0783C78.7952 39.1482 78.2976 41.0764 78.1436 42.7954C77.9486 44.9735 78.5853 46.8407 79.1334 48.8336C79.2207 49.1512 79.4981 49.825 79.4598 50.1796C79.4178 50.5681 79.0521 50.5782 78.8053 50.5862C78.0599 50.6108 77.2809 50.5367 76.5394 50.4441C74.7737 50.2239 73.0095 49.0905 71.4286 48.0787C71.1402 47.894 70.7321 47.7883 70.4967 47.4976C70.2754 47.2243 70.217 46.7863 70.026 46.4728C69.5571 45.7035 69.2584 45.047 68.568 44.5823C67.8649 44.1091 67.1475 43.6717 66.4615 43.1534C65.6133 42.5122 64.8295 41.7 64.0166 40.982C62.5059 39.648 61.0054 38.1856 59.4037 37.0513C58.6595 36.5241 57.8278 36.4387 57.0551 36.0071C56.3026 35.5868 55.3789 35.5863 54.5937 35.8516C54.2112 35.981 53.9509 36.2876 53.5991 36.4877C53.1868 36.7222 52.8505 36.4634 52.4877 36.1834C51.9335 35.7558 51.384 35.0589 52.1733 34.5976C52.4411 34.441 52.7765 34.3817 53.0105 34.1356C53.2598 33.8733 53.46 33.3895 53.6627 33.061C54.1134 32.3307 54.3826 31.49 55.0423 31.0359C55.7718 30.5336 56.6365 30.397 57.4143 30.0687C58.2571 29.7132 59.0823 29.2905 59.9094 28.8754C61.3995 28.1275 62.9487 27.3201 64.0194 25.6738C64.943 24.2535 65.3455 22.4203 65.3082 20.5583C65.232 16.7518 63.7028 12.8888 61.5086 10.5088C58.8181 7.59053 55.3953 6.61739 51.9967 6.66839C50.4017 6.6924 48.4982 6.97073 47.1673 8.26283C46.0178 9.37888 45.8266 11.3309 45.9976 13.0929C46.0669 13.808 46.3041 14.7517 45.9259 15.3819C45.7142 15.7344 45.3342 15.8217 45.0491 16.0415C44.6907 16.3176 44.3748 16.5823 43.9689 16.7284C42.2449 17.3491 40.429 17.133 38.6664 17.0986C35.73 17.0413 32.7203 18.1014 30.5298 20.8601C28.7609 23.0877 28.2304 27.2883 30.3878 29.46C32.1308 31.2144 34.8649 31.0214 36.9201 30.7154C37.5575 30.6204 37.9957 30.4823 37.9972 31.522C37.9988 32.6577 37.8577 33.8447 38.075 34.9596C38.4173 36.7155 39.6827 36.7574 40.8015 36.3792C41.3918 36.1797 41.9625 35.8797 42.5231 35.5655C43.3453 35.1047 44.099 34.4271 44.9111 33.9671C45.4616 33.6554 45.8738 34.6636 46.3621 33.9647C46.4523 33.8355 46.4689 33.643 46.605 33.5768C46.8183 33.4733 47.176 33.8364 47.3631 33.9512C47.6432 34.1231 47.9255 34.2496 48.0374 34.6636C48.1421 35.0509 48.0962 35.6667 47.9959 36.0488C47.778 36.8793 47.1914 36.7151 46.6557 36.6596C45.7215 36.5627 44.7935 36.3572 43.8596 36.2708C43.0217 36.1934 42.2371 36.5272 41.5143 37.0781C39.9964 38.2352 38.7545 40.0757 37.4384 41.5892C36.761 42.3682 36.1062 43.2096 35.3695 43.8879C35.0493 44.1829 34.7024 44.454 34.424 44.8205C34.1478 45.1841 34.1174 45.5146 34.0229 45.9985C33.8547 46.8599 33.0192 47.281 32.4969 47.7356C31.7583 48.3783 30.9753 48.8317 30.1473 49.2261C28.3938 50.0612 26.6266 50.6443 24.7934 51.0754C23.8959 51.2865 23.0058 51.4252 22.0995 51.5392C21.3183 51.6374 20.4876 51.9581 19.7073 51.7019C19.9321 51.2158 20.3303 50.924 20.6404 50.5483C21.0402 50.0641 21.3803 49.4902 21.6829 48.8957C22.2719 47.7379 22.685 46.4956 22.7799 45.0912C22.8654 43.8273 22.7674 42.3154 22.1954 41.2478C21.9978 40.8789 21.607 40.7785 21.4302 40.4463C21.2544 40.116 21.3214 39.5475 21.2251 39.1624C20.9801 38.183 20.2528 36.9693 19.6128 36.4005C18.9185 35.7832 17.9028 35.5564 17.1007 35.8781C15.6147 36.474 14.702 38.5913 14.022 40.3026C13.6506 39.2605 14.2726 37.7144 13.547 36.861C12.935 36.1411 12.4493 37.5357 12.2446 38.1323C11.2837 40.9329 11.0655 43.9033 10.6629 46.8999C10.4988 46.6843 10.5829 46.1309 10.5983 45.8737C10.627 45.3949 10.6244 44.9253 10.6251 44.4444C10.627 43.2298 10.7964 42.0095 10.7188 40.796C10.6739 40.0945 10.5062 38.6153 9.74177 38.8484C9.0935 39.0461 8.68744 40.2616 8.48374 41.0046C8.18995 42.0765 8.12212 43.1376 8.1404 44.2699C8.16063 45.5209 7.98186 46.7515 7.93854 48.0008C7.85437 50.4275 7.93752 52.8332 8.45974 55.1752C9.31487 59.0103 11.281 62.1969 13.9052 64.1211C15.351 65.1813 16.9549 65.8521 18.604 65.9964C19.4976 66.0745 20.3603 65.9327 21.2463 65.8096C22.1206 65.6879 22.9996 65.6318 23.8724 65.4891C25.8162 65.1712 27.7102 64.3507 29.477 63.2467C30.407 62.6654 31.2815 61.952 32.1963 61.3323C32.5634 61.0838 32.8114 60.7728 33.1246 60.4271C33.4351 60.0845 33.5212 60.0576 33.8743 60.0576C33.7707 59.6881 34.0731 59.5742 34.2076 59.3403C34.2001 59.4538 34.1925 59.5671 34.185 59.6805C34.2875 59.3838 34.383 59.3867 34.4714 59.689C34.5587 59.3504 34.6234 59.0023 34.7288 58.6723C35.132 58.9443 35.0981 59.5911 35.6373 59.1189C36.0814 58.7302 36.4897 58.2718 36.9423 57.8909C37.9735 57.023 38.8625 55.8939 39.8966 55.036C39.8966 55.8715 39.9408 56.7143 39.8571 57.5456C39.7774 58.336 39.556 59.0748 39.38 59.8315C39.0554 61.2277 39.0329 62.7197 38.6732 64.1018C38.5244 64.6742 38.1367 65.1528 38.0256 65.71C37.9123 66.2784 38.174 66.7339 37.7352 67.1071C37.4259 67.3702 37.0393 67.4813 36.6967 67.6405C36.1742 67.8834 35.6781 68.2261 35.1695 68.5167C32.7838 69.8797 30.4567 71.2678 28.2464 73.1004C26.1488 74.8396 24.0191 76.6357 22.0921 78.7011C20.4198 80.4937 18.7292 82.8115 18.3221 85.7356C17.9271 88.572 18.9796 91.6164 21.093 92.5506C22.1918 93.0363 23.4341 92.9762 24.5785 92.9972C25.8098 93.0198 27.1147 92.6242 28.3253 92.3378C29.6038 92.0355 30.8604 91.5623 32.1427 91.2923C33.3729 91.0332 34.5013 90.4542 35.7115 90.0973C37.0003 89.7172 38.3223 89.511 39.6182 89.1692C40.2017 89.0152 40.7734 88.7881 41.3584 88.6456C41.999 88.4896 42.6465 88.4311 43.2808 88.2245C44.511 87.8236 45.689 87.1773 46.9246 86.8044C47.4801 86.6366 48.0272 86.412 48.5829 86.2553C49.0946 86.1111 49.4932 85.7276 50.006 86.0425C50.4202 86.2969 50.7507 86.7332 51.1428 87.037C51.6513 87.4313 52.1874 87.7843 52.7176 88.1235C53.7829 88.805 54.8877 89.2761 56.0014 89.7877C57.1714 90.3253 58.3204 90.9383 59.5324 91.2933C60.775 91.6571 62.0427 91.7584 63.2938 92.0463C65.8563 92.6357 68.397 92.9002 70.998 92.9216C72.3127 92.9327 73.6273 92.7249 74.9389 92.7494C76.1001 92.7712 77.1096 93.1202 78.1714 92.2971C79.868 90.9819 81.8359 89.0009 81.7942 86.1235C81.7563 83.5173 80.5838 81.0273 79.4841 78.9718C78.1485 76.4756 76.2444 74.7178 74.3781 72.9958C72.3891 71.1609 70.1549 69.8929 68.0644 68.2911C66.9953 67.4719 66.0093 66.5906 64.8484 66.0084C64.2942 65.7306 63.7536 65.4085 63.206 65.1093C62.7653 64.8686 62.129 64.7357 61.7518 64.3362C61.5165 64.0871 61.4939 63.7098 61.4318 63.3392C61.2941 62.5194 61.0778 61.7418 60.8682 60.9511C60.4635 59.4243 60.1945 57.8693 60.0205 56.2681C59.8547 54.7416 59.4866 53.1541 59.6773 51.6027C60.9311 53.2198 62.2195 54.7743 63.5023 56.3485C63.9831 56.9385 64.4549 57.5408 64.9382 58.1272C65.301 58.5674 65.7547 59.2213 66.2605 59.3519C66.9063 59.5189 66.6704 58.5662 67.1139 58.4186C67.3849 58.3285 68.2024 59.2467 68.4167 59.428C69.7749 60.5778 71.2789 61.3064 72.7728 62.089C74.3394 62.9095 75.9505 63.6384 77.6361 63.845C79.1931 64.0361 80.7853 63.7909 82.2879 63.2254C85.2802 62.099 87.4822 59.4264 89.0981 55.9621C90.9395 52.0144 92.2793 47.39 92.1709 42.6776Z" fill="black"/>
<path fill-rule="evenodd" clip-rule="evenodd" d="M46.4374 34.0718C46.4369 34.0729 46.4325 34.086 46.4325 34.086C46.438 34.0808 46.4396 34.0761 46.4374 34.0718Z" fill="black"/>
<path fill-rule="evenodd" clip-rule="evenodd" d="M46.582 34.1228C46.5708 33.9971 46.5466 33.874 46.5095 33.7534C46.4104 33.9628 46.3218 34.0525 46.4519 34.2743C46.4952 34.2238 46.5386 34.1733 46.582 34.1228Z" fill="black"/>
<path fill-rule="evenodd" clip-rule="evenodd" d="M53.4822 64.0501C53.593 63.8929 53.3992 63.8337 53.3256 63.8315C53.3329 64.0002 53.2702 64.4044 53.4433 64.4826C53.4017 64.33 53.4148 64.1858 53.4822 64.0501Z" fill="black"/>
<path fill-rule="evenodd" clip-rule="evenodd" d="M50.5592 31.1547C50.3688 31.645 50.7894 31.7971 51.033 31.5603C51.2163 31.3822 51.3246 30.9282 51.3547 30.6369C51.4521 29.6943 50.9574 28.7972 50.7108 27.9609C50.647 27.7448 50.5597 27.0034 50.3545 26.983C50.1187 26.9596 50.1013 27.6424 50.0982 27.8186C50.0891 28.3499 50.1946 28.891 50.3183 29.3924C50.4515 29.9331 50.7817 30.5821 50.5592 31.1547Z" fill="black"/>
<path fill-rule="evenodd" clip-rule="evenodd" d="M51.4649 29.1882C52.1969 30.0572 52.7824 28.6098 52.7313 27.7536C52.7186 27.5415 52.6111 26.7594 52.3094 27.044C52.1578 27.187 52.2871 27.6517 52.2148 27.8557C51.8647 28.8448 51.5276 27.3106 51.2918 27.1901C51.005 27.0434 50.9762 27.5459 50.9766 27.8145C50.9773 28.3476 51.1676 28.835 51.4649 29.1882Z" fill="black"/>
<path fill-rule="evenodd" clip-rule="evenodd" d="M48.8079 29.323C48.9803 28.961 49.1923 28.4755 49.2157 28.0418C49.2521 27.3677 48.9575 27.4239 48.715 27.8943C48.5437 28.2265 48.4152 28.79 48.0371 28.65C47.5704 28.4773 47.713 27.6404 47.4517 27.2427C46.7918 28.4245 48.0405 30.9338 48.8079 29.323Z" fill="black"/>
<path fill-rule="evenodd" clip-rule="evenodd" d="M49.7969 32.9399C50.0699 33.0186 50.7814 32.9896 50.5349 32.4324C50.2239 31.7304 49.1899 32.7649 49.7969 32.9399Z" fill="black"/>
<path fill-rule="evenodd" clip-rule="evenodd" d="M59.3585 12.0083C59.4085 11.8099 59.3398 11.7739 59.2207 11.6177C59.1079 11.7565 59.2524 11.9026 59.3585 12.0083Z" fill="black"/>
<path fill-rule="evenodd" clip-rule="evenodd" d="M64.4493 47.9392C64.6294 47.9773 64.6874 47.8504 64.6231 47.5581C64.339 47.5336 64.2811 47.6606 64.4493 47.9392Z" fill="black"/>
<path fill-rule="evenodd" clip-rule="evenodd" d="M54.6168 17.2882C54.8154 17.4093 54.7394 17.6577 54.736 17.8677C54.8383 17.7194 55.0449 17.4484 54.9608 17.2355C54.8312 16.9072 54.4924 17.2125 54.6168 17.2882Z" fill="black"/>
<path fill-rule="evenodd" clip-rule="evenodd" d="M47.8516 13.1562C47.8213 13.0775 47.791 12.9987 47.7608 12.9199C47.6374 13.0519 47.447 13.4009 47.643 13.571C47.7233 13.4409 47.7929 13.3027 47.8516 13.1562Z" fill="black"/>
<path fill-rule="evenodd" clip-rule="evenodd" d="M50.2346 15.4725C50.4817 15.7309 50.3632 14.9378 50.3557 14.873C50.319 14.9661 50.1098 15.342 50.2346 15.4725Z" fill="black"/>
<path fill-rule="evenodd" clip-rule="evenodd" d="M50.0977 15.0698C50.0788 15.0042 50.0598 14.9387 50.0409 14.873C49.9408 14.9967 49.818 15.2492 49.9835 15.3939C50.0289 15.2926 50.0669 15.1846 50.0977 15.0698Z" fill="black"/>
<path fill-rule="evenodd" clip-rule="evenodd" d="M51.6671 17.793C51.6873 17.8179 51.7075 17.8427 51.7276 17.8677C51.809 17.6485 51.7164 17.4838 51.5625 17.4771C51.5734 17.6001 51.6083 17.7055 51.6671 17.793Z" fill="black"/>
<path fill-rule="evenodd" clip-rule="evenodd" d="M45.0454 42.4554C45.1434 42.3664 45.2324 42.2649 45.3125 42.1511C45.0224 41.9146 45.1962 42.4271 44.847 42.1124C44.7717 42.251 44.8947 42.5614 45.0454 42.4554Z" fill="black"/>
<path fill-rule="evenodd" clip-rule="evenodd" d="M57.2366 63.9614C57.3469 63.7357 57.3668 63.7421 57.2161 63.5708C57.0905 63.8498 57.1035 63.7781 57.2366 63.9614Z" fill="black"/>
<path fill-rule="evenodd" clip-rule="evenodd" d="M34.1797 28.0341C34.2397 28.1176 34.2998 28.2011 34.3599 28.2845C34.3879 28.1752 34.5408 27.8665 34.437 27.7637C34.3512 27.8538 34.2654 27.9439 34.1797 28.0341Z" fill="black"/>
<path fill-rule="evenodd" clip-rule="evenodd" d="M36.3158 28.8601C36.2199 28.8388 35.9906 28.7455 35.9375 28.8644C36.0778 29.0177 36.3943 28.8777 36.3158 28.8601Z" fill="black"/>
</svg>
