<svg width="30" height="30" viewBox="0 0 30 30" fill="none" xmlns="http://www.w3.org/2000/svg">
<path d="M23.5938 5.625C25.4062 5.625 26.875 7.09375 26.875 8.90625V21.0938C26.875 22.9062 25.4062 24.375 23.5938 24.375H6.40625C5.53601 24.375 4.70141 24.0293 4.08606 23.4139C3.4707 22.7986 3.125 21.964 3.125 21.0938V8.90625C3.125 7.09375 4.59375 5.625 6.40625 5.625H23.5938ZM25.3125 11.4694L15.3762 16.9344C15.274 16.9906 15.1605 17.0232 15.044 17.0298C14.9275 17.0364 14.8111 17.0168 14.7031 16.9725L14.6238 16.935L4.6875 11.4688V21.0938C4.6875 21.5496 4.86858 21.9868 5.19091 22.3091C5.51324 22.6314 5.95041 22.8125 6.40625 22.8125H23.5938C24.0496 22.8125 24.4868 22.6314 24.8091 22.3091C25.1314 21.9868 25.3125 21.5496 25.3125 21.0938V11.4694ZM23.5938 7.1875H6.40625C5.95041 7.1875 5.51324 7.36858 5.19091 7.69091C4.86858 8.01324 4.6875 8.45041 4.6875 8.90625V9.68687L15 15.3581L25.3125 9.68625V8.90625C25.3125 8.45041 25.1314 8.01324 24.8091 7.69091C24.4868 7.36858 24.0496 7.1875 23.5938 7.1875Z" fill="black"/>
</svg>
