<svg width="30" height="30" viewBox="0 0 30 30" fill="none" xmlns="http://www.w3.org/2000/svg">
<path d="M10.615 23.9888C10.6437 23.5688 10.7038 23.15 10.7938 22.7375C10.8725 22.3688 11.1112 21.325 11.4612 19.8125L11.47 19.775L11.9537 17.69C12.0525 17.265 12.1288 16.935 12.18 16.825C11.9373 16.2638 11.8163 15.6576 11.825 15.0462C11.825 13.375 12.77 12.08 13.995 12.08C14.445 12.0725 14.875 12.2675 15.1725 12.6125C15.47 12.9575 15.6075 13.4163 15.55 13.8575C15.55 14.4238 15.4438 14.855 14.9825 16.4013C14.9112 16.6384 14.8425 16.8764 14.7762 17.115C14.7125 17.35 14.6575 17.5625 14.6112 17.7675C14.4913 18.25 14.6012 18.7638 14.9075 19.1488C15.056 19.3378 15.2477 19.4883 15.4666 19.5877C15.6854 19.6871 15.925 19.7325 16.165 19.72C18.03 19.72 19.415 17.2387 19.415 14.035C19.415 11.5725 17.8025 9.9425 15.125 9.9425C14.4547 9.91758 13.7866 10.032 13.1629 10.2786C12.5391 10.5252 11.9733 10.8985 11.5013 11.375C11.0191 11.8619 10.6387 12.44 10.3822 13.0754C10.1258 13.7109 9.99837 14.391 10.0075 15.0763C9.97643 15.8147 10.2026 16.541 10.6475 17.1313C10.8737 17.3062 10.96 17.61 10.8663 17.8687C10.815 18.0787 10.6912 18.5588 10.645 18.7188C10.6319 18.797 10.6008 18.8712 10.5542 18.9354C10.5075 18.9996 10.4466 19.0521 10.3762 19.0887C10.3079 19.1246 10.232 19.1437 10.1548 19.1444C10.0776 19.145 10.0014 19.1272 9.9325 19.0925C8.4825 18.4938 7.6875 16.87 7.6875 14.7925C7.6875 11.0612 10.8013 7.8125 15.4275 7.8125C19.3463 7.8125 22.2787 10.7238 22.2787 14.2375C22.2787 18.6525 19.8638 21.8675 16.4163 21.8675C15.9259 21.8817 15.439 21.7807 14.9949 21.5725C14.5507 21.3643 14.1615 21.0547 13.8587 20.6688L13.805 20.89L13.5462 21.955L13.5437 21.965C13.3612 22.715 13.2338 23.2363 13.1838 23.4313C13.0512 23.875 12.8837 24.31 12.6838 24.7313C15.171 25.324 17.7908 24.9415 20.0048 23.6624C22.2187 22.3832 23.8586 20.3046 24.5873 17.8537C25.316 15.4028 25.0783 12.7659 23.9229 10.4849C22.7675 8.20396 20.7822 6.45222 18.3751 5.58975C15.9681 4.72728 13.3221 4.8196 10.981 5.84776C8.63989 6.87591 6.78156 8.76177 5.78796 11.1177C4.79435 13.4737 4.74095 16.1208 5.63874 18.5149C6.53652 20.909 8.31728 22.867 10.615 23.9888ZM15 27.5C8.09625 27.5 2.5 21.9037 2.5 15C2.5 8.09625 8.09625 2.5 15 2.5C21.9037 2.5 27.5 8.09625 27.5 15C27.5 21.9037 21.9037 27.5 15 27.5Z" fill="black"/>
</svg>
