<svg xmlns="http://www.w3.org/2000/svg" width="15" height="15" viewBox="0 0 15 15" fill="none">
    <g clip-path="url(#clip0_814_12076)">
        <ellipse cx="7.5" cy="7" rx="3.5" ry="3" fill="white"/>
        <path d="M5.375 14.0625L4.1875 12.0625L1.9375 11.5625L2.15625 9.25L0.625 7.5L2.15625 5.75L1.9375 3.4375L4.1875 2.9375L5.375 0.9375L7.5 1.84375L9.625 0.9375L10.8125 2.9375L13.0625 3.4375L12.8438 5.75L14.375 7.5L12.8438 9.25L13.0625 11.5625L10.8125 12.0625L9.625 14.0625L7.5 13.1562L5.375 14.0625ZM6.84375 9.71875L10.375 6.1875L9.5 5.28125L6.84375 7.9375L5.5 6.625L4.625 7.5L6.84375 9.71875Z" fill="#633B55"/>
    </g>
    <defs>
        <clipPath id="clip0_814_12076">
            <rect width="15" height="15" fill="white"/>
        </clipPath>
    </defs>
</svg>